<svg xmlns="http://www.w3.org/2000/svg" xmlns:cc="http://web.resource.org/cc/" xmlns:svg="http://www.w3.org/2000/svg" xmlns:xlink="http://www.w3.org/1999/xlink" id="svg5615" width="48" height="48" version="1.0"><defs id="defs5617"><linearGradient id="linearGradient8146"><stop id="stop8148" offset="0" style="stop-color:#ebebe8;stop-opacity:1"/><stop id="stop8150" offset="1" style="stop-color:#fbfbfb;stop-opacity:1"/></linearGradient><linearGradient id="linearGradient7954"><stop id="stop7956" offset="0" style="stop-color:#fff;stop-opacity:1"/><stop id="stop7958" offset="1" style="stop-color:#e4e4e1;stop-opacity:1"/></linearGradient><linearGradient id="linearGradient7944"><stop id="stop7946" offset="0" style="stop-color:#dededa;stop-opacity:1"/><stop id="stop7948" offset="1" style="stop-color:#fff;stop-opacity:1"/></linearGradient><linearGradient id="linearGradient6343"><stop style="stop-color:#fce94f;stop-opacity:1" id="stop6345" offset="0"/><stop style="stop-color:#fce94f;stop-opacity:0" id="stop6347" offset="1"/></linearGradient><filter id="filter6052" width="1.283" height="2.415" x="-.141" y="-.707"><feGaussianBlur id="feGaussianBlur6054" stdDeviation="1.179"/></filter><linearGradient id="linearGradient6108"><stop style="stop-color:#000;stop-opacity:1" id="stop6110" offset="0"/><stop style="stop-color:#000;stop-opacity:0" id="stop6112" offset="1"/></linearGradient><linearGradient id="linearGradient4919"><stop style="stop-color:#888a85;stop-opacity:1" id="stop4921" offset="0"/><stop style="stop-color:#888a85;stop-opacity:0" id="stop4923" offset="1"/></linearGradient><linearGradient id="linearGradient6076"><stop style="stop-color:#fff;stop-opacity:1" id="stop6078" offset="0"/><stop style="stop-color:#cbcbcb;stop-opacity:1" id="stop6080" offset="1"/></linearGradient><linearGradient id="linearGradient6672"><stop style="stop-color:#fff;stop-opacity:1" id="stop6674" offset="0"/><stop style="stop-color:#fff;stop-opacity:0" id="stop6676" offset="1"/></linearGradient><linearGradient id="linearGradient6565"><stop style="stop-color:#000;stop-opacity:1" id="stop6567" offset="0"/><stop style="stop-color:#000;stop-opacity:0" id="stop6569" offset="1"/></linearGradient><linearGradient id="linearGradient5912"><stop style="stop-color:#ebebe8;stop-opacity:1" id="stop5914" offset="0"/><stop style="stop-color:#eeeeec;stop-opacity:1" id="stop5916" offset="1"/></linearGradient><linearGradient id="linearGradient6748" x1="9.295" x2="13.387" y1="5.661" y2="33.642" gradientTransform="matrix(0.4893634,0,0,0.4893634,107.28182,-91.008179)" gradientUnits="userSpaceOnUse" xlink:href="#linearGradient5912"/><linearGradient id="linearGradient6815" x1="43.282" x2="28.477" y1="37.464" y2="37.465" gradientTransform="matrix(0.5044,0,0,0.789146,-3.3886096,-9.1055033)" gradientUnits="userSpaceOnUse" xlink:href="#linearGradient6672"/><filter id="filter7168"><feGaussianBlur id="feGaussianBlur7170" stdDeviation="1.703"/></filter><radialGradient id="radialGradient8421" cx="36.62" cy="7.221" r="5.171" fx="36.62" fy="7.221" gradientUnits="userSpaceOnUse" xlink:href="#linearGradient6343"/><linearGradient id="linearGradient8423" x1="36.211" x2="18.193" y1="37.921" y2="11.671" gradientTransform="matrix(0.5825754,0,0,0.5825756,-49.95022,8.704547)" gradientUnits="userSpaceOnUse" xlink:href="#linearGradient8146"/><radialGradient id="radialGradient8425" cx="23.946" cy="24.538" r="21.456" fx="23.946" fy="24.538" gradientUnits="userSpaceOnUse" xlink:href="#linearGradient6565"/><linearGradient id="linearGradient8427" x1="17.688" x2="18.562" y1="4.528" y2="3.749" gradientTransform="matrix(1.3854229,0,0,1.5817473,-47.35948,-1.7165453)" gradientUnits="userSpaceOnUse" xlink:href="#linearGradient6076"/><linearGradient id="linearGradient8429" x1="18.977" x2="14.121" y1="6.559" y2="2.942" gradientTransform="matrix(1.0283037,0,0,1.1842757,-40.43871,6.89833e-2)" gradientUnits="userSpaceOnUse" xlink:href="#linearGradient4919"/><linearGradient id="linearGradient8431" x1="16.552" x2="16.552" y1="-.562" y2="7.836" gradientTransform="matrix(0.9803921,0,0,1.0330341,-38.70588,1.3039237)" gradientUnits="userSpaceOnUse" xlink:href="#linearGradient6108"/><linearGradient id="linearGradient8433" x1="-1.358" x2="17.17" y1="-13.379" y2="20.088" gradientTransform="matrix(2.1617708,0,0,2.0501246,-62.81629,-1.5751872)" gradientUnits="userSpaceOnUse" xlink:href="#linearGradient7944"/><radialGradient id="radialGradient8435" cx="36.62" cy="7.221" r="5.171" fx="36.62" fy="7.221" gradientUnits="userSpaceOnUse" xlink:href="#linearGradient6343"/><radialGradient id="radialGradient8437" cx="36.62" cy="7.221" r="5.171" fx="36.62" fy="7.221" gradientUnits="userSpaceOnUse" xlink:href="#linearGradient6343"/><linearGradient id="linearGradient8439" x1="17.688" x2="18.562" y1="4.528" y2="3.749" gradientTransform="matrix(1.2238011,0,0,1.1813056,-5.69272,-1.5824842)" gradientUnits="userSpaceOnUse" xlink:href="#linearGradient6076"/><linearGradient id="linearGradient8441" x1="18.977" x2="14.121" y1="6.559" y2="2.942" gradientTransform="matrix(0.9083429,0,0,0.8844596,0.42068,-0.2489868)" gradientUnits="userSpaceOnUse" xlink:href="#linearGradient4919"/><linearGradient id="linearGradient8443" x1="16.552" x2="16.552" y1="2.963" y2="7.836" gradientTransform="matrix(0.7843136,0,0,0.8225202,3.72414,0.4445121)" gradientUnits="userSpaceOnUse" xlink:href="#linearGradient6108"/><linearGradient id="linearGradient8445" x1="11.823" x2="33.184" y1="5.084" y2="41.243" gradientTransform="matrix(0.3033479,0,0,0.3029358,3.74154,3.5628872)" gradientUnits="userSpaceOnUse" xlink:href="#linearGradient7954"/><linearGradient id="linearGradient8447" x1="1.336" x2="17.012" y1="-6.134" y2="20.402" gradientTransform="matrix(1.0531984,0,0,0.9993944,-2.09057,-0.9990927)" gradientUnits="userSpaceOnUse" xlink:href="#linearGradient7944"/><linearGradient id="linearGradient8449" x1="36.211" x2="18.193" y1="37.921" y2="11.671" gradientTransform="matrix(0.3961512,0,0,0.3961513,6.513854,7.2790932)" gradientUnits="userSpaceOnUse" xlink:href="#linearGradient8146"/><radialGradient id="radialGradient8451" cx="23.946" cy="24.538" r="21.456" fx="23.946" fy="24.538" gradientUnits="userSpaceOnUse" xlink:href="#linearGradient6565"/><linearGradient id="linearGradient8453" x1="17.688" x2="18.562" y1="4.528" y2="3.749" gradientTransform="matrix(1.3198145,0,0,1.4683021,0.723059,-1.3031638)" gradientUnits="userSpaceOnUse" xlink:href="#linearGradient6076"/><linearGradient id="linearGradient8455" x1="18.977" x2="14.121" y1="6.559" y2="2.942" gradientTransform="matrix(0.9796071,0,0,1.0993378,7.316088,0.3543044)" gradientUnits="userSpaceOnUse" xlink:href="#linearGradient4919"/><linearGradient id="linearGradient8457" x1="16.552" x2="16.552" y1="2.963" y2="7.836" gradientTransform="matrix(0.980392,0,0,1.298668,8.294116,-0.389344)" gradientUnits="userSpaceOnUse" xlink:href="#linearGradient6108"/><linearGradient id="linearGradient8459" x1="2.5" x2="14.562" y1="-5.263" y2="19.56" gradientTransform="matrix(1.5441219,0,0,1.4501245,-3.154498,-0.6751875)" gradientUnits="userSpaceOnUse" xlink:href="#linearGradient7944"/><radialGradient id="radialGradient8509" cx="36.62" cy="7.221" r="5.171" fx="36.62" fy="7.221" gradientUnits="userSpaceOnUse" xlink:href="#linearGradient6343"/><linearGradient id="linearGradient8511" x1="36.211" x2="18.193" y1="37.921" y2="11.671" gradientTransform="matrix(0.5825754,0,0,0.5825756,10.04978,10.704547)" gradientUnits="userSpaceOnUse" xlink:href="#linearGradient8146"/><radialGradient id="radialGradient8513" cx="23.946" cy="24.538" r="21.456" fx="23.946" fy="24.538" gradientUnits="userSpaceOnUse" xlink:href="#linearGradient6565"/><linearGradient id="linearGradient8515" x1="17.688" x2="18.562" y1="4.528" y2="3.749" gradientTransform="matrix(1.3854229,0,0,1.5817473,12.64052,0.2834547)" gradientUnits="userSpaceOnUse" xlink:href="#linearGradient6076"/><linearGradient id="linearGradient8517" x1="18.977" x2="14.121" y1="6.559" y2="2.942" gradientTransform="matrix(1.0283037,0,0,1.1842757,19.56129,2.0689833)" gradientUnits="userSpaceOnUse" xlink:href="#linearGradient4919"/><linearGradient id="linearGradient8519" x1="16.552" x2="16.552" y1="-.562" y2="7.836" gradientTransform="matrix(0.9803921,0,0,1.0330341,21.29412,3.3039237)" gradientUnits="userSpaceOnUse" xlink:href="#linearGradient6108"/><linearGradient id="linearGradient8521" x1="-1.358" x2="17.17" y1="-13.379" y2="20.088" gradientTransform="matrix(2.1617708,0,0,2.0501246,-2.81629,0.4248128)" gradientUnits="userSpaceOnUse" xlink:href="#linearGradient7944"/></defs><metadata id="metadata5620"/><g id="layer1" style="display:inline"><rect style="opacity:.27074238;color:#000;fill:#000;fill-opacity:1;fill-rule:evenodd;stroke:none;stroke-width:.9999997px;stroke-linecap:butt;stroke-linejoin:miter;marker:none;marker-start:none;marker-mid:none;marker-end:none;stroke-miterlimit:4;stroke-dasharray:none;stroke-dashoffset:0;stroke-opacity:1;visibility:visible;display:inline;overflow:visible;filter:url(#filter6052);enable-background:accumulate" id="rect8152" width="20" height="4" x="25" y="41" rx=".908" ry="1.263" transform="matrix(1.8000001,0,0,1.2946093,-39,-13.257422)"/><path id="path8154" d="M 9.03171,3.5 L 35.933068,3.5 L 41.500006,8.756353 L 41.500006,42.150414 C 41.500006,44.007464 40.926492,44.502488 38.968315,44.502488 L 9.03171,44.502488 C 7.07351,44.502488 6.5,44.007464 6.5,42.150414 L 6.5,5.852073 C 6.5,3.9950218 7.07351,3.5 9.03171,3.5 z" style="color:#000;fill:url(#linearGradient8521);fill-opacity:1;fill-rule:evenodd;stroke:#888a85;stroke-width:.99999976px;stroke-linecap:butt;stroke-linejoin:miter;marker:none;marker-start:none;marker-mid:none;marker-end:none;stroke-miterlimit:4;stroke-dashoffset:0;stroke-opacity:1;visibility:visible;display:inline;overflow:visible;enable-background:accumulate"/><path style="color:#000;fill:none;fill-opacity:1;fill-rule:evenodd;stroke:#fff;stroke-width:.99999982;stroke-linecap:butt;stroke-linejoin:miter;marker:none;marker-start:none;marker-mid:none;marker-end:none;stroke-miterlimit:4;stroke-dasharray:none;stroke-dashoffset:0;stroke-opacity:1;visibility:visible;display:inline;overflow:visible;enable-background:accumulate" id="path8156" d="M 9.85206,4.4999998 L 35.31826,4.4999998 L 40.5,9.419761 L 40.423458,42.026565 C 40.423458,43.989182 40.457294,43.499997 38.3584,43.499997 L 9.48327,43.499997 C 7.38437,43.499997 7.5,42.955767 7.5,40.993152 L 7.5,6.3466395 C 7.5,4.3840241 7.75316,4.4999998 9.85206,4.4999998 z"/><path style="fill:url(#linearGradient8519);fill-opacity:1;fill-rule:evenodd;stroke:none;stroke-width:1px;stroke-linecap:butt;stroke-linejoin:miter;stroke-opacity:1;display:inline" id="path8158" d="M 36,6 L 40.981955,9.9851937 L 41,11 L 36.03623,11 L 36,6 z"/><path id="path8160" d="M 41.499999,9.7667758 C 40.410348,8.3264223 36.59697,9.0139034 35.53763,9.7667758 L 35.5,3.4999999" style="fill:url(#linearGradient8515);fill-opacity:1;fill-rule:evenodd;stroke:url(#linearGradient8517);stroke-width:.99999988px;stroke-linecap:butt;stroke-linejoin:miter;stroke-opacity:1;display:inline"/><path style="opacity:.38864632;color:#000;fill:url(#radialGradient8513);fill-opacity:1;fill-rule:evenodd;stroke:none;stroke-width:1.50133264px;stroke-linecap:round;stroke-linejoin:miter;marker:none;marker-start:none;marker-mid:none;marker-end:none;stroke-miterlimit:4;stroke-dasharray:none;stroke-dashoffset:0;stroke-opacity:1;visibility:visible;display:inline;overflow:visible;enable-background:accumulate" id="path8162" d="M 45.402216 24.538368 A 21.456448 21.456448 0 1 1 2.4893208,24.538368 A 21.456448 21.456448 0 1 1 45.402216 24.538368 z" transform="matrix(0.5908396,0,0,0.2609876,9.68409,26.595044)"/><path style="color:#000;fill:url(#linearGradient8511);fill-opacity:1;fill-rule:evenodd;stroke:#888a85;stroke-width:1.00000036px;stroke-linecap:round;stroke-linejoin:miter;marker:none;marker-start:none;marker-mid:none;marker-end:none;stroke-miterlimit:4;stroke-dasharray:none;stroke-dashoffset:0;stroke-opacity:1;visibility:visible;display:inline;overflow:visible;enable-background:accumulate" id="path8164" d="M 24,12.500001 C 17.1,12.500001 11.5,18.1 11.5,25 C 11.5,31.9 17.1,37.499999 24,37.499999 C 30.9,37.499999 36.5,31.9 36.5,25 C 36.5,18.1 30.9,12.500001 24,12.500001 z M 24,21.507134 C 25.92806,21.507134 27.49287,23.071937 27.49287,25 C 27.49287,26.928062 25.92806,28.492865 24,28.492865 C 22.07194,28.492865 20.50713,26.928062 20.50713,25 C 20.50713,23.071937 22.07194,21.507134 24,21.507134 z"/><path style="color:#000;fill:#000;fill-opacity:.1081081;fill-rule:evenodd;stroke:none;stroke-width:2.52428889px;stroke-linecap:round;stroke-linejoin:miter;marker:none;marker-start:none;marker-mid:none;marker-end:none;stroke-miterlimit:4;stroke-dasharray:none;stroke-dashoffset:0;stroke-opacity:1;visibility:visible;display:inline;overflow:visible;enable-background:accumulate" id="path8166" d="M 24,18 C 20.136,18 17,21.135999 17,25 C 17,28.864002 20.136,32 24,32 C 27.864,32 31,28.864002 31,25 C 31,21.135999 27.864,18 24,18 z M 24,20.7125 C 26.35812,20.7125 28.2875,22.641882 28.2875,25 C 28.2875,27.358119 26.35812,29.287499 24,29.287499 C 21.64188,29.287499 19.7125,27.358119 19.7125,25 C 19.7125,22.641882 21.64188,20.7125 24,20.7125 z"/><path style="color:#000;fill:none;fill-opacity:1;fill-rule:evenodd;stroke:#fff;stroke-width:1.86577845px;stroke-linecap:round;stroke-linejoin:miter;marker:none;marker-start:none;marker-mid:none;marker-end:none;stroke-miterlimit:4;stroke-dasharray:none;stroke-dashoffset:0;stroke-opacity:.79729728;visibility:visible;display:inline;overflow:visible;enable-background:accumulate" id="path8168" d="M 45.402216 24.538368 A 21.456448 21.456448 0 1 1 2.4893208,24.538368 A 21.456448 21.456448 0 1 1 45.402216 24.538368 z" transform="matrix(0.5359695,0,0,0.5359694,11.1658,11.848185)"/><path id="path8170" d="M 45.402216 24.538368 A 21.456448 21.456448 0 1 1 2.4893208,24.538368 A 21.456448 21.456448 0 1 1 45.402216 24.538368 z" transform="matrix(0.2097272,0,0,0.2097271,18.97792,19.853638)" style="color:#000;fill:none;fill-opacity:1;fill-rule:evenodd;stroke:#fff;stroke-width:4.76810312px;stroke-linecap:round;stroke-linejoin:miter;marker:none;marker-start:none;marker-mid:none;marker-end:none;stroke-miterlimit:4;stroke-dasharray:none;stroke-dashoffset:0;stroke-opacity:.42342344;visibility:visible;display:inline;overflow:visible;enable-background:accumulate"/><path id="path8172" d="M 35.7868,21.971153 C 35.13584,19.834596 33.82194,17.897715 32.16754,16.478382 C 30.94912,17.931984 29.46943,19.935229 27.14852,22.653411 C 27.52756,22.961327 27.81954,23.371215 27.9594,23.852188 L 35.7868,21.971153 z M 21.96781,28.02328 C 21.66439,27.748554 21.42658,27.406103 21.29209,27.010233 L 13.51554,28.992689 C 14.19113,31.03798 15.42429,32.826885 17.0293,34.193043 C 18.38344,32.618332 19.4745,30.932278 21.96781,28.02328 z" style="fill:#fff;fill-opacity:.28828831;fill-rule:evenodd;stroke:none;stroke-width:1px;stroke-linecap:butt;stroke-linejoin:miter;stroke-opacity:1"/><path style="fill:#000;fill-opacity:.08108108;fill-rule:evenodd;stroke:none;stroke-width:1px;stroke-linecap:butt;stroke-linejoin:miter;stroke-opacity:1" id="path8174" d="M 20.86956,13.718502 C 18.53111,14.411022 16.47253,15.732565 14.91907,17.492605 C 16.51004,18.788844 18.49193,19.814526 21.46694,22.283654 C 21.80396,21.880402 22.25258,21.569781 22.77901,21.420998 L 20.86956,13.718502 z M 26.77319,27.698028 C 26.47249,28.02083 26.09768,28.273816 25.66441,28.416902 L 28.55713,37.279689 C 30.79568,36.560949 32.75364,35.249046 34.24889,33.541528 C 32.52537,32.100914 29.95707,30.350584 26.77319,27.698028 z"/><path style="fill:none;fill-opacity:1;fill-rule:evenodd;stroke:#fff;stroke-width:.99999988px;stroke-linecap:butt;stroke-linejoin:miter;stroke-opacity:.36486487" id="path8176" d="M 20.98316,27.937546 L 14.539,31.710406 M 31.78734,16.856855 L 27.07985,22.227201"/><g style="display:inline" id="g8178" transform="matrix(1.3022088,0,0,1.3999668,14.35141,0.9999999)"><path style="opacity:1;color:#000;fill:url(#radialGradient8509);fill-opacity:1;fill-rule:evenodd;stroke:none;stroke-width:1.01691592;stroke-linecap:square;stroke-linejoin:round;marker:none;marker-start:none;marker-mid:none;marker-end:none;stroke-miterlimit:4;stroke-dasharray:none;stroke-dashoffset:0;stroke-opacity:1;visibility:visible;display:inline;overflow:visible;enable-background:accumulate" id="path8180" d="M 41.790184 7.2211123 A 5.1705894 5.1705894 0 1 1 31.449005,7.2211123 A 5.1705894 5.1705894 0 1 1 41.790184 7.2211123 z" transform="matrix(0.9670077,0,0,0.9670077,-18.41143,-1.9828713)"/><path style="opacity:1;color:#000;fill:#fff;fill-opacity:1;fill-rule:evenodd;stroke:#edd400;stroke-width:.85018247;stroke-linecap:square;stroke-linejoin:round;marker:none;marker-start:none;marker-mid:none;marker-end:none;stroke-miterlimit:4;stroke-dasharray:none;stroke-dashoffset:0;stroke-opacity:1;visibility:visible;display:inline;overflow:visible;enable-background:accumulate" id="path8182" d="M 34.55793,8.2210126 L 33.188741,5.4467331 L 30.127142,5.0018567 L 32.342536,2.8423812 L 31.819552,-0.20684715 L 34.55793,1.2328031 L 37.296308,-0.20684729 L 36.773324,2.842381 L 38.988718,5.0018565 L 35.927119,5.4467329 L 34.55793,8.2210126 z" transform="matrix(0.9093533,0,0,0.8345354,-13.954519,1.6726214)"/></g></g></svg>