<svg xmlns="http://www.w3.org/2000/svg" xmlns:cc="http://web.resource.org/cc/" xmlns:svg="http://www.w3.org/2000/svg" xmlns:xlink="http://www.w3.org/1999/xlink" id="svg5615" width="48" height="48" version="1.0"><defs id="defs5617"><linearGradient id="linearGradient5974"><stop id="stop5976" offset="0" style="stop-color:#fff;stop-opacity:1"/><stop id="stop5978" offset="1" style="stop-color:#c6c6c6;stop-opacity:1"/></linearGradient><linearGradient id="linearGradient1945" x1="25.058" x2="25.058" y1="47.028" y2="39.999" gradientUnits="userSpaceOnUse" xlink:href="#linearGradient3702"/><radialGradient id="radialGradient1943" cx="4.993" cy="43.5" r="2.5" fx="4.993" fy="43.5" gradientTransform="matrix(2.003784,0,0,1.4,-20.01187,-104.4)" gradientUnits="userSpaceOnUse" xlink:href="#linearGradient3688"/><radialGradient id="radialGradient1941" cx="4.993" cy="43.5" r="2.5" fx="4.993" fy="43.5" gradientTransform="matrix(2.003784,0,0,1.4,27.98813,-17.4)" gradientUnits="userSpaceOnUse" xlink:href="#linearGradient3688"/><radialGradient id="radialGradient1982" cx="8.824" cy="3.756" r="37.752" fx="8.824" fy="3.756" gradientTransform="matrix(0.5830469,0,0,0.6307195,23.543012,18.67742)" gradientUnits="userSpaceOnUse" xlink:href="#linearGradient269"/><radialGradient id="radialGradient1980" cx="28.735" cy="38.77" r="86.708" fx="28.735" fy="38.77" gradientTransform="matrix(0.5783619,0,0,0.6358271,21.523669,18.282628)" gradientUnits="userSpaceOnUse" xlink:href="#linearGradient5974"/><radialGradient id="radialGradient1977" cx="8.144" cy="7.268" r="38.159" fx="8.144" fy="7.268" gradientTransform="matrix(0.561303,0,0,0.6099064,24.000067,19.174687)" gradientUnits="userSpaceOnUse" xlink:href="#linearGradient15662"/><radialGradient id="radialGradient1974" cx="37.03" cy="12.989" r="4.293" fx="37.03" fy="12.989" gradientTransform="matrix(1.0736935,0,0,0.7903666,4.8314167,16.193536)" gradientUnits="userSpaceOnUse" xlink:href="#linearGradient4790"/><radialGradient id="radialGradient1971" cx="31.863" cy="2.367" r="37.752" fx="31.863" fy="2.367" gradientTransform="matrix(0.2043105,0,0,0.2185388,33.378389,24.173539)" gradientUnits="userSpaceOnUse" xlink:href="#linearGradient269"/><radialGradient id="radialGradient1969" cx="30.654" cy="14.937" r="86.708" fx="30.654" fy="14.937" gradientTransform="matrix(9.1369514e-2,6.2328248e-3,-6.8020622e-3,0.1002825,36.430003,26.171455)" gradientUnits="userSpaceOnUse" xlink:href="#linearGradient259"/><linearGradient id="linearGradient1966" x1="33.396" x2="34.17" y1="36.921" y2="38.07" gradientTransform="matrix(-1.7789979e-2,-0.5299874,0.5424275,-1.7381981e-2,23.225849,42.737463)" gradientUnits="userSpaceOnUse" xlink:href="#linearGradient2251"/><linearGradient id="linearGradient6343"><stop style="stop-color:#fce94f;stop-opacity:1" id="stop6345" offset="0"/><stop style="stop-color:#fce94f;stop-opacity:0" id="stop6347" offset="1"/></linearGradient><linearGradient id="linearGradient6672"><stop style="stop-color:#fff;stop-opacity:1" id="stop6674" offset="0"/><stop style="stop-color:#fff;stop-opacity:0" id="stop6676" offset="1"/></linearGradient><linearGradient id="linearGradient6565"><stop style="stop-color:#000;stop-opacity:1" id="stop6567" offset="0"/><stop style="stop-color:#000;stop-opacity:0" id="stop6569" offset="1"/></linearGradient><radialGradient id="radialGradient7284" cx="23.946" cy="24.538" r="21.456" fx="23.946" fy="24.538" gradientUnits="userSpaceOnUse" xlink:href="#linearGradient6565"/><linearGradient id="linearGradient5912"><stop style="stop-color:#ebebe8;stop-opacity:1" id="stop5914" offset="0"/><stop style="stop-color:#eeeeec;stop-opacity:1" id="stop5916" offset="1"/></linearGradient><linearGradient id="linearGradient7286" x1="9.295" x2="13.387" y1="5.661" y2="33.642" gradientUnits="userSpaceOnUse" xlink:href="#linearGradient5912"/><linearGradient id="linearGradient6678" x1="43.282" x2="28.477" y1="37.464" y2="37.465" gradientUnits="userSpaceOnUse" xlink:href="#linearGradient6672"/><radialGradient id="radialGradient6710" cx="23.946" cy="24.538" r="21.456" fx="23.946" fy="24.538" gradientUnits="userSpaceOnUse" xlink:href="#linearGradient6565"/><linearGradient id="linearGradient6712" x1="9.295" x2="13.387" y1="5.661" y2="33.642" gradientTransform="matrix(1.0020298,0,0,1.0020298,5.63e-3,-0.5881773)" gradientUnits="userSpaceOnUse" xlink:href="#linearGradient5912"/><radialGradient id="radialGradient6746" cx="23.946" cy="24.538" r="21.456" fx="23.946" fy="24.538" gradientUnits="userSpaceOnUse" xlink:href="#linearGradient6565"/><linearGradient id="linearGradient6748" x1="9.295" x2="13.387" y1="5.661" y2="33.642" gradientUnits="userSpaceOnUse" xlink:href="#linearGradient5912"/><linearGradient id="linearGradient6753" x1="43.282" x2="28.477" y1="37.464" y2="37.465" gradientTransform="matrix(0.6345368,0,0,0.5552197,-43.62219,-25.574755)" gradientUnits="userSpaceOnUse" xlink:href="#linearGradient6672"/><linearGradient id="linearGradient6789" x1="9.295" x2="13.387" y1="5.661" y2="33.642" gradientUnits="userSpaceOnUse" xlink:href="#linearGradient5912"/><linearGradient id="linearGradient6815" x1="43.282" x2="28.477" y1="37.464" y2="37.465" gradientTransform="matrix(0.5044,0,0,0.789146,-3.3886096,-9.1055033)" gradientUnits="userSpaceOnUse" xlink:href="#linearGradient6672"/><linearGradient id="linearGradient6830" x1="43.282" x2="28.477" y1="37.464" y2="37.465" gradientTransform="matrix(0.5044,0,0,0.789146,-3.3886096,-9.1055033)" gradientUnits="userSpaceOnUse" xlink:href="#linearGradient6672"/><radialGradient id="radialGradient6349" cx="36.62" cy="7.221" r="5.171" fx="36.62" fy="7.221" gradientUnits="userSpaceOnUse" xlink:href="#linearGradient6343"/><linearGradient id="linearGradient259"><stop style="stop-color:#fafafa;stop-opacity:1" id="stop260" offset="0"/><stop style="stop-color:#bbb;stop-opacity:1" id="stop261" offset="1"/></linearGradient><linearGradient id="linearGradient269"><stop style="stop-color:#a3a3a3;stop-opacity:1" id="stop270" offset="0"/><stop style="stop-color:#8a8a8a;stop-opacity:1" id="stop271" offset="1"/></linearGradient><linearGradient id="linearGradient15662"><stop style="stop-color:#fff;stop-opacity:1" id="stop15664" offset="0"/><stop style="stop-color:#f8f8f8;stop-opacity:1" id="stop15666" offset="1"/></linearGradient><linearGradient id="linearGradient2251"><stop id="stop2253" offset="0" style="stop-color:#fff;stop-opacity:1"/><stop id="stop2255" offset="1" style="stop-color:#fff;stop-opacity:0"/></linearGradient><linearGradient id="linearGradient4790"><stop id="stop4792" offset="0" style="stop-color:#000;stop-opacity:1"/><stop id="stop4794" offset="1" style="stop-color:#000;stop-opacity:0"/></linearGradient><linearGradient id="linearGradient3688"><stop id="stop3690" offset="0" style="stop-color:black;stop-opacity:1"/><stop id="stop3692" offset="1" style="stop-color:black;stop-opacity:0"/></linearGradient><linearGradient id="linearGradient3702"><stop id="stop3704" offset="0" style="stop-color:black;stop-opacity:0"/><stop style="stop-color:black;stop-opacity:1" id="stop3710" offset=".5"/><stop id="stop3706" offset="1" style="stop-color:black;stop-opacity:0"/></linearGradient><radialGradient id="radialGradient7377" cx="8.824" cy="3.756" r="37.752" fx="8.824" fy="3.756" gradientTransform="matrix(0.637055,0,0,0.681177,2.416486,0.531615)" gradientUnits="userSpaceOnUse" xlink:href="#linearGradient269"/><radialGradient id="radialGradient7375" cx="33.967" cy="35.737" r="86.708" fx="33.967" fy="35.737" gradientTransform="matrix(0.631936,0,0,0.686693,0.21009,0.105241)" gradientUnits="userSpaceOnUse" xlink:href="#linearGradient259"/><radialGradient id="radialGradient7373" cx="8.144" cy="7.268" r="38.159" fx="8.144" fy="7.268" gradientTransform="matrix(0.61826,0,0,0.664962,2.818403,0.964783)" gradientUnits="userSpaceOnUse" xlink:href="#linearGradient15662"/><radialGradient id="radialGradient7371" cx="37.03" cy="12.989" r="4.293" fx="37.03" fy="12.989" gradientTransform="matrix(1.163103,0,0,0.855889,-17.72172,-2.318907)" gradientUnits="userSpaceOnUse" xlink:href="#linearGradient4790"/><radialGradient id="radialGradient7369" cx="31.863" cy="2.367" r="37.752" fx="31.863" fy="2.367" gradientTransform="matrix(0.221324,0,0,0.236656,13.2883,6.480565)" gradientUnits="userSpaceOnUse" xlink:href="#linearGradient269"/><radialGradient id="radialGradient7367" cx="30.654" cy="14.937" r="86.708" fx="30.654" fy="14.937" gradientTransform="matrix(9.897811e-2,6.749534e-3,-7.368489e-3,0.108596,16.59403,8.644111)" gradientUnits="userSpaceOnUse" xlink:href="#linearGradient259"/><linearGradient id="linearGradient7365" x1="33.396" x2="34.17" y1="36.921" y2="38.07" gradientTransform="matrix(-1.92714e-2,-0.573924,0.587597,-1.882297e-2,2.420403,26.69984)" gradientUnits="userSpaceOnUse" xlink:href="#linearGradient2251"/><linearGradient id="linearGradient7363" x1="25.058" x2="25.058" y1="47.028" y2="39.999" gradientUnits="userSpaceOnUse" xlink:href="#linearGradient3702"/><radialGradient id="radialGradient7361" cx="4.993" cy="43.5" r="2.5" fx="4.993" fy="43.5" gradientTransform="matrix(2.003784,0,0,1.4,-20.01187,-104.4)" gradientUnits="userSpaceOnUse" xlink:href="#linearGradient3688"/><radialGradient id="radialGradient7359" cx="4.993" cy="43.5" r="2.5" fx="4.993" fy="43.5" gradientTransform="matrix(2.003784,0,0,1.4,27.98813,-17.4)" gradientUnits="userSpaceOnUse" xlink:href="#linearGradient3688"/><linearGradient id="linearGradient7353"><stop style="stop-color:#fafafa;stop-opacity:1" id="stop7355" offset="0"/><stop style="stop-color:#bbb;stop-opacity:1" id="stop7357" offset="1"/></linearGradient><linearGradient id="linearGradient7347"><stop style="stop-color:#a3a3a3;stop-opacity:1" id="stop7349" offset="0"/><stop style="stop-color:#8a8a8a;stop-opacity:1" id="stop7351" offset="1"/></linearGradient><linearGradient id="linearGradient7341"><stop style="stop-color:#fff;stop-opacity:1" id="stop7343" offset="0"/><stop style="stop-color:#f8f8f8;stop-opacity:1" id="stop7345" offset="1"/></linearGradient><linearGradient id="linearGradient7315"><stop id="stop7317" offset="0" style="stop-color:black;stop-opacity:0"/><stop style="stop-color:black;stop-opacity:1" id="stop7319" offset=".5"/><stop id="stop7321" offset="1" style="stop-color:black;stop-opacity:0"/></linearGradient><radialGradient id="radialGradient7822" cx="4.993" cy="43.5" r="2.5" fx="4.993" fy="43.5" gradientTransform="matrix(2.003784,0,0,1.4,27.98813,-17.4)" gradientUnits="userSpaceOnUse" xlink:href="#linearGradient3688"/><radialGradient id="radialGradient7824" cx="4.993" cy="43.5" r="2.5" fx="4.993" fy="43.5" gradientTransform="matrix(2.003784,0,0,1.4,-20.01187,-104.4)" gradientUnits="userSpaceOnUse" xlink:href="#linearGradient3688"/><linearGradient id="linearGradient7826" x1="25.058" x2="25.058" y1="47.028" y2="39.999" gradientUnits="userSpaceOnUse" xlink:href="#linearGradient3702"/></defs><metadata id="metadata5620"/><g id="layer1"><path style="opacity:.38864632;color:#000;fill:url(#radialGradient6710);fill-opacity:1;fill-rule:evenodd;stroke:none;stroke-width:1.50133264px;stroke-linecap:round;stroke-linejoin:miter;marker:none;marker-start:none;marker-mid:none;marker-end:none;stroke-miterlimit:4;stroke-dasharray:none;stroke-dashoffset:0;stroke-opacity:1;visibility:visible;display:inline;overflow:visible;enable-background:accumulate" id="path6680" d="M 45.402216,24.538368 A 21.456448,21.456448 0 1 1 2.4893208,24.538368 A 21.456448,21.456448 0 1 1 45.402216,24.538368 z" transform="matrix(1.0253328,0,0,0.4660604,-0.55238,26.563638)"/><path style="opacity:1;color:#000;fill:url(#linearGradient6712);fill-opacity:1;fill-rule:evenodd;stroke:#888a85;stroke-width:1.00000036px;stroke-linecap:round;stroke-linejoin:miter;marker:none;marker-start:none;marker-mid:none;marker-end:none;stroke-miterlimit:4;stroke-dasharray:none;stroke-dashoffset:0;stroke-opacity:1;visibility:visible;display:inline;overflow:visible;enable-background:accumulate" id="path6682" d="M 24 2.5 C 12.132 2.5 2.5 12.132001 2.5 24 C 2.5 35.868 12.132 45.499999 24 45.5 C 35.868 45.5 45.5 35.868001 45.5 24 C 45.5 12.132 35.868 2.5 24 2.5 z M 24 19.5 C 26.484001 19.5 28.5 21.516 28.5 24 C 28.5 26.484001 26.484 28.5 24 28.5 C 21.516 28.500001 19.5 26.484 19.5 24 C 19.5 21.516 21.516 19.5 24 19.5 z"/><path style="opacity:1;color:#000;fill:#000;fill-opacity:.1081081;fill-rule:evenodd;stroke:none;stroke-width:2.52428889px;stroke-linecap:round;stroke-linejoin:miter;marker:none;marker-start:none;marker-mid:none;marker-end:none;stroke-miterlimit:4;stroke-dasharray:none;stroke-dashoffset:0;stroke-opacity:1;visibility:visible;display:inline;overflow:visible;enable-background:accumulate" id="path6684" d="M 24 15 C 19.031999 15 15 19.031999 15 24 C 15 28.968001 19.031999 32.999999 24 33 C 28.968001 33 32.999999 28.968 33 24 C 33 19.031999 28.968001 15 24 15 z M 24 18.9375 C 26.799429 18.9375 29.0625 21.200571 29.0625 24 C 29.062499 26.799429 26.799429 29.0625 24 29.0625 C 21.200572 29.062501 18.9375 26.799429 18.9375 24 C 18.9375 21.200571 21.200571 18.9375 24 18.9375 z"/><path style="opacity:1;color:#000;fill:none;fill-opacity:1;fill-rule:evenodd;stroke:#fff;stroke-width:1.04665625px;stroke-linecap:round;stroke-linejoin:miter;marker:none;marker-start:none;marker-mid:none;marker-end:none;stroke-miterlimit:4;stroke-dasharray:none;stroke-dashoffset:0;stroke-opacity:.56756759;visibility:visible;display:inline;overflow:visible;enable-background:accumulate" id="path6686" d="M 45.402216,24.538368 A 21.456448,21.456448 0 1 1 2.4893208,24.538368 A 21.456448,21.456448 0 1 1 45.402216,24.538368 z" transform="matrix(0.9554238,0,0,0.9554238,1.12164,0.5554587)"/><path id="path6688" d="M 45.402216,24.538368 A 21.456448,21.456448 0 1 1 2.4893208,24.538368 A 21.456448,21.456448 0 1 1 45.402216,24.538368 z" transform="matrix(0.2563332,0,0,0.2563332,17.86191,17.710003)" style="opacity:1;color:#000;fill:none;fill-opacity:1;fill-rule:evenodd;stroke:#fff;stroke-width:3.90117431px;stroke-linecap:round;stroke-linejoin:miter;marker:none;marker-start:none;marker-mid:none;marker-end:none;stroke-miterlimit:4;stroke-dasharray:none;stroke-dashoffset:0;stroke-opacity:.42342344;visibility:visible;display:inline;overflow:visible;enable-background:accumulate"/><path id="path6692" d="M 44.066288,18.000471 C 42.894348,14.151911 40.52885,10.663033 37.55037,8.1063947 C 35.35677,10.724751 31.5624,15.407012 27.38396,20.303224 C 28.06637,20.857875 28.59202,21.596203 28.84381,22.462581 L 44.066288,18.000471 z M 20.71333,27.756685 C 20.16706,27.261807 19.73893,26.644957 19.49679,25.931877 L 3.97021,30.648272 C 5.18652,34.332428 7.40663,37.554773 10.29622,40.015624 C 12.73414,37.179107 16.22447,32.996628 20.71333,27.756685 z" style="fill:#fff;fill-opacity:.28828831;fill-rule:evenodd;stroke:none;stroke-width:1px;stroke-linecap:butt;stroke-linejoin:miter;stroke-opacity:1"/><path style="fill:#000;fill-opacity:.04054057;fill-rule:evenodd;stroke:none;stroke-width:1px;stroke-linecap:butt;stroke-linejoin:miter;stroke-opacity:1" id="path6694" d="M 17.79314,4.1733377 C 13.94458,5.3452807 10.55664,7.5816877 8,10.560169 C 10.61836,12.753772 15.72538,17.087281 20.62159,21.265714 C 21.17624,20.583312 21.91457,20.057662 22.78095,19.805867 L 17.79314,4.1733377 z M 27.22132,26.922621 C 26.72644,27.468896 26.10959,27.897026 25.39651,28.13916 L 30.44515,44.04541 C 34.1293,42.829106 37.35165,40.608993 39.8125,37.719406 C 36.97598,35.281485 32.46126,31.411485 27.22132,26.922621 z"/><path style="fill:none;fill-opacity:1;fill-rule:evenodd;stroke:#fff;stroke-width:1px;stroke-linecap:butt;stroke-linejoin:miter;stroke-opacity:.36486487" id="path6696" d="M 19.08694,27.973857 L 7.04454,35.135785 M 37.31763,9.0359917 L 28.37057,19.799305"/><path style="opacity:1;color:#000;fill:url(#radialGradient6349);fill-opacity:1;fill-rule:evenodd;stroke:none;stroke-width:1.01691592;stroke-linecap:square;stroke-linejoin:round;marker:none;marker-start:none;marker-mid:none;marker-end:none;stroke-miterlimit:4;stroke-dasharray:none;stroke-dashoffset:0;stroke-opacity:1;visibility:visible;display:inline;overflow:visible;enable-background:accumulate" id="path6341" d="M 41.790184 7.2211123 A 5.1705894 5.1705894 0 1 1 31.449005,7.2211123 A 5.1705894 5.1705894 0 1 1 41.790184 7.2211123 z" transform="matrix(1.4505113,0,0,1.4505112,-17.617138,-1.9743041)"/><path style="opacity:1;color:#000;fill:#fff;fill-opacity:1;fill-rule:evenodd;stroke:#fce94f;stroke-width:.90961909;stroke-linecap:square;stroke-linejoin:round;marker:none;marker-start:none;marker-mid:none;marker-end:none;stroke-miterlimit:4;stroke-dasharray:none;stroke-dashoffset:0;stroke-opacity:1;visibility:visible;display:inline;overflow:visible;enable-background:accumulate" id="path5368" d="M 34.55793,8.2210126 L 33.188741,5.4467331 L 30.127142,5.0018567 L 32.342536,2.8423812 L 31.819552,-0.20684715 L 34.55793,1.2328031 L 37.296308,-0.20684729 L 36.773324,2.842381 L 38.988718,5.0018565 L 35.927119,5.4467329 L 34.55793,8.2210126 z" transform="matrix(1.1317634,0,0,1.0678868,-3.6260042,4.7208895)"/><g id="g3712" transform="matrix(0.6316149,0,0,0.6596041,20.802152,15.960328)" style="opacity:.4;display:inline"><rect id="rect2801" width="5" height="7" x="38" y="40" style="opacity:1;fill:url(#radialGradient7822);fill-opacity:1;stroke:none;stroke-width:1;stroke-linecap:round;stroke-linejoin:miter;stroke-miterlimit:4;stroke-dasharray:none;stroke-opacity:1"/><rect id="rect3696" width="5" height="7" x="-10" y="-47" transform="scale(-1,-1)" style="opacity:1;fill:url(#radialGradient7824);fill-opacity:1;stroke:none;stroke-width:1;stroke-linecap:round;stroke-linejoin:miter;stroke-miterlimit:4;stroke-dasharray:none;stroke-opacity:1"/><rect id="rect3700" width="28" height="7" x="10" y="40" style="opacity:1;fill:url(#linearGradient7826);fill-opacity:1;stroke:none;stroke-width:1;stroke-linecap:round;stroke-linejoin:miter;stroke-miterlimit:4;stroke-dasharray:none;stroke-opacity:1"/></g><path style="color:#000;fill:url(#radialGradient1980);fill-opacity:1;fill-rule:nonzero;stroke:url(#radialGradient1982);stroke-width:1.0000006;stroke-linecap:round;stroke-linejoin:round;marker:none;marker-start:none;marker-mid:none;marker-end:none;stroke-miterlimit:4;stroke-dashoffset:0;stroke-opacity:1;visibility:visible;display:block;overflow:visible" id="rect15391" d="M 26.191902,20.509541 L 40.310534,20.499999 C 40.310534,20.499999 46.500001,26.328416 46.500001,26.717176 L 46.500001,44.798267 C 46.500001,45.187025 46.191415,45.499998 45.808101,45.499998 L 26.191902,45.499998 C 25.808589,45.499998 25.500001,45.187025 25.500001,44.798267 L 25.500001,21.211274 C 25.500001,20.822514 25.808589,20.509541 26.191902,20.509541 z"/><path style="color:#000;fill:none;fill-opacity:1;fill-rule:nonzero;stroke:url(#radialGradient1977);stroke-width:1.00000024;stroke-linecap:round;stroke-linejoin:round;marker:none;marker-start:none;marker-mid:none;marker-end:none;stroke-miterlimit:4;stroke-dashoffset:0;stroke-opacity:1;visibility:visible;display:block;overflow:visible" id="rect15660" d="M 26.586403,21.499999 L 41.00711,21.499999 C 41.00711,21.499999 45.500001,26.237097 45.500001,26.285861 L 45.500001,44.411979 C 45.500001,44.460743 45.461466,44.5 45.413598,44.5 L 26.586403,44.5 C 26.538535,44.5 26.5,44.460743 26.5,44.411979 L 26.5,21.58802 C 26.5,21.539256 26.538535,21.499999 26.586403,21.499999 z"/><path style="opacity:.35714285;color:#000;fill:url(#radialGradient1974);fill-opacity:1;fill-rule:evenodd;stroke:none;stroke-width:1.00000024;stroke-linecap:butt;stroke-linejoin:miter;marker:none;marker-start:none;marker-mid:none;marker-end:none;stroke-miterlimit:4;stroke-dasharray:none;stroke-dashoffset:0;stroke-opacity:1;visibility:visible;display:inline;overflow:visible" id="path5348" d="M 46.413917,26.868448 C 45.965669,26.039422 42.658033,24.571831 40.936344,24.079619 C 41.040663,25.047973 40.860784,27.969192 40.860784,27.969192 C 42.130086,27.122699 45.933456,26.768646 46.413917,26.868448 z"/><rect style="opacity:1;color:#000;fill:#888a85;fill-opacity:1;fill-rule:evenodd;stroke:none;stroke-width:1;stroke-linecap:square;stroke-linejoin:round;marker:none;marker-start:none;marker-mid:none;marker-end:none;stroke-miterlimit:4;stroke-dasharray:none;stroke-dashoffset:0;stroke-opacity:1;visibility:visible;display:inline;overflow:visible;enable-background:accumulate" id="rect7828" width="12" height="1" x="32" y="25"/><path style="color:#000;fill:url(#radialGradient1969);fill-opacity:1;fill-rule:nonzero;stroke:url(#radialGradient1971);stroke-width:1.00000095;stroke-linecap:butt;stroke-linejoin:round;marker:none;marker-start:none;marker-mid:none;marker-end:none;stroke-miterlimit:4;stroke-dasharray:none;stroke-dashoffset:0;stroke-opacity:1;visibility:visible;display:block;overflow:visible" id="path2210" d="M 46.499987,26.741045 C 46.508095,25.866998 42.587559,20.436647 40.196337,20.50056 C 40.795616,20.644466 41.274353,24.310176 40.418447,26.047286 C 42.112128,26.047286 45.906357,25.593364 46.499987,26.741045 z"/><path id="path2247" d="M 44.842988,24.985807 C 44.447691,24.271729 42.586071,22.29757 41.54265,21.64161 C 41.672327,22.397697 41.83412,23.594297 41.500001,24.953054 C 41.500001,24.953054 44.419285,24.899843 44.842988,24.985807 z" style="color:#000;fill:none;fill-opacity:1;fill-rule:evenodd;stroke:url(#linearGradient1966);stroke-width:1.00000107;stroke-linecap:butt;stroke-linejoin:miter;marker:none;marker-start:none;marker-mid:none;marker-end:none;stroke-miterlimit:4;stroke-dasharray:none;stroke-dashoffset:0;stroke-opacity:1;visibility:visible;display:inline;overflow:visible"/><rect id="rect7830" width="16" height="1" x="28" y="28" style="opacity:1;color:#000;fill:#888a85;fill-opacity:1;fill-rule:evenodd;stroke:none;stroke-width:1;stroke-linecap:square;stroke-linejoin:round;marker:none;marker-start:none;marker-mid:none;marker-end:none;stroke-miterlimit:4;stroke-dasharray:none;stroke-dashoffset:0;stroke-opacity:1;visibility:visible;display:inline;overflow:visible;enable-background:accumulate"/><rect style="opacity:1;color:#000;fill:#888a85;fill-opacity:1;fill-rule:evenodd;stroke:none;stroke-width:1;stroke-linecap:square;stroke-linejoin:round;marker:none;marker-start:none;marker-mid:none;marker-end:none;stroke-miterlimit:4;stroke-dasharray:none;stroke-dashoffset:0;stroke-opacity:1;visibility:visible;display:inline;overflow:visible;enable-background:accumulate" id="rect7832" width="16" height="1" x="28" y="31"/><rect id="rect7834" width="16" height="1" x="28" y="34" style="opacity:1;color:#000;fill:#888a85;fill-opacity:1;fill-rule:evenodd;stroke:none;stroke-width:1;stroke-linecap:square;stroke-linejoin:round;marker:none;marker-start:none;marker-mid:none;marker-end:none;stroke-miterlimit:4;stroke-dasharray:none;stroke-dashoffset:0;stroke-opacity:1;visibility:visible;display:inline;overflow:visible;enable-background:accumulate"/><rect style="opacity:1;color:#000;fill:#888a85;fill-opacity:1;fill-rule:evenodd;stroke:none;stroke-width:1;stroke-linecap:square;stroke-linejoin:round;marker:none;marker-start:none;marker-mid:none;marker-end:none;stroke-miterlimit:4;stroke-dasharray:none;stroke-dashoffset:0;stroke-opacity:1;visibility:visible;display:inline;overflow:visible;enable-background:accumulate" id="rect7836" width="16" height="1" x="28" y="37"/><rect id="rect7838" width="14" height="1" x="28" y="40" style="opacity:1;color:#000;fill:#888a85;fill-opacity:1;fill-rule:evenodd;stroke:none;stroke-width:1;stroke-linecap:square;stroke-linejoin:round;marker:none;marker-start:none;marker-mid:none;marker-end:none;stroke-miterlimit:4;stroke-dasharray:none;stroke-dashoffset:0;stroke-opacity:1;visibility:visible;display:inline;overflow:visible;enable-background:accumulate"/></g></svg>