<svg xmlns="http://www.w3.org/2000/svg" xmlns:svg="http://www.w3.org/2000/svg" id="svg7384" width="16" height="16" version="1.1"><metadata id="metadata90"/><title id="title9167">Gnome Symbolic Icon Theme</title><g id="layer9" transform="translate(-243.02274,-175.02589)" style="display:inline"><path id="path3764" d="m 251.03145,176.03125 c -3.866,0 -7,3.15009 -7,7.03125 0,3.88116 3.134,7.03125 7,7.03125 3.86599,0 7,-3.15009 7,-7.03125 0,-3.88116 -3.13401,-7.03125 -7,-7.03125 z m -2.21875,1.625 c 0.75054,0 1.34375,0.59321 1.34375,1.34375 0,0.75054 -0.59321,1.375 -1.34375,1.375 -0.2396,0 -0.46079,-0.0787 -0.65625,-0.1875 -0.19317,0.20072 -0.37826,0.41611 -0.53125,0.65625 -1.18689,1.86303 -0.64428,4.34436 1.21875,5.53125 1.44167,0.91845 3.23612,0.77758 4.53125,-0.1875 l 0.59375,0.78125 c -1.61819,1.20022 -3.85962,1.39459 -5.65625,0.25 -2.32866,-1.48353 -3.01478,-4.57759 -1.53125,-6.90625 0.21218,-0.33306 0.47755,-0.61081 0.75,-0.875 -0.0466,-0.13719 -0.0937,-0.28456 -0.0937,-0.4375 0,-0.75054 0.62446,-1.34375 1.375,-1.34375 z M 250.9377,181 c 0.38321,-0.0121 0.77586,0.0938 1.125,0.3125 0.93158,0.59349 1.21849,1.81842 0.625,2.75 -0.59349,0.93158 -1.81842,1.21849 -2.75,0.625 -0.93158,-0.59349 -1.21849,-1.81842 -0.625,-2.75 0.36891,-0.57907 0.98632,-0.91728 1.625,-0.9375 z" style="fill:#bebebe;fill-opacity:1;stroke:none;display:inline"/></g></svg>