<svg xmlns="http://www.w3.org/2000/svg" xmlns:cc="http://web.resource.org/cc/" xmlns:svg="http://www.w3.org/2000/svg" xmlns:xlink="http://www.w3.org/1999/xlink" id="svg5615" width="22" height="22" version="1.0"><defs id="defs5617"><linearGradient id="linearGradient5911"><stop style="stop-color:#fcaf3e;stop-opacity:1" id="stop5913" offset="0"/><stop style="stop-color:#f57900;stop-opacity:1" id="stop5915" offset="1"/></linearGradient><linearGradient id="linearGradient5917" x1="10.455" x2="10.455" y1="21.968" y2="30.653" gradientTransform="matrix(0.625,0,0,0.6206086,0.1875,-4.0363359)" gradientUnits="userSpaceOnUse" xlink:href="#linearGradient5911"/><linearGradient id="linearGradient6672"><stop style="stop-color:#fff;stop-opacity:1" id="stop6674" offset="0"/><stop style="stop-color:#fff;stop-opacity:0" id="stop6676" offset="1"/></linearGradient><linearGradient id="linearGradient6565"><stop style="stop-color:#000;stop-opacity:1" id="stop6567" offset="0"/><stop style="stop-color:#000;stop-opacity:0" id="stop6569" offset="1"/></linearGradient><radialGradient id="radialGradient7284" cx="23.946" cy="24.538" r="21.456" fx="23.946" fy="24.538" gradientUnits="userSpaceOnUse" xlink:href="#linearGradient6565"/><linearGradient id="linearGradient5912"><stop style="stop-color:#ebebe8;stop-opacity:1" id="stop5914" offset="0"/><stop style="stop-color:#eeeeec;stop-opacity:1" id="stop5916" offset="1"/></linearGradient><linearGradient id="linearGradient7286" x1="9.295" x2="13.387" y1="5.661" y2="33.642" gradientUnits="userSpaceOnUse" xlink:href="#linearGradient5912"/><linearGradient id="linearGradient6678" x1="43.282" x2="28.477" y1="37.464" y2="37.465" gradientUnits="userSpaceOnUse" xlink:href="#linearGradient6672"/><radialGradient id="radialGradient6710" cx="23.946" cy="24.538" r="21.456" fx="23.946" fy="24.538" gradientUnits="userSpaceOnUse" xlink:href="#linearGradient6565"/><linearGradient id="linearGradient6712" x1="9.295" x2="13.387" y1="5.661" y2="33.642" gradientUnits="userSpaceOnUse" xlink:href="#linearGradient5912"/><linearGradient id="linearGradient6714" x1="43.205" x2="28.453" y1="37.464" y2="37.465" gradientUnits="userSpaceOnUse" xlink:href="#linearGradient6672"/><radialGradient id="radialGradient6746" cx="23.946" cy="24.538" r="21.456" fx="23.946" fy="24.538" gradientUnits="userSpaceOnUse" xlink:href="#linearGradient6565"/><linearGradient id="linearGradient6748" x1="9.295" x2="13.387" y1="5.661" y2="33.642" gradientUnits="userSpaceOnUse" xlink:href="#linearGradient5912"/><linearGradient id="linearGradient6789" x1="9.295" x2="13.387" y1="5.661" y2="33.642" gradientUnits="userSpaceOnUse" xlink:href="#linearGradient5912"/><linearGradient id="linearGradient6815" x1="43.282" x2="28.477" y1="37.464" y2="37.465" gradientTransform="matrix(0.5044,0,0,0.789146,-3.3886096,-9.1055033)" gradientUnits="userSpaceOnUse" xlink:href="#linearGradient6672"/><linearGradient id="linearGradient6830" x1="43.282" x2="28.477" y1="37.464" y2="37.465" gradientTransform="matrix(0.5044,0,0,0.789146,-3.3886096,-9.1055033)" gradientUnits="userSpaceOnUse" xlink:href="#linearGradient6672"/><radialGradient id="radialGradient4963" cx="23.946" cy="24.538" r="21.456" fx="23.946" fy="24.538" gradientUnits="userSpaceOnUse" xlink:href="#linearGradient6565"/><linearGradient id="linearGradient4965" x1="9.295" x2="13.387" y1="5.661" y2="33.642" gradientUnits="userSpaceOnUse" xlink:href="#linearGradient5912"/><radialGradient id="radialGradient4967" cx="23.946" cy="24.538" r="21.456" fx="23.946" fy="24.538" gradientUnits="userSpaceOnUse" xlink:href="#linearGradient6565"/><linearGradient id="linearGradient4969" x1="9.295" x2="13.387" y1="5.661" y2="33.642" gradientUnits="userSpaceOnUse" xlink:href="#linearGradient5912"/></defs><metadata id="metadata5620"/><g id="layer1"><use id="use4971" width="22" height="22" x="0" y="0" transform="translate(-2,-2)" xlink:href="#g4932"/><g id="g4932" transform="matrix(0.9960341,0,0,1,2,2)"><path id="path6716" d="M 45.402216 24.538368 A 21.456448 21.456448 0 1 1 2.4893208,24.538368 A 21.456448 21.456448 0 1 1 45.402216 24.538368 z" transform="matrix(0.4668289,0,0,0.2113275,-1.1154334,11.184549)" style="opacity:.38864632;color:#000;fill:url(#radialGradient4967);fill-opacity:1;fill-rule:evenodd;stroke:none;stroke-width:1.50133264px;stroke-linecap:round;stroke-linejoin:miter;marker:none;marker-start:none;marker-mid:none;marker-end:none;stroke-miterlimit:4;stroke-dasharray:none;stroke-dashoffset:0;stroke-opacity:1;visibility:visible;display:inline;overflow:visible;enable-background:accumulate"/><path style="opacity:1;color:#000;fill:url(#linearGradient4969);fill-opacity:1;fill-rule:evenodd;stroke:#888a85;stroke-width:2.25802827px;stroke-linecap:round;stroke-linejoin:miter;marker:none;marker-start:none;marker-mid:none;marker-end:none;stroke-miterlimit:4;stroke-dasharray:none;stroke-dashoffset:0;stroke-opacity:1;visibility:visible;display:inline;overflow:visible;enable-background:accumulate" id="path6718" d="M 45.402216 24.538368 A 21.456448 21.456448 0 1 1 2.4893208,24.538368 A 21.456448 21.456448 0 1 1 45.402216 24.538368 z" transform="matrix(0.4437027,0,0,0.4437878,-0.6045179,-0.8677184)"/><path style="opacity:1;color:#000;fill:#000;fill-opacity:.1081081;fill-rule:evenodd;stroke:none;stroke-width:2.52428889px;stroke-linecap:round;stroke-linejoin:miter;marker:none;marker-start:none;marker-mid:none;marker-end:none;stroke-miterlimit:4;stroke-dasharray:none;stroke-dashoffset:0;stroke-opacity:1;visibility:visible;display:inline;overflow:visible;enable-background:accumulate" id="path6720" d="M 45.402216 24.538368 A 21.456448 21.456448 0 1 1 2.4893208,24.538368 A 21.456448 21.456448 0 1 1 45.402216 24.538368 z" transform="matrix(0.2319552,0,0,0.2319998,4.4659354,4.3292125)"/><path id="path6722" d="M 45.402216 24.538368 A 21.456448 21.456448 0 1 1 2.4893208,24.538368 A 21.456448 21.456448 0 1 1 45.402216 24.538368 z" transform="matrix(0.3968182,0,0,0.3968954,0.5181648,0.2829428)" style="opacity:1;color:#000;fill:none;fill-opacity:1;fill-rule:evenodd;stroke:#fff;stroke-width:2.5248127px;stroke-linecap:round;stroke-linejoin:miter;marker:none;marker-start:none;marker-mid:none;marker-end:none;stroke-miterlimit:4;stroke-dasharray:none;stroke-dashoffset:0;stroke-opacity:.56756759;visibility:visible;display:inline;overflow:visible;enable-background:accumulate"/><path style="opacity:1;color:#000;fill:none;fill-opacity:1;fill-rule:evenodd;stroke:#fff;stroke-width:6.33013391px;stroke-linecap:round;stroke-linejoin:miter;marker:none;marker-start:none;marker-mid:none;marker-end:none;stroke-miterlimit:4;stroke-dasharray:none;stroke-dashoffset:0;stroke-opacity:.42342344;visibility:visible;display:inline;overflow:visible;enable-background:accumulate" id="path6724" d="M 45.402216 24.538368 A 21.456448 21.456448 0 1 1 2.4893208,24.538368 A 21.456448 21.456448 0 1 1 45.402216 24.538368 z" transform="matrix(0.1582349,0,0,0.1583428,6.2668068,6.0120004)"/><path id="path6726" d="M 45.402216 24.538368 A 21.456448 21.456448 0 1 1 2.4893208,24.538368 A 21.456448 21.456448 0 1 1 45.402216 24.538368 z" transform="matrix(0.1175319,0,0,0.1175455,7.2058921,7.1377343)" style="opacity:1;color:#000;fill:#fff;fill-opacity:1;fill-rule:evenodd;stroke:#888a85;stroke-width:8.52476025px;stroke-linecap:round;stroke-linejoin:miter;marker:none;marker-start:none;marker-mid:none;marker-end:none;stroke-miterlimit:4;stroke-dasharray:none;stroke-dashoffset:0;stroke-opacity:1;visibility:visible;display:inline;overflow:visible;enable-background:accumulate"/><path style="fill:#fff;fill-opacity:.28828831;fill-rule:evenodd;stroke:none;stroke-width:1px;stroke-linecap:butt;stroke-linejoin:miter;stroke-opacity:1" id="path6728" d="M 18.386736,7.6241774 C 17.908012,6.0501428 16.941733,4.6232148 15.72506,3.5775667 C 14.829,4.6484571 13.279045,6.5634709 11.572201,8.5659888 C 11.850958,8.7928373 12.06568,9.0948087 12.168534,9.4491517 L 18.386736,7.6241774 z M 8.8473289,11.614405 C 8.6241843,11.412003 8.4492983,11.159714 8.3503868,10.868071 L 2.0079634,12.797045 C 2.5048116,14.30384 3.4117009,15.621759 4.5920636,16.62823 C 5.587925,15.468113 7.0136833,13.757507 8.8473289,11.614405 z"/><path id="path6730" d="M 7.4870604,1.7752222 C 5.8125522,2.2719944 4.3384579,3.2199798 3.2260641,4.4825215 C 4.3653129,5.4123628 6.5873776,7.2492841 8.7177197,9.0204701 C 8.9590479,8.7312085 9.2802956,8.5083913 9.6572574,8.4016586 L 7.4870604,1.7752222 z M 11.589263,11.418363 C 11.373941,11.649922 11.10555,11.831401 10.795288,11.93404 L 12.991952,18.676503 C 14.594926,18.160927 15.996971,17.219848 17.067689,15.994987 C 15.833518,14.961583 13.869161,13.321138 11.589263,11.418363 z" style="fill:#000;fill-opacity:.04054057;fill-rule:evenodd;stroke:none;stroke-width:1px;stroke-linecap:butt;stroke-linejoin:miter;stroke-opacity:1"/><path id="path6732" d="M 7.9750196,11.868431 L 2.5480271,15.099996 M 16.190808,3.3233927 L 12.158752,8.1799546" style="fill:none;fill-opacity:1;fill-rule:evenodd;stroke:#fff;stroke-width:1.00198877px;stroke-linecap:butt;stroke-linejoin:miter;stroke-opacity:.36486487"/></g></g></svg>