<svg xmlns="http://www.w3.org/2000/svg" xmlns:cc="http://web.resource.org/cc/" xmlns:svg="http://www.w3.org/2000/svg" xmlns:xlink="http://www.w3.org/1999/xlink" id="svg5615" width="16" height="16" version="1.0"><defs id="defs5617"><linearGradient id="linearGradient8146"><stop id="stop8148" offset="0" style="stop-color:#ebebe8;stop-opacity:1"/><stop id="stop8150" offset="1" style="stop-color:#fbfbfb;stop-opacity:1"/></linearGradient><linearGradient id="linearGradient7954"><stop id="stop7956" offset="0" style="stop-color:#fff;stop-opacity:1"/><stop id="stop7958" offset="1" style="stop-color:#e4e4e1;stop-opacity:1"/></linearGradient><linearGradient id="linearGradient7944"><stop id="stop7946" offset="0" style="stop-color:#dededa;stop-opacity:1"/><stop id="stop7948" offset="1" style="stop-color:#fff;stop-opacity:1"/></linearGradient><linearGradient id="linearGradient6343"><stop style="stop-color:#fce94f;stop-opacity:1" id="stop6345" offset="0"/><stop style="stop-color:#fce94f;stop-opacity:0" id="stop6347" offset="1"/></linearGradient><filter id="filter6052" width="1.283" height="2.415" x="-.141" y="-.707"><feGaussianBlur id="feGaussianBlur6054" stdDeviation="1.179"/></filter><linearGradient id="linearGradient6108"><stop style="stop-color:#000;stop-opacity:1" id="stop6110" offset="0"/><stop style="stop-color:#000;stop-opacity:0" id="stop6112" offset="1"/></linearGradient><linearGradient id="linearGradient4919"><stop style="stop-color:#888a85;stop-opacity:1" id="stop4921" offset="0"/><stop style="stop-color:#888a85;stop-opacity:0" id="stop4923" offset="1"/></linearGradient><linearGradient id="linearGradient6076"><stop style="stop-color:#fff;stop-opacity:1" id="stop6078" offset="0"/><stop style="stop-color:#cbcbcb;stop-opacity:1" id="stop6080" offset="1"/></linearGradient><linearGradient id="linearGradient6672"><stop style="stop-color:#fff;stop-opacity:1" id="stop6674" offset="0"/><stop style="stop-color:#fff;stop-opacity:0" id="stop6676" offset="1"/></linearGradient><linearGradient id="linearGradient6565"><stop style="stop-color:#000;stop-opacity:1" id="stop6567" offset="0"/><stop style="stop-color:#000;stop-opacity:0" id="stop6569" offset="1"/></linearGradient><linearGradient id="linearGradient5912"><stop style="stop-color:#ebebe8;stop-opacity:1" id="stop5914" offset="0"/><stop style="stop-color:#eeeeec;stop-opacity:1" id="stop5916" offset="1"/></linearGradient><linearGradient id="linearGradient6748" x1="9.295" x2="13.387" y1="5.661" y2="33.642" gradientTransform="matrix(0.4893634,0,0,0.4893634,107.28182,-91.008179)" gradientUnits="userSpaceOnUse" xlink:href="#linearGradient5912"/><linearGradient id="linearGradient6815" x1="43.282" x2="28.477" y1="37.464" y2="37.465" gradientTransform="matrix(0.5044,0,0,0.789146,-3.3886096,-9.1055033)" gradientUnits="userSpaceOnUse" xlink:href="#linearGradient6672"/><filter id="filter7168"><feGaussianBlur id="feGaussianBlur7170" stdDeviation="1.703"/></filter><linearGradient id="linearGradient7753" x1="17.688" x2="18.562" y1="4.528" y2="3.749" gradientTransform="matrix(0.8571435,0,0,0.8100164,-3.64287,-1.3564303)" gradientUnits="userSpaceOnUse" xlink:href="#linearGradient6076"/><linearGradient id="linearGradient7755" x1="18.977" x2="14.121" y1="6.559" y2="2.942" gradientTransform="matrix(0.6361982,0,0,0.6064704,0.63892,-0.4420567)" gradientUnits="userSpaceOnUse" xlink:href="#linearGradient4919"/><linearGradient id="linearGradient7758" x1="16.552" x2="16.552" y1="2.963" y2="7.836" gradientTransform="matrix(0.6005581,0,0,0.6168465,1.99162,6.52285e-2)" gradientUnits="userSpaceOnUse" xlink:href="#linearGradient6108"/><linearGradient id="linearGradient7762" x1="3.69" x2="18.319" y1=".833" y2="19.583" gradientTransform="matrix(0.8064464,0,0,0.7494927,-2.03215,-0.6140932)" gradientUnits="userSpaceOnUse" xlink:href="#linearGradient7944"/><linearGradient id="linearGradient7936" x1="11.823" x2="33.184" y1="5.084" y2="41.243" gradientTransform="matrix(0.2095035,0,0,0.2097317,2.97848,2.8609414)" gradientUnits="userSpaceOnUse" xlink:href="#linearGradient7954"/><radialGradient id="radialGradient7942" cx="36.62" cy="7.221" r="5.171" fx="36.62" fy="7.221" gradientUnits="userSpaceOnUse" xlink:href="#linearGradient6343"/><linearGradient id="linearGradient7992" x1="1.336" x2="17.012" y1="-6.134" y2="20.402" gradientTransform="matrix(1.0531984,0,0,0.9993944,-32.09057,-0.9990927)" gradientUnits="userSpaceOnUse" xlink:href="#linearGradient7944"/><linearGradient id="linearGradient7994" x1="11.823" x2="33.184" y1="5.084" y2="41.243" gradientTransform="matrix(0.3033479,0,0,0.3029358,-26.25846,3.5628872)" gradientUnits="userSpaceOnUse" xlink:href="#linearGradient7954"/><linearGradient id="linearGradient7996" x1="16.552" x2="16.552" y1="2.963" y2="7.836" gradientTransform="matrix(0.7843136,0,0,0.8225202,-26.27586,0.4445121)" gradientUnits="userSpaceOnUse" xlink:href="#linearGradient6108"/><linearGradient id="linearGradient7998" x1="17.688" x2="18.562" y1="4.528" y2="3.749" gradientTransform="matrix(1.2238011,0,0,1.1813056,-35.69272,-1.5824842)" gradientUnits="userSpaceOnUse" xlink:href="#linearGradient6076"/><linearGradient id="linearGradient8000" x1="18.977" x2="14.121" y1="6.559" y2="2.942" gradientTransform="matrix(0.9083429,0,0,0.8844596,-29.57932,-0.2489868)" gradientUnits="userSpaceOnUse" xlink:href="#linearGradient4919"/><radialGradient id="radialGradient8002" cx="36.62" cy="7.221" r="5.171" fx="36.62" fy="7.221" gradientUnits="userSpaceOnUse" xlink:href="#linearGradient6343"/><radialGradient id="radialGradient8085" cx="36.62" cy="7.221" r="5.171" fx="36.62" fy="7.221" gradientUnits="userSpaceOnUse" xlink:href="#linearGradient6343"/><radialGradient id="radialGradient8107" cx="23.946" cy="24.538" r="21.456" fx="23.946" fy="24.538" gradientUnits="userSpaceOnUse" xlink:href="#linearGradient6565"/><linearGradient id="linearGradient8120" x1="17.688" x2="18.562" y1="4.528" y2="3.749" gradientTransform="matrix(1.3198145,0,0,1.4683021,-73.276941,-2.3031638)" gradientUnits="userSpaceOnUse" xlink:href="#linearGradient6076"/><linearGradient id="linearGradient8122" x1="18.977" x2="14.121" y1="6.559" y2="2.942" gradientTransform="matrix(0.9796071,0,0,1.0993378,-66.683912,-0.6456956)" gradientUnits="userSpaceOnUse" xlink:href="#linearGradient4919"/><linearGradient id="linearGradient8125" x1="16.552" x2="16.552" y1="2.963" y2="7.836" gradientTransform="matrix(0.980392,0,0,1.298668,-65.705884,-1.389344)" gradientUnits="userSpaceOnUse" xlink:href="#linearGradient6108"/><linearGradient id="linearGradient8129" x1="2.5" x2="14.562" y1="-5.263" y2="19.56" gradientTransform="matrix(1.5441219,0,0,1.4501245,-77.154498,-1.6751875)" gradientUnits="userSpaceOnUse" xlink:href="#linearGradient7944"/><linearGradient id="linearGradient8139" x1="36.211" x2="18.193" y1="37.921" y2="11.671" gradientTransform="matrix(0.3961512,0,0,0.3961513,-67.486146,6.2790932)" gradientUnits="userSpaceOnUse" xlink:href="#linearGradient8146"/><linearGradient id="linearGradient8184" x1="-1.358" x2="17.17" y1="-13.379" y2="20.088" gradientTransform="matrix(2.1617708,0,0,2.0501246,-136.81629,-2.5751872)" gradientUnits="userSpaceOnUse" xlink:href="#linearGradient7944"/><linearGradient id="linearGradient8186" x1="16.552" x2="16.552" y1="-.562" y2="7.836" gradientTransform="matrix(0.9803921,0,0,1.0330341,-112.70588,0.3039237)" gradientUnits="userSpaceOnUse" xlink:href="#linearGradient6108"/><linearGradient id="linearGradient8188" x1="17.688" x2="18.562" y1="4.528" y2="3.749" gradientTransform="matrix(1.3854229,0,0,1.5817473,-121.35948,-2.7165453)" gradientUnits="userSpaceOnUse" xlink:href="#linearGradient6076"/><linearGradient id="linearGradient8190" x1="18.977" x2="14.121" y1="6.559" y2="2.942" gradientTransform="matrix(1.0283037,0,0,1.1842757,-114.43871,-0.9310167)" gradientUnits="userSpaceOnUse" xlink:href="#linearGradient4919"/><radialGradient id="radialGradient8192" cx="23.946" cy="24.538" r="21.456" fx="23.946" fy="24.538" gradientUnits="userSpaceOnUse" xlink:href="#linearGradient6565"/><linearGradient id="linearGradient8194" x1="36.211" x2="18.193" y1="37.921" y2="11.671" gradientTransform="matrix(0.5825754,0,0,0.5825756,-123.95022,7.704547)" gradientUnits="userSpaceOnUse" xlink:href="#linearGradient8146"/><radialGradient id="radialGradient8196" cx="36.62" cy="7.221" r="5.171" fx="36.62" fy="7.221" gradientUnits="userSpaceOnUse" xlink:href="#linearGradient6343"/></defs><metadata id="metadata5620"/><g id="layer1" style="display:inline"><path style="color:#000;fill:url(#linearGradient7762);fill-opacity:1;fill-rule:evenodd;stroke:#888a85;stroke-width:.99999976px;stroke-linecap:butt;stroke-linejoin:miter;marker:none;marker-start:none;marker-mid:none;marker-end:none;stroke-miterlimit:4;stroke-dashoffset:0;stroke-opacity:1;visibility:visible;display:inline;overflow:visible;enable-background:accumulate" id="path7252" d="M 2.76187,0.5101464 L 11.95763,0.5101464 L 14.5,3.1399587 L 14.5,14.274536 C 14.5,14.953444 13.91191,15.5 13.18141,15.5 L 2.76187,15.5 C 2.03137,15.5 1.44328,14.953444 1.44328,14.274536 L 1.44328,1.7356103 C 1.44328,1.0567024 2.03137,0.5101464 2.76187,0.5101464 z"/><path style="opacity:1;color:#000;fill:url(#linearGradient7936);fill-opacity:1;fill-rule:evenodd;stroke:#888a85;stroke-width:1.00000048px;stroke-linecap:round;stroke-linejoin:miter;marker:none;marker-start:none;marker-mid:none;marker-end:none;stroke-miterlimit:4;stroke-dasharray:none;stroke-dashoffset:0;stroke-opacity:1;visibility:visible;display:inline;overflow:visible;enable-background:accumulate" id="path7262" d="M 8.00083,3.5073181 C 5.51947,3.5073181 3.5,5.5289912 3.5,8.013045 C 3.5,10.4971 5.51947,12.5 8.00083,12.5 C 10.48218,12.5 12.4829,10.4971 12.4829,8.013045 C 12.4829,5.5289912 10.48218,3.5073181 8.00083,3.5073181 z M 8.00083,6.507005 C 8.83125,6.507005 9.50523,7.181711 9.50523,8.013045 C 9.50523,8.844381 8.83125,9.519087 8.00083,9.519087 C 7.17039,9.519087 6.49642,8.844381 6.49642,8.013045 C 6.49642,7.181711 7.17039,6.507005 8.00083,6.507005 z"/><path id="path7254" d="M 3.38355,1.5008687 L 11.51077,1.5008687 L 13.5,3.6167986 L 13.47449,13.675577 C 13.47449,14.329739 13.15243,14.499999 12.4528,14.499999 L 3.25419,14.499999 C 2.55456,14.499999 2.5,14.475637 2.5,13.821475 L 2.5,2.1052466 C 2.5,1.4510851 2.68392,1.5008687 3.38355,1.5008687 z" style="color:#000;fill:none;fill-opacity:1;fill-rule:evenodd;stroke:#fff;stroke-width:1;stroke-linecap:butt;stroke-linejoin:miter;marker:none;marker-start:none;marker-mid:none;marker-end:none;stroke-miterlimit:4;stroke-dasharray:none;stroke-dashoffset:0;stroke-opacity:1;visibility:visible;display:inline;overflow:visible;enable-background:accumulate"/><path id="path7267" d="M 45.402216 24.538368 A 21.456448 21.456448 0 1 1 2.4893208,24.538368 A 21.456448 21.456448 0 1 1 45.402216 24.538368 z" transform="matrix(0.1631211,0,0,0.1631211,4.09394,3.9972737)" style="opacity:1;color:#000;fill:none;fill-opacity:1;fill-rule:evenodd;stroke:#fff;stroke-width:6.13041496px;stroke-linecap:round;stroke-linejoin:miter;marker:none;marker-start:none;marker-mid:none;marker-end:none;stroke-miterlimit:4;stroke-dasharray:none;stroke-dashoffset:0;stroke-opacity:.56756759;visibility:visible;display:inline;overflow:visible;enable-background:accumulate"/><path style="opacity:1;color:#000;fill:none;fill-opacity:.18468466;fill-rule:evenodd;stroke:#b2b2b2;stroke-width:.98363721px;stroke-linecap:butt;stroke-linejoin:miter;marker:none;marker-start:none;marker-mid:none;marker-end:none;stroke-miterlimit:4;stroke-dasharray:none;stroke-dashoffset:0;stroke-opacity:1;visibility:visible;display:inline;overflow:visible;enable-background:accumulate" id="path8006" d="M 9.5143821 7.996769 A 1.475456 1.475456 0 1 1 6.5634701,7.996769 A 1.475456 1.475456 0 1 1 9.5143821 7.996769 z" transform="matrix(1.016635,0,0,1.0166349,-0.17265,-0.1297941)"/><path id="path7271" d="M 7.02372,4.0458899 C 6.20204,4.2717968 4.75215,5.6666583 4.2063,6.240798 C 4.76533,6.663643 5.61858,6.871925 6.95994,7.20708 C 7.07836,7.075538 7.39745,6.74569 7.58243,6.697154 L 7.02372,4.0458899 z M 9.03121,9.102657 C 8.96604,9.425708 8.67426,9.509073 8.52201,9.555748 L 8.80109,12.288136 C 9.58766,12.053678 11.14272,10.923597 11.66812,10.366592 C 11.06252,9.896654 10.14996,9.967942 9.03121,9.102657 z" style="opacity:1;fill:#000;fill-opacity:.14864865;fill-rule:evenodd;stroke:none;stroke-width:1px;stroke-linecap:butt;stroke-linejoin:miter;stroke-opacity:1;display:inline"/><path id="path7256" d="M 11,1.6751125 L 14.05179,3.7647755 L 14.06285,5 L 11.02219,5 L 11,1.6751125 z" style="fill:url(#linearGradient7758);fill-opacity:1;fill-rule:evenodd;stroke:none;stroke-width:1px;stroke-linecap:butt;stroke-linejoin:miter;stroke-opacity:1;display:inline"/><path style="fill:url(#linearGradient7753);fill-opacity:1;fill-rule:evenodd;stroke:url(#linearGradient7755);stroke-width:.99999994px;stroke-linecap:butt;stroke-linejoin:miter;stroke-opacity:1;display:inline" id="path7258" d="M 14.00197,3.5000001 L 10.52329,3.5000001 L 10.5,0.0715205"/><g style="display:inline" id="g7938" transform="matrix(0.788649,0,0,0.8,-1.46379,-0.9999997)"><path id="path6341" d="M 41.790184 7.2211123 A 5.1705894 5.1705894 0 1 1 31.449005,7.2211123 A 5.1705894 5.1705894 0 1 1 41.790184 7.2211123 z" transform="matrix(0.9670077,0,0,0.9670077,-18.41143,-1.9828713)" style="opacity:1;color:#000;fill:url(#radialGradient7942);fill-opacity:1;fill-rule:evenodd;stroke:none;stroke-width:1.01691592;stroke-linecap:square;stroke-linejoin:round;marker:none;marker-start:none;marker-mid:none;marker-end:none;stroke-miterlimit:4;stroke-dasharray:none;stroke-dashoffset:0;stroke-opacity:1;visibility:visible;display:inline;overflow:visible;enable-background:accumulate"/><path id="path5368" d="M 34.55793,8.2210126 L 33.188741,5.4467331 L 30.127142,5.0018567 L 32.342536,2.8423812 L 31.819552,-0.20684715 L 34.55793,1.2328031 L 37.296308,-0.20684729 L 36.773324,2.842381 L 38.988718,5.0018565 L 35.927119,5.4467329 L 34.55793,8.2210126 z" transform="matrix(0.8055879,0,0,0.7376311,-10.368602,2.0609248)" style="opacity:1;color:#000;fill:#fff;fill-opacity:1;fill-rule:evenodd;stroke:#edd400;stroke-width:1.63319123;stroke-linecap:square;stroke-linejoin:round;marker:none;marker-start:none;marker-mid:none;marker-end:none;stroke-miterlimit:4;stroke-dasharray:none;stroke-dashoffset:0;stroke-opacity:1;visibility:visible;display:inline;overflow:visible;enable-background:accumulate"/></g><path id="path7960" d="M 11.68845,5.862666 C 11.22564,5.2758209 10.56267,4.8190491 9.84427,4.556204 C 9.60044,5.1281292 9.6184,5.6647698 9.14814,6.73866 C 9.31076,6.793592 9.45575,6.888808 9.55769,7.021612 L 11.68845,5.862666 z M 7.57225,9.548232 C 7.43885,9.495608 7.31978,9.415419 7.22936,9.30813 L 5,10.328355 C 5.46068,10.884681 6.0796,11.30452 6.77532,11.556204 C 7.05097,10.933072 7.06579,10.698502 7.57225,9.548232 z" style="opacity:1;color:#000;fill:#fff;fill-opacity:.75225226;fill-rule:evenodd;stroke:none;stroke-width:1px;stroke-linecap:butt;stroke-linejoin:miter;marker:none;marker-start:none;marker-mid:none;marker-end:none;stroke-miterlimit:4;stroke-dasharray:none;stroke-dashoffset:0;stroke-opacity:1;visibility:visible;display:inline;overflow:visible;enable-background:accumulate"/></g></svg>