<svg xmlns="http://www.w3.org/2000/svg" xmlns:cc="http://web.resource.org/cc/" xmlns:svg="http://www.w3.org/2000/svg" xmlns:xlink="http://www.w3.org/1999/xlink" id="svg5615" width="16" height="16" version="1.0"><defs id="defs5617"><linearGradient id="linearGradient15662"><stop style="stop-color:#fff;stop-opacity:1" id="stop15664" offset="0"/><stop style="stop-color:#f8f8f8;stop-opacity:1" id="stop15666" offset="1"/></linearGradient><linearGradient id="linearGradient269"><stop style="stop-color:#a3a3a3;stop-opacity:1" id="stop270" offset="0"/><stop style="stop-color:#8a8a8a;stop-opacity:1" id="stop271" offset="1"/></linearGradient><linearGradient id="linearGradient259"><stop style="stop-color:#fafafa;stop-opacity:1" id="stop260" offset="0"/><stop style="stop-color:#bbb;stop-opacity:1" id="stop261" offset="1"/></linearGradient><linearGradient id="linearGradient3702"><stop id="stop3704" offset="0" style="stop-color:black;stop-opacity:0"/><stop style="stop-color:black;stop-opacity:1" id="stop3710" offset=".5"/><stop id="stop3706" offset="1" style="stop-color:black;stop-opacity:0"/></linearGradient><linearGradient id="linearGradient6343"><stop style="stop-color:#fce94f;stop-opacity:1" id="stop6345" offset="0"/><stop style="stop-color:#fce94f;stop-opacity:0" id="stop6347" offset="1"/></linearGradient><radialGradient id="radialGradient6349" cx="37.221" cy="7.221" r="5.171" fx="37.221" fy="7.221" gradientUnits="userSpaceOnUse" xlink:href="#linearGradient6343"/><linearGradient id="linearGradient6672"><stop style="stop-color:#fff;stop-opacity:1" id="stop6674" offset="0"/><stop style="stop-color:#fff;stop-opacity:0" id="stop6676" offset="1"/></linearGradient><linearGradient id="linearGradient6565"><stop style="stop-color:#000;stop-opacity:1" id="stop6567" offset="0"/><stop style="stop-color:#000;stop-opacity:0" id="stop6569" offset="1"/></linearGradient><linearGradient id="linearGradient5912"><stop style="stop-color:#ebebe8;stop-opacity:1" id="stop5914" offset="0"/><stop style="stop-color:#eeeeec;stop-opacity:1" id="stop5916" offset="1"/></linearGradient><radialGradient id="radialGradient6710" cx="23.946" cy="24.538" r="21.456" fx="23.946" fy="24.538" gradientUnits="userSpaceOnUse" xlink:href="#linearGradient6565"/><linearGradient id="linearGradient6712" x1="9.295" x2="13.387" y1="5.661" y2="33.642" gradientUnits="userSpaceOnUse" xlink:href="#linearGradient5912"/><linearGradient id="linearGradient6714" x1="43.205" x2="28.453" y1="37.464" y2="37.465" gradientUnits="userSpaceOnUse" xlink:href="#linearGradient6672"/><linearGradient id="linearGradient6748" x1="9.295" x2="13.387" y1="5.661" y2="33.642" gradientUnits="userSpaceOnUse" xlink:href="#linearGradient5912"/><linearGradient id="linearGradient6789" x1="9.295" x2="13.387" y1="5.661" y2="33.642" gradientUnits="userSpaceOnUse" xlink:href="#linearGradient5912"/><linearGradient id="linearGradient6815" x1="43.282" x2="28.477" y1="37.464" y2="37.465" gradientTransform="matrix(0.5044,0,0,0.789146,-3.3886096,-9.1055033)" gradientUnits="userSpaceOnUse" xlink:href="#linearGradient6672"/><linearGradient id="linearGradient6830" x1="43.282" x2="28.477" y1="37.464" y2="37.465" gradientTransform="matrix(0.5044,0,0,0.789146,-3.3886096,-9.1055033)" gradientUnits="userSpaceOnUse" xlink:href="#linearGradient6672"/><linearGradient id="linearGradient5183" x1="43.282" x2="28.477" y1="37.464" y2="37.465" gradientTransform="matrix(0.5044,0,0,0.789146,-3.3886096,-9.1055033)" gradientUnits="userSpaceOnUse" xlink:href="#linearGradient6672"/><linearGradient id="linearGradient5181" x1="43.282" x2="28.477" y1="37.464" y2="37.465" gradientTransform="matrix(0.5044,0,0,0.789146,-3.3886096,-9.1055033)" gradientUnits="userSpaceOnUse" xlink:href="#linearGradient6672"/><linearGradient id="linearGradient5179" x1="9.295" x2="13.387" y1="5.661" y2="33.642" gradientUnits="userSpaceOnUse" xlink:href="#linearGradient5912"/><linearGradient id="linearGradient5177" x1="43.282" x2="28.477" y1="37.464" y2="37.465" gradientTransform="matrix(0.6345368,0,0,0.5552197,-19.580565,-1.5331267)" gradientUnits="userSpaceOnUse" xlink:href="#linearGradient6672"/><linearGradient id="linearGradient5175" x1="9.295" x2="13.387" y1="5.661" y2="33.642" gradientUnits="userSpaceOnUse" xlink:href="#linearGradient5912"/><radialGradient id="radialGradient5173" cx="23.946" cy="24.538" r="21.456" fx="23.946" fy="24.538" gradientUnits="userSpaceOnUse" xlink:href="#linearGradient6565"/><linearGradient id="linearGradient5171" x1="43.205" x2="28.453" y1="37.464" y2="37.465" gradientUnits="userSpaceOnUse" xlink:href="#linearGradient6672"/><linearGradient id="linearGradient5169" x1="9.295" x2="13.387" y1="5.661" y2="33.642" gradientUnits="userSpaceOnUse" xlink:href="#linearGradient5912"/><radialGradient id="radialGradient5167" cx="23.946" cy="24.538" r="21.456" fx="23.946" fy="24.538" gradientUnits="userSpaceOnUse" xlink:href="#linearGradient6565"/><linearGradient id="linearGradient6678" x1="43.282" x2="28.477" y1="37.464" y2="37.465" gradientUnits="userSpaceOnUse" xlink:href="#linearGradient6672"/><linearGradient id="linearGradient5164" x1="9.295" x2="13.387" y1="5.661" y2="33.642" gradientUnits="userSpaceOnUse" xlink:href="#linearGradient5912"/><radialGradient id="radialGradient5156" cx="23.946" cy="24.538" r="21.456" fx="23.946" fy="24.538" gradientUnits="userSpaceOnUse" xlink:href="#linearGradient6565"/><linearGradient id="linearGradient4964" x1="9.295" x2="13.387" y1="5.661" y2="33.642" gradientTransform="matrix(0.3496332,0,0,0.3496332,-0.3722358,-0.5794284)" gradientUnits="userSpaceOnUse" xlink:href="#linearGradient5912"/></defs><metadata id="metadata5620"/><g id="layer1"><path style="color:#000;fill:url(#linearGradient4964);fill-opacity:1;fill-rule:evenodd;stroke:#888a85;stroke-width:1.00000036px;stroke-linecap:round;stroke-linejoin:miter;marker:none;marker-start:none;marker-mid:none;marker-end:none;stroke-miterlimit:4;stroke-dasharray:none;stroke-dashoffset:0;stroke-opacity:1;visibility:visible;display:inline;overflow:visible;enable-background:accumulate" id="path6718" d="M 8 0.5 C 3.8589587 0.5 0.49999999 3.8589585 0.5 8 C 0.5 12.141041 3.8589585 15.5 8 15.5 C 12.141041 15.5 15.5 12.141041 15.5 8 C 15.5 3.8589587 12.141041 0.50000001 8 0.5 z M 8 5.5 C 9.3799999 5.5000001 10.5 6.6199999 10.5 8 C 10.5 9.3799999 9.3800001 10.5 8 10.5 C 6.6199998 10.5 5.5 9.3800001 5.5 8 C 5.5000002 6.6199997 6.6199999 5.5 8 5.5 z"/><path style="color:#000;fill:#000;fill-opacity:.1081081;fill-rule:evenodd;stroke:none;stroke-width:2.52428889px;stroke-linecap:round;stroke-linejoin:miter;marker:none;marker-start:none;marker-mid:none;marker-end:none;stroke-miterlimit:4;stroke-dasharray:none;stroke-dashoffset:0;stroke-opacity:1;visibility:visible;display:inline;overflow:visible;enable-background:accumulate" id="path6720" d="M 8 4 C 5.7920006 4 4.0000001 5.791999 4 8 C 4 10.208001 5.7920006 12 8 12 C 10.207999 12 12 10.208 12 8 C 12 5.7919994 10.207999 3.9999999 8 4 z M 8 5.5 C 9.3799999 5.5000001 10.5 6.6199999 10.5 8 C 10.5 9.3799999 9.3800001 10.5 8 10.5 C 6.6199998 10.5 5.5 9.3800001 5.5 8 C 5.5000002 6.6199997 6.6199999 5.5 8 5.5 z"/><path style="color:#000;fill:none;fill-opacity:1;fill-rule:evenodd;stroke:#fff;stroke-width:3.30099344px;stroke-linecap:round;stroke-linejoin:miter;marker:none;marker-start:none;marker-mid:none;marker-end:none;stroke-miterlimit:4;stroke-dasharray:none;stroke-dashoffset:0;stroke-opacity:.56756759;visibility:visible;display:inline;overflow:visible;enable-background:accumulate" id="path6722" d="M 45.402216 24.538368 A 21.456448 21.456448 0 1 1 2.4893208,24.538368 A 21.456448 21.456448 0 1 1 45.402216 24.538368 z" transform="matrix(0.3029392,0,0,0.3029392,0.7458873,0.5663657)"/><path id="path6728" d="M 14.996322,5.9886674 C 14.595497,4.6710148 13.786452,3.4765078 12.767759,2.601177 C 12.017507,3.4976386 10.719763,5.100731 9.2906594,6.7770746 C 9.5240567,6.9669736 9.703839,7.2197592 9.7899557,7.5163861 L 14.996322,5.9886674 z M 7.0091828,9.3289584 C 6.8223486,9.1595244 6.6759204,8.9483291 6.5931038,8.7041884 L 1.2827297,10.318967 C 1.6987301,11.580332 2.4580489,12.683586 3.446341,13.526121 C 4.2801543,12.554967 5.4739109,11.122987 7.0091828,9.3289584 z" style="fill:#fff;fill-opacity:.28828831;fill-rule:evenodd;stroke:none;stroke-width:1px;stroke-linecap:butt;stroke-linejoin:miter;stroke-opacity:1"/><path style="fill:#000;fill-opacity:.04054057;fill-rule:evenodd;stroke:none;stroke-width:1px;stroke-linecap:butt;stroke-linejoin:miter;stroke-opacity:1" id="path6730" d="M 5.900719,1.1751965 C 4.5162994,1.5858302 3.2975743,2.3694382 2.3778894,3.4130595 C 3.319777,4.1816695 5.1568955,5.700075 6.9181813,7.1641435 C 7.1177022,6.9250388 7.3832976,6.7408574 7.6949552,6.6526318 L 5.900719,1.1751965 z M 9.2922641,9.1462503 C 9.1142436,9.3376577 8.8923478,9.487669 8.6358354,9.5725104 L 10.451954,15.145854 C 11.777232,14.719677 12.936389,13.941778 13.821617,12.929304 C 12.801252,12.075088 11.177197,10.71909 9.2922641,9.1462503 z"/><path style="fill:none;fill-opacity:1;fill-rule:evenodd;stroke:#fff;stroke-width:.99999988px;stroke-linecap:butt;stroke-linejoin:miter;stroke-opacity:.36486487" id="path6732" d="M 6.3883523,9.4546043 L 2.1119375,12.000557 M 12.86231,2.7224915 L 9.6850907,6.5486794"/><path style="opacity:1;color:#000;fill:url(#radialGradient6349);fill-opacity:1;fill-rule:evenodd;stroke:none;stroke-width:1.01691592;stroke-linecap:square;stroke-linejoin:round;marker:none;marker-start:none;marker-mid:none;marker-end:none;stroke-miterlimit:4;stroke-dasharray:none;stroke-dashoffset:0;stroke-opacity:1;visibility:visible;display:inline;overflow:visible;enable-background:accumulate" id="path6341" d="M 41.790184 7.2211123 A 5.1705894 5.1705894 0 1 1 31.449005,7.2211123 A 5.1705894 5.1705894 0 1 1 41.790184 7.2211123 z" transform="matrix(0.7736063,0,0,0.7736062,-16.32915,-1.5862972)"/><path style="opacity:1;color:#000;fill:#fff;fill-opacity:1;fill-rule:evenodd;stroke:#fce94f;stroke-width:1.51195848;stroke-linecap:square;stroke-linejoin:round;marker:none;marker-start:none;marker-mid:none;marker-end:none;stroke-miterlimit:4;stroke-dasharray:none;stroke-dashoffset:0;stroke-opacity:1;visibility:visible;display:inline;overflow:visible;enable-background:accumulate" id="path5368" d="M 34.55793,8.2210126 L 33.188741,5.4467331 L 30.127142,5.0018567 L 32.342536,2.8423812 L 31.819552,-0.20684715 L 34.55793,1.2328031 L 37.296308,-0.20684729 L 36.773324,2.842381 L 38.988718,5.0018565 L 35.927119,5.4467329 L 34.55793,8.2210126 z" transform="matrix(0.6770803,0,0,0.6460707,-10.898494,1.1886449)"/><path id="rect2931" d="M 15.155343,6.507997 L 7.849725,6.569834 C 7.660732,6.587361 7.507039,6.749999 7.507039,6.934922 L 7.517748,13.147942 C 7.161066,13.095329 6.996688,13.077496 6.570997,13.127079 C 5.248651,13.281103 5.435385,13.968119 5.50403,14.598802 C 5.572675,15.229484 5.708992,15.618603 7.031336,15.46458 C 8.35368,15.310559 9.607882,14.885755 9.539238,14.255073 L 9.482801,8.507345 L 13.503499,8.482978 L 13.500386,13.156552 C 12.218903,13.056721 11.377159,13.538121 11.510917,14.681654 C 11.588566,15.345503 11.903204,15.613636 13.224624,15.459612 C 14.546043,15.30559 15.563513,14.830551 15.494916,14.199869 L 15.498028,6.810497 C 15.498028,6.625575 15.344336,6.49047 15.155343,6.507997 z" style="color:#000;fill:#ff9c3b;fill-opacity:1;fill-rule:evenodd;stroke:#ce5c00;stroke-width:1.00000036;stroke-linecap:butt;stroke-linejoin:miter;marker:none;marker-start:none;marker-mid:none;marker-end:none;stroke-miterlimit:4;stroke-dasharray:none;stroke-dashoffset:0;stroke-opacity:1;visibility:visible;display:inline;overflow:visible"/></g></svg>