<svg xmlns="http://www.w3.org/2000/svg" xmlns:cc="http://web.resource.org/cc/" xmlns:svg="http://www.w3.org/2000/svg" xmlns:xlink="http://www.w3.org/1999/xlink" id="svg5615" width="32" height="32" version="1.0"><defs id="defs5617"><radialGradient id="radialGradient1982" cx="8.824" cy="3.756" r="37.752" fx="8.824" fy="3.756" gradientTransform="matrix(0.388698,0,0,0.4288892,15.195341,12.260647)" gradientUnits="userSpaceOnUse" xlink:href="#linearGradient269"/><radialGradient id="radialGradient1980" cx="33.967" cy="35.737" r="86.708" fx="33.967" fy="35.737" gradientTransform="matrix(0.3855746,0,0,0.4323624,13.849113,11.992188)" gradientUnits="userSpaceOnUse" xlink:href="#linearGradient259"/><linearGradient id="linearGradient15662"><stop style="stop-color:#fff;stop-opacity:1" id="stop15664" offset="0"/><stop style="stop-color:#f8f8f8;stop-opacity:1" id="stop15666" offset="1"/></linearGradient><radialGradient id="radialGradient1977" cx="8.144" cy="7.268" r="38.159" fx="8.144" fy="7.268" gradientTransform="matrix(0.3545071,0,0,0.3977651,15.921095,12.983493)" gradientUnits="userSpaceOnUse" xlink:href="#linearGradient15662"/><linearGradient id="linearGradient4790"><stop id="stop4792" offset="0" style="stop-color:#000;stop-opacity:1"/><stop id="stop4794" offset="1" style="stop-color:#000;stop-opacity:0"/></linearGradient><radialGradient id="radialGradient1974" cx="37.03" cy="12.989" r="4.293" fx="37.03" fy="12.989" gradientTransform="matrix(0.7234509,0,0,0.5337711,2.4200713,10.591647)" gradientUnits="userSpaceOnUse" xlink:href="#linearGradient4790"/><linearGradient id="linearGradient269"><stop style="stop-color:#a3a3a3;stop-opacity:1" id="stop270" offset="0"/><stop style="stop-color:#8a8a8a;stop-opacity:1" id="stop271" offset="1"/></linearGradient><radialGradient id="radialGradient1971" cx="31.863" cy="2.367" r="37.752" fx="31.863" fy="2.367" gradientTransform="matrix(0.1376637,0,0,0.1475893,21.654919,15.980912)" gradientUnits="userSpaceOnUse" xlink:href="#linearGradient269"/><linearGradient id="linearGradient259"><stop style="stop-color:#fafafa;stop-opacity:1" id="stop260" offset="0"/><stop style="stop-color:#bbb;stop-opacity:1" id="stop261" offset="1"/></linearGradient><radialGradient id="radialGradient1969" cx="30.654" cy="14.937" r="86.708" fx="30.654" fy="14.937" gradientTransform="matrix(6.156445e-2,4.2093145e-3,-4.583205e-3,6.7725405e-2,23.711085,17.330197)" gradientUnits="userSpaceOnUse" xlink:href="#linearGradient259"/><linearGradient id="linearGradient2251"><stop id="stop2253" offset="0" style="stop-color:#fff;stop-opacity:1"/><stop id="stop2255" offset="1" style="stop-color:#fff;stop-opacity:0"/></linearGradient><linearGradient id="linearGradient1966" x1="33.396" x2="34.17" y1="36.921" y2="38.07" gradientTransform="matrix(-1.1986824e-2,-0.357925,0.3654857,-1.1738855e-2,14.814174,28.517987)" gradientUnits="userSpaceOnUse" xlink:href="#linearGradient2251"/><linearGradient id="linearGradient3702"><stop id="stop3704" offset="0" style="stop-color:black;stop-opacity:0"/><stop style="stop-color:black;stop-opacity:1" id="stop3710" offset=".5"/><stop id="stop3706" offset="1" style="stop-color:black;stop-opacity:0"/></linearGradient><linearGradient id="linearGradient7826" x1="25.058" x2="25.058" y1="47.028" y2="39.999" gradientUnits="userSpaceOnUse" xlink:href="#linearGradient3702"/><radialGradient id="radialGradient7824" cx="4.993" cy="43.5" r="2.5" fx="4.993" fy="43.5" gradientTransform="matrix(2.003784,0,0,1.4,-20.01187,-104.4)" gradientUnits="userSpaceOnUse" xlink:href="#linearGradient3688"/><linearGradient id="linearGradient3688"><stop id="stop3690" offset="0" style="stop-color:black;stop-opacity:1"/><stop id="stop3692" offset="1" style="stop-color:black;stop-opacity:0"/></linearGradient><radialGradient id="radialGradient7822" cx="4.993" cy="43.5" r="2.5" fx="4.993" fy="43.5" gradientTransform="matrix(2.003784,0,0,1.4,27.98813,-17.4)" gradientUnits="userSpaceOnUse" xlink:href="#linearGradient3688"/><linearGradient id="linearGradient6343"><stop style="stop-color:#fce94f;stop-opacity:1" id="stop6345" offset="0"/><stop style="stop-color:#fce94f;stop-opacity:0" id="stop6347" offset="1"/></linearGradient><radialGradient id="radialGradient6349" cx="36.62" cy="7.221" r="5.171" fx="36.62" fy="7.221" gradientUnits="userSpaceOnUse" xlink:href="#linearGradient6343"/><linearGradient id="linearGradient6672"><stop style="stop-color:#fff;stop-opacity:1" id="stop6674" offset="0"/><stop style="stop-color:#fff;stop-opacity:0" id="stop6676" offset="1"/></linearGradient><linearGradient id="linearGradient6565"><stop style="stop-color:#000;stop-opacity:1" id="stop6567" offset="0"/><stop style="stop-color:#000;stop-opacity:0" id="stop6569" offset="1"/></linearGradient><radialGradient id="radialGradient7284" cx="23.946" cy="24.538" r="21.456" fx="23.946" fy="24.538" gradientUnits="userSpaceOnUse" xlink:href="#linearGradient6565"/><linearGradient id="linearGradient5912"><stop style="stop-color:#ebebe8;stop-opacity:1" id="stop5914" offset="0"/><stop style="stop-color:#eeeeec;stop-opacity:1" id="stop5916" offset="1"/></linearGradient><linearGradient id="linearGradient7286" x1="9.295" x2="13.387" y1="5.661" y2="33.642" gradientTransform="matrix(0.6772076,0,0,0.6757875,-0.246726,-1.5827234)" gradientUnits="userSpaceOnUse" xlink:href="#linearGradient5912"/><radialGradient id="radialGradient6710" cx="23.946" cy="24.538" r="21.456" fx="23.946" fy="24.538" gradientUnits="userSpaceOnUse" xlink:href="#linearGradient6565"/><linearGradient id="linearGradient6712" x1="9.295" x2="13.387" y1="5.661" y2="33.642" gradientUnits="userSpaceOnUse" xlink:href="#linearGradient5912"/><linearGradient id="linearGradient6714" x1="43.205" x2="28.453" y1="37.464" y2="37.465" gradientUnits="userSpaceOnUse" xlink:href="#linearGradient6672"/><radialGradient id="radialGradient6746" cx="23.946" cy="24.538" r="21.456" fx="23.946" fy="24.538" gradientUnits="userSpaceOnUse" xlink:href="#linearGradient6565"/><linearGradient id="linearGradient6748" x1="9.295" x2="13.387" y1="5.661" y2="33.642" gradientUnits="userSpaceOnUse" xlink:href="#linearGradient5912"/><linearGradient id="linearGradient6753" x1="43.282" x2="28.477" y1="37.464" y2="37.465" gradientTransform="matrix(0.6345368,0,0,0.5552197,-43.62219,-25.574755)" gradientUnits="userSpaceOnUse" xlink:href="#linearGradient6672"/><linearGradient id="linearGradient6789" x1="9.295" x2="13.387" y1="5.661" y2="33.642" gradientUnits="userSpaceOnUse" xlink:href="#linearGradient5912"/><linearGradient id="linearGradient6815" x1="43.282" x2="28.477" y1="37.464" y2="37.465" gradientTransform="matrix(0.5044,0,0,0.789146,-3.3886096,-9.1055033)" gradientUnits="userSpaceOnUse" xlink:href="#linearGradient6672"/><linearGradient id="linearGradient6830" x1="43.282" x2="28.477" y1="37.464" y2="37.465" gradientTransform="matrix(0.5044,0,0,0.789146,-3.3886096,-9.1055033)" gradientUnits="userSpaceOnUse" xlink:href="#linearGradient6672"/></defs><metadata id="metadata5620"/><g id="layer1"><path id="path7264" d="M 45.402216,24.538368 A 21.456448,21.456448 0 1 1 2.4893208,24.538368 A 21.456448,21.456448 0 1 1 45.402216,24.538368 z" transform="matrix(0.7040938,0,0,0.3201913,-0.693494,17.032122)" style="opacity:.38864632;color:#000;fill:url(#radialGradient7284);fill-opacity:1;fill-rule:evenodd;stroke:none;stroke-width:1.50133264px;stroke-linecap:round;stroke-linejoin:miter;marker:none;marker-start:none;marker-mid:none;marker-end:none;stroke-miterlimit:4;stroke-dasharray:none;stroke-dashoffset:0;stroke-opacity:1;visibility:visible;display:inline;overflow:visible;enable-background:accumulate"/><path style="opacity:1;color:#000;fill:url(#linearGradient7286);fill-opacity:1;fill-rule:evenodd;stroke:#888a85;stroke-width:1.00000024px;stroke-linecap:round;stroke-linejoin:miter;marker:none;marker-start:none;marker-mid:none;marker-end:none;stroke-miterlimit:4;stroke-dasharray:none;stroke-dashoffset:0;stroke-opacity:1;visibility:visible;display:inline;overflow:visible;enable-background:accumulate" id="path7266" d="M 15.96875 0.5 C 7.9479309 0.5 1.4375 6.9960006 1.4375 15 C 1.4375 23.003999 7.9479311 29.5 15.96875 29.5 C 23.989569 29.5 30.5 23.004 30.5 15 C 30.5 6.9960005 23.989569 0.49999997 15.96875 0.5 z M 16 11.5 C 17.932 11.5 19.5 13.068 19.5 15 C 19.5 16.931999 17.932 18.5 16 18.5 C 14.068 18.500001 12.5 16.932 12.5 15 C 12.5 13.068 14.068 11.5 16 11.5 z"/><path style="opacity:1;color:#000;fill:#000;fill-opacity:.1081081;fill-rule:evenodd;stroke:none;stroke-width:2.52428889px;stroke-linecap:round;stroke-linejoin:miter;marker:none;marker-start:none;marker-mid:none;marker-end:none;stroke-miterlimit:4;stroke-dasharray:none;stroke-dashoffset:0;stroke-opacity:1;visibility:visible;display:inline;overflow:visible;enable-background:accumulate" id="path7270" d="M 16 8 C 12.136001 8 9.0000004 11.136001 9 15 C 9 18.863999 12.136001 21.999999 16 22 C 19.863999 22 23.000001 18.864 23 15 C 23 11.136001 19.863999 7.9999999 16 8 z M 16 10.9375 C 18.235746 10.9375 20.0625 12.764254 20.0625 15 C 20.062501 17.235747 18.235746 19.0625 16 19.0625 C 13.764254 19.0625 11.9375 17.235746 11.9375 15 C 11.9375 12.764254 13.764254 10.9375 16 10.9375 z"/><path id="path7272" d="M 45.402216,24.538368 A 21.456448,21.456448 0 1 1 2.4893208,24.538368 A 21.456448,21.456448 0 1 1 45.402216,24.538368 z" transform="matrix(0.6291815,0,0,0.6291816,0.933765,-0.4390875)" style="opacity:1;color:#000;fill:none;fill-opacity:1;fill-rule:evenodd;stroke:#fff;stroke-width:1.58936679px;stroke-linecap:round;stroke-linejoin:miter;marker:none;marker-start:none;marker-mid:none;marker-end:none;stroke-miterlimit:4;stroke-dasharray:none;stroke-dashoffset:0;stroke-opacity:.56756759;visibility:visible;display:inline;overflow:visible;enable-background:accumulate"/><path style="opacity:1;color:#000;fill:none;fill-opacity:1;fill-rule:evenodd;stroke:#fff;stroke-width:4.76810408px;stroke-linecap:round;stroke-linejoin:miter;marker:none;marker-start:none;marker-mid:none;marker-end:none;stroke-miterlimit:4;stroke-dasharray:none;stroke-dashoffset:0;stroke-opacity:.42342344;visibility:visible;display:inline;overflow:visible;enable-background:accumulate" id="path7274" d="M 45.402216,24.538368 A 21.456448,21.456448 0 1 1 2.4893208,24.538368 A 21.456448,21.456448 0 1 1 45.402216,24.538368 z" transform="matrix(0.2097272,0,0,0.2097271,10.977922,9.8536381)"/><path style="fill:#fff;fill-opacity:.28828831;fill-rule:evenodd;stroke:none;stroke-width:1px;stroke-linecap:butt;stroke-linejoin:miter;stroke-opacity:1" id="path7278" d="M 29.474879,11.30262 C 28.699786,8.7560955 27.135301,6.4475649 25.165408,4.7558814 C 23.714614,6.4884027 21.205111,9.5865746 18.441591,12.826313 C 18.892921,13.193316 19.240573,13.681855 19.407101,14.255123 L 29.474879,11.30262 z M 14.0298,17.75814 C 13.66851,17.430688 13.385355,17.022528 13.225209,16.550696 L 2.956308,19.671453 C 3.760746,22.109195 5.229073,24.241367 7.140177,25.869668 C 8.752558,23.992794 11.060978,21.225319 14.0298,17.75814 z"/><path id="path7280" d="M 11.886315,2 C 9.209202,2.7935997 6.852501,4.3080178 5.074066,6.3249433 C 6.895435,7.810376 10.447951,10.74488 13.853826,13.574371 C 14.239648,13.112272 14.753242,12.756319 15.355908,12.585812 L 11.886315,2 z M 18.444693,17.405034 C 18.100448,17.774953 17.671358,18.064868 17.175329,18.228833 L 20.687236,29 C 23.249984,28.176361 25.491497,26.672976 27.2033,24.716247 C 25.230176,23.06537 22.089672,20.44474 18.444693,17.405034 z" style="fill:#000;fill-opacity:.04054057;fill-rule:evenodd;stroke:none;stroke-width:1px;stroke-linecap:butt;stroke-linejoin:miter;stroke-opacity:1"/><path id="path7282" d="M 12.829273,18.000966 L 4.559784,22.921331 M 25.348247,4.9903365 L 19.204321,12.384912" style="fill:none;fill-opacity:1;fill-rule:evenodd;stroke:#fff;stroke-width:1px;stroke-linecap:butt;stroke-linejoin:miter;stroke-opacity:.36486487"/><path style="opacity:1;color:#000;fill:url(#radialGradient6349);fill-opacity:1;fill-rule:evenodd;stroke:none;stroke-width:1.01691592;stroke-linecap:square;stroke-linejoin:round;marker:none;marker-start:none;marker-mid:none;marker-end:none;stroke-miterlimit:4;stroke-dasharray:none;stroke-dashoffset:0;stroke-opacity:1;visibility:visible;display:inline;overflow:visible;enable-background:accumulate" id="path6341" d="M 41.790184 7.2211123 A 5.1705894 5.1705894 0 1 1 31.449005,7.2211123 A 5.1705894 5.1705894 0 1 1 41.790184 7.2211123 z" transform="matrix(1.1588744,0,0,1.1588742,-17.429574,-1.3762979)"/><path style="opacity:1;color:#000;fill:#fff;fill-opacity:1;fill-rule:evenodd;stroke:#fce94f;stroke-width:1.01846921;stroke-linecap:square;stroke-linejoin:round;marker:none;marker-start:none;marker-mid:none;marker-end:none;stroke-miterlimit:4;stroke-dasharray:none;stroke-dashoffset:0;stroke-opacity:1;visibility:visible;display:inline;overflow:visible;enable-background:accumulate" id="path5368" d="M 34.55793,8.2210126 L 33.188741,5.4467331 L 30.127142,5.0018567 L 32.342536,2.8423812 L 31.819552,-0.20684715 L 34.55793,1.2328031 L 37.296308,-0.20684729 L 36.773324,2.842381 L 38.988718,5.0018565 L 35.927119,5.4467329 L 34.55793,8.2210126 z" transform="matrix(1.0156206,0,0,0.9492327,-10.097746,3.6963463)"/><g id="g3712" transform="matrix(0.4473684,0,0,0.5714283,12.763158,5.1428681)" style="opacity:.4;display:inline"><rect id="rect2801" width="5" height="7" x="38" y="40" style="opacity:1;fill:url(#radialGradient7822);fill-opacity:1;stroke:none;stroke-width:1;stroke-linecap:round;stroke-linejoin:miter;stroke-miterlimit:4;stroke-dasharray:none;stroke-opacity:1"/><rect id="rect3696" width="5" height="7" x="-10" y="-47" transform="scale(-1,-1)" style="opacity:1;fill:url(#radialGradient7824);fill-opacity:1;stroke:none;stroke-width:1;stroke-linecap:round;stroke-linejoin:miter;stroke-miterlimit:4;stroke-dasharray:none;stroke-opacity:1"/><rect id="rect3700" width="28" height="7" x="10" y="40" style="opacity:1;fill:url(#linearGradient7826);fill-opacity:1;stroke:none;stroke-width:1;stroke-linecap:round;stroke-linejoin:miter;stroke-miterlimit:4;stroke-dasharray:none;stroke-opacity:1"/></g><path style="color:#000;fill:url(#radialGradient1980);fill-opacity:1;fill-rule:nonzero;stroke:url(#radialGradient1982);stroke-width:1.00000048;stroke-linecap:round;stroke-linejoin:round;marker:none;marker-start:none;marker-mid:none;marker-end:none;stroke-miterlimit:4;stroke-dashoffset:0;stroke-opacity:1;visibility:visible;display:block;overflow:visible" id="rect15391" d="M 16.961269,13.50649 L 26.373689,13.5 C 26.373689,13.5 30.500001,17.463325 30.500001,17.727681 L 30.500001,30.022823 C 30.500001,30.287179 30.294277,30.500001 30.038734,30.500001 L 16.961269,30.500001 C 16.705726,30.500001 16.500001,30.287179 16.500001,30.022823 L 16.500001,13.983668 C 16.500001,13.719311 16.705726,13.50649 16.961269,13.50649 z"/><path style="color:#000;fill:none;fill-opacity:1;fill-rule:nonzero;stroke:url(#radialGradient1977);stroke-width:1.00000024;stroke-linecap:round;stroke-linejoin:round;marker:none;marker-start:none;marker-mid:none;marker-end:none;stroke-miterlimit:4;stroke-dashoffset:0;stroke-opacity:1;visibility:visible;display:block;overflow:visible" id="rect15660" d="M 17.554571,14.5 L 26.662385,14.5 C 26.662385,14.5 29.499999,17.589413 29.499999,17.621214 L 29.499999,29.442596 C 29.499999,29.474399 29.475662,29.500001 29.44543,29.500001 L 17.554571,29.500001 C 17.524338,29.500001 17.5,29.474399 17.5,29.442596 L 17.5,14.557405 C 17.5,14.525603 17.524338,14.5 17.554571,14.5 z"/><path style="opacity:.35714285;color:#000;fill:url(#radialGradient1974);fill-opacity:1;fill-rule:evenodd;stroke:none;stroke-width:1.00000024;stroke-linecap:butt;stroke-linejoin:miter;marker:none;marker-start:none;marker-mid:none;marker-end:none;stroke-miterlimit:4;stroke-dasharray:none;stroke-dashoffset:0;stroke-opacity:1;visibility:visible;display:inline;overflow:visible" id="path5348" d="M 30.438212,17.800908 C 30.136185,17.241029 27.907511,16.249897 26.747443,15.917483 C 26.817733,16.571457 26.696531,18.544292 26.696531,18.544292 C 27.551782,17.972616 30.11448,17.733507 30.438212,17.800908 z"/><rect style="opacity:1;color:#000;fill:#888a85;fill-opacity:1;fill-rule:evenodd;stroke:none;stroke-width:1;stroke-linecap:square;stroke-linejoin:round;marker:none;marker-start:none;marker-mid:none;marker-end:none;stroke-miterlimit:4;stroke-dasharray:none;stroke-dashoffset:0;stroke-opacity:1;visibility:visible;display:inline;overflow:visible;enable-background:accumulate" id="rect7828" width="7.086" height="1" x="21" y="17"/><path style="color:#000;fill:url(#radialGradient1969);fill-opacity:1;fill-rule:nonzero;stroke:url(#radialGradient1971);stroke-width:1.00000095;stroke-linecap:butt;stroke-linejoin:round;marker:none;marker-start:none;marker-mid:none;marker-end:none;stroke-miterlimit:4;stroke-dasharray:none;stroke-dashoffset:0;stroke-opacity:1;visibility:visible;display:block;overflow:visible" id="path2210" d="M 30.496204,17.714867 C 30.501668,17.124583 27.860025,13.457216 26.248828,13.500379 C 26.65262,13.597566 26.975191,16.073189 26.398485,17.24634 C 27.539681,17.24634 30.096219,16.939785 30.496204,17.714867 z"/><path id="path2247" d="M 29.379724,16.529474 C 29.113375,16.047224 27.859022,14.713983 27.155969,14.270983 C 27.243345,14.781604 27.35236,15.589723 27.127232,16.507354 C 27.127232,16.507354 29.094235,16.471418 29.379724,16.529474 z" style="color:#000;fill:none;fill-opacity:1;fill-rule:evenodd;stroke:url(#linearGradient1966);stroke-width:1.00000095;stroke-linecap:butt;stroke-linejoin:miter;marker:none;marker-start:none;marker-mid:none;marker-end:none;stroke-miterlimit:4;stroke-dasharray:none;stroke-dashoffset:0;stroke-opacity:1;visibility:visible;display:inline;overflow:visible"/><rect id="rect7830" width="9" height="1" x="19" y="19" style="opacity:1;color:#000;fill:#888a85;fill-opacity:1;fill-rule:evenodd;stroke:none;stroke-width:1;stroke-linecap:square;stroke-linejoin:round;marker:none;marker-start:none;marker-mid:none;marker-end:none;stroke-miterlimit:4;stroke-dasharray:none;stroke-dashoffset:0;stroke-opacity:1;visibility:visible;display:inline;overflow:visible;enable-background:accumulate"/><rect style="opacity:1;color:#000;fill:#888a85;fill-opacity:1;fill-rule:evenodd;stroke:none;stroke-width:1;stroke-linecap:square;stroke-linejoin:round;marker:none;marker-start:none;marker-mid:none;marker-end:none;stroke-miterlimit:4;stroke-dasharray:none;stroke-dashoffset:0;stroke-opacity:1;visibility:visible;display:inline;overflow:visible;enable-background:accumulate" id="rect7832" width="9" height="1" x="19" y="21"/><rect id="rect7834" width="9" height="1" x="19" y="23" style="opacity:1;color:#000;fill:#888a85;fill-opacity:1;fill-rule:evenodd;stroke:none;stroke-width:1;stroke-linecap:square;stroke-linejoin:round;marker:none;marker-start:none;marker-mid:none;marker-end:none;stroke-miterlimit:4;stroke-dasharray:none;stroke-dashoffset:0;stroke-opacity:1;visibility:visible;display:inline;overflow:visible;enable-background:accumulate"/><rect style="opacity:1;color:#000;fill:#888a85;fill-opacity:1;fill-rule:evenodd;stroke:none;stroke-width:1;stroke-linecap:square;stroke-linejoin:round;marker:none;marker-start:none;marker-mid:none;marker-end:none;stroke-miterlimit:4;stroke-dasharray:none;stroke-dashoffset:0;stroke-opacity:1;visibility:visible;display:inline;overflow:visible;enable-background:accumulate" id="rect7836" width="9" height="1" x="19" y="25"/><rect id="rect7838" width="8" height="1" x="19" y="27" style="opacity:1;color:#000;fill:#888a85;fill-opacity:1;fill-rule:evenodd;stroke:none;stroke-width:1;stroke-linecap:square;stroke-linejoin:round;marker:none;marker-start:none;marker-mid:none;marker-end:none;stroke-miterlimit:4;stroke-dasharray:none;stroke-dashoffset:0;stroke-opacity:1;visibility:visible;display:inline;overflow:visible;enable-background:accumulate"/></g></svg>