<svg xmlns="http://www.w3.org/2000/svg" xmlns:cc="http://web.resource.org/cc/" xmlns:svg="http://www.w3.org/2000/svg" xmlns:xlink="http://www.w3.org/1999/xlink" id="svg2" width="32" height="32" version="1.0"><defs id="defs3"><linearGradient id="linearGradient7802"><stop style="stop-color:#ce5c00;stop-opacity:1" id="stop7804" offset="0"/><stop style="stop-color:#ce5c00;stop-opacity:0" id="stop7806" offset="1"/></linearGradient><linearGradient id="linearGradient8459" x1="2.5" x2="11.999" y1="-5.263" y2="14.713" gradientTransform="matrix(1.2353553,0,0,1.2000001,-2.8247845,-0.3000007)" gradientUnits="userSpaceOnUse" xlink:href="#linearGradient7944"/><linearGradient id="linearGradient8457" x1="16.552" x2="16.552" y1="2.963" y2="7.27" gradientTransform="matrix(0.8244143,0,0,1.157185,5.5304487,-0.2574801)" gradientUnits="userSpaceOnUse" xlink:href="#linearGradient6108"/><linearGradient id="linearGradient8455" x1="18.977" x2="14.121" y1="6.559" y2="2.942" gradientTransform="matrix(0.8237543,0,0,0.9253587,4.7080225,0.53562)" gradientUnits="userSpaceOnUse" xlink:href="#linearGradient4919"/><linearGradient id="linearGradient8453" x1="17.688" x2="18.562" y1="4.528" y2="3.749" gradientTransform="matrix(1.1098356,0,0,1.2359314,-0.8360734,-0.8595405)" gradientUnits="userSpaceOnUse" xlink:href="#linearGradient6076"/><linearGradient id="linearGradient6565"><stop style="stop-color:#000;stop-opacity:1" id="stop6567" offset="0"/><stop style="stop-color:#000;stop-opacity:0" id="stop6569" offset="1"/></linearGradient><radialGradient id="radialGradient8451" cx="23.946" cy="24.538" r="21.456" fx="23.946" fy="24.538" gradientUnits="userSpaceOnUse" xlink:href="#linearGradient6565"/><linearGradient id="linearGradient8146"><stop id="stop8148" offset="0" style="stop-color:#ebebe8;stop-opacity:1"/><stop id="stop8150" offset="1" style="stop-color:#fbfbfb;stop-opacity:1"/></linearGradient><linearGradient id="linearGradient8449" x1="36.211" x2="18.193" y1="37.921" y2="11.671" gradientTransform="matrix(0.4414185,0,0,0.4427573,9.458617,9.1354559)" gradientUnits="userSpaceOnUse" xlink:href="#linearGradient8146"/><linearGradient id="linearGradient7944"><stop id="stop7946" offset="0" style="stop-color:#dededa;stop-opacity:1"/><stop id="stop7948" offset="1" style="stop-color:#fff;stop-opacity:1"/></linearGradient><linearGradient id="linearGradient6108"><stop style="stop-color:#000;stop-opacity:1" id="stop6110" offset="0"/><stop style="stop-color:#000;stop-opacity:0" id="stop6112" offset="1"/></linearGradient><linearGradient id="linearGradient4919"><stop style="stop-color:#888a85;stop-opacity:1" id="stop4921" offset="0"/><stop style="stop-color:#888a85;stop-opacity:0" id="stop4923" offset="1"/></linearGradient><linearGradient id="linearGradient6076"><stop style="stop-color:#fff;stop-opacity:1" id="stop6078" offset="0"/><stop style="stop-color:#cbcbcb;stop-opacity:1" id="stop6080" offset="1"/></linearGradient><filter id="filter6052" width="1.283" height="2.415" x="-.141" y="-.707"><feGaussianBlur id="feGaussianBlur6054" stdDeviation="1.179"/></filter><linearGradient id="linearGradient5911"><stop style="stop-color:#fcaf3e;stop-opacity:1" id="stop5913" offset="0"/><stop style="stop-color:#f57900;stop-opacity:1" id="stop5915" offset="1"/></linearGradient><linearGradient id="linearGradient5946"><stop style="stop-color:#fff;stop-opacity:1" id="stop5948" offset="0"/><stop style="stop-color:#fff;stop-opacity:0" id="stop5950" offset="1"/></linearGradient><linearGradient id="linearGradient5893"><stop style="stop-color:#fcaf3e;stop-opacity:1" id="stop5895" offset="0"/><stop style="stop-color:#f57900;stop-opacity:1" id="stop5897" offset="1"/></linearGradient><linearGradient id="linearGradient5899" x1="7.577" x2="10.685" y1="5.133" y2="10.741" gradientTransform="matrix(0.9079916,0,0,0.9079992,14.279699,1.2332336)" gradientUnits="userSpaceOnUse" xlink:href="#linearGradient5893"/><linearGradient id="linearGradient5952" x1="14.217" x2="7.735" y1="5.273" y2="9.067" gradientTransform="translate(13,0)" gradientUnits="userSpaceOnUse" xlink:href="#linearGradient5946"/><linearGradient id="linearGradient6830" x1="43.282" x2="28.477" y1="37.464" y2="37.465" gradientTransform="matrix(0.5044,0,0,0.789146,-3.3886096,-9.1055033)" gradientUnits="userSpaceOnUse" xlink:href="#linearGradient6672"/><linearGradient id="linearGradient6815" x1="43.282" x2="28.477" y1="37.464" y2="37.465" gradientTransform="matrix(0.5044,0,0,0.789146,-3.3886096,-9.1055033)" gradientUnits="userSpaceOnUse" xlink:href="#linearGradient6672"/><linearGradient id="linearGradient6789" x1="9.295" x2="13.387" y1="5.661" y2="33.642" gradientUnits="userSpaceOnUse" xlink:href="#linearGradient5912"/><linearGradient id="linearGradient6753" x1="43.282" x2="28.477" y1="37.464" y2="37.465" gradientTransform="matrix(0.6345368,0,0,0.5552197,-43.62219,-25.574755)" gradientUnits="userSpaceOnUse" xlink:href="#linearGradient6672"/><linearGradient id="linearGradient6748" x1="9.295" x2="13.387" y1="5.661" y2="33.642" gradientUnits="userSpaceOnUse" xlink:href="#linearGradient5912"/><radialGradient id="radialGradient6746" cx="23.946" cy="24.538" r="21.456" fx="23.946" fy="24.538" gradientUnits="userSpaceOnUse" xlink:href="#linearGradient6565"/><linearGradient id="linearGradient6714" x1="43.205" x2="28.453" y1="37.464" y2="37.465" gradientUnits="userSpaceOnUse" xlink:href="#linearGradient6672"/><linearGradient id="linearGradient6712" x1="9.295" x2="13.387" y1="5.661" y2="33.642" gradientUnits="userSpaceOnUse" xlink:href="#linearGradient5912"/><radialGradient id="radialGradient6710" cx="23.946" cy="24.538" r="21.456" fx="23.946" fy="24.538" gradientUnits="userSpaceOnUse" xlink:href="#linearGradient6565"/><linearGradient id="linearGradient5912"><stop id="stop5914" offset="0" style="stop-color:#ebebe8;stop-opacity:1"/><stop id="stop5916" offset="1" style="stop-color:#eeeeec;stop-opacity:1"/></linearGradient><linearGradient id="linearGradient6672"><stop id="stop6674" offset="0" style="stop-color:#fff;stop-opacity:1"/><stop id="stop6676" offset="1" style="stop-color:#fff;stop-opacity:0"/></linearGradient><linearGradient id="linearGradient6831" x1="10.455" x2="10.455" y1="21.968" y2="30.653" gradientTransform="matrix(0.7366842,0,0,0.7334118,6.3447105,2.8660134)" gradientUnits="userSpaceOnUse" xlink:href="#linearGradient5911"/><linearGradient id="linearGradient7808" x1="11.11" x2="6.663" y1="19.358" y2="19.358" gradientUnits="userSpaceOnUse" xlink:href="#linearGradient7802"/><linearGradient id="linearGradient4992" x1="36.211" x2="18.193" y1="37.921" y2="11.671" gradientTransform="matrix(0.4414185,0,0,0.4427573,9.458617,9.1354559)" gradientUnits="userSpaceOnUse" xlink:href="#linearGradient8146"/></defs><metadata id="metadata6"/><g id="layer1"><rect id="rect8045" width="20" height="4" x="25" y="41" rx="1.494" ry="1.625" transform="matrix(1.0940801,0,0,1.0064912,-25.27834,-19.292102)" style="opacity:.27074238;color:#000;fill:#000;fill-opacity:1;fill-rule:evenodd;stroke:none;stroke-width:.9999997px;stroke-linecap:butt;stroke-linejoin:miter;marker:none;marker-start:none;marker-mid:none;marker-end:none;stroke-miterlimit:4;stroke-dasharray:none;stroke-dashoffset:0;stroke-opacity:1;visibility:visible;display:inline;overflow:visible;filter:url(#filter6052);enable-background:accumulate"/><path style="color:#000;fill:url(#linearGradient8459);fill-opacity:1;fill-rule:evenodd;stroke:#888a85;stroke-width:.9999997px;stroke-linecap:butt;stroke-linejoin:miter;marker:none;marker-start:none;marker-mid:none;marker-end:none;stroke-miterlimit:4;stroke-dashoffset:0;stroke-opacity:1;visibility:visible;display:inline;overflow:visible;enable-background:accumulate" id="path8047" d="M 4.2367299,1.4999999 L 18.172488,1.4999999 L 22.5,5.7473631 L 22.5,23.828524 C 22.5,24.915513 21.881348,25.499999 20.762335,25.499999 L 4.2367299,25.499999 C 3.1177167,25.499999 2.4990646,24.915513 2.4990646,23.828524 L 2.4990646,3.1714746 C 2.4990646,2.0844862 3.1177167,1.4999999 4.2367299,1.4999999 z"/><g id="g4983" transform="matrix(0.7923631,0,0,0.7901153,-2.8700214,-1.8023059)" style="opacity:.60262009"><path id="path4969" d="M 20.028725,10.500001 C 14.80058,10.500001 10.557448,14.755999 10.557448,20 C 10.557448,25.243999 14.80058,29.499999 20.028725,29.499999 C 25.256869,29.499999 29.5,25.243999 29.5,20 C 29.5,14.755999 25.256869,10.500001 20.028725,10.500001 z M 20.028725,17.484489 C 21.413088,17.484489 22.536631,18.611437 22.536631,20 C 22.536631,21.388563 21.413088,22.51551 20.028725,22.51551 C 18.644361,22.51551 17.520819,21.388563 17.520819,20 C 17.520819,18.611437 18.644361,17.484489 20.028725,17.484489 z" style="color:#000;fill:url(#linearGradient4992);fill-opacity:1;fill-rule:evenodd;stroke:#888a85;stroke-width:1.26384223px;stroke-linecap:round;stroke-linejoin:miter;marker:none;marker-start:none;marker-mid:none;marker-end:none;stroke-miterlimit:4;stroke-dasharray:none;stroke-dashoffset:0;stroke-opacity:1;visibility:visible;display:inline;overflow:visible;enable-background:accumulate"/><path id="path4971" d="M 20.004564,14.950421 C 17.247084,14.950421 15.009129,17.187742 15.009129,19.944444 C 15.009129,22.701146 17.247084,24.938467 20.004564,24.938467 C 22.762045,24.938467 25,22.701146 25,19.944444 C 25,17.187742 22.762045,14.950421 20.004564,14.950421 z M 20.004564,16.885605 C 21.687397,16.885605 23.064268,18.262088 23.064268,19.944444 C 23.064268,21.6268 21.687397,23.003283 20.004564,23.003283 C 18.321732,23.003283 16.944861,21.6268 16.944861,19.944444 C 16.944861,18.262088 18.321732,16.885605 20.004564,16.885605 z" style="color:#000;fill:#000;fill-opacity:.1081081;fill-rule:evenodd;stroke:none;stroke-width:2.52428889px;stroke-linecap:round;stroke-linejoin:miter;marker:none;marker-start:none;marker-mid:none;marker-end:none;stroke-miterlimit:4;stroke-dasharray:none;stroke-dashoffset:0;stroke-opacity:1;visibility:visible;display:inline;overflow:visible;enable-background:accumulate"/><path id="path4973" d="M 45.402216 24.538368 A 21.456448 21.456448 0 1 1 2.4893208,24.538368 A 21.456448 21.456448 0 1 1 45.402216 24.538368 z" transform="matrix(0.3823238,0,0,0.3834114,10.873687,10.591709)" style="color:#000;fill:none;fill-opacity:1;fill-rule:evenodd;stroke:#fff;stroke-width:3.30099225px;stroke-linecap:round;stroke-linejoin:miter;marker:none;marker-start:none;marker-mid:none;marker-end:none;stroke-miterlimit:4;stroke-dasharray:none;stroke-dashoffset:0;stroke-opacity:.56756759;visibility:visible;display:inline;overflow:visible;enable-background:accumulate"/><path style="color:#000;fill:none;fill-opacity:1;fill-rule:evenodd;stroke:#fff;stroke-width:7.75910378px;stroke-linecap:round;stroke-linejoin:miter;marker:none;marker-start:none;marker-mid:none;marker-end:none;stroke-miterlimit:4;stroke-dasharray:none;stroke-dashoffset:0;stroke-opacity:.42342344;visibility:visible;display:inline;overflow:visible;enable-background:accumulate" id="path4975" d="M 45.402216 24.538368 A 21.456448 21.456448 0 1 1 2.4893208,24.538368 A 21.456448 21.456448 0 1 1 45.402216 24.538368 z" transform="matrix(0.1629084,0,0,0.1628618,16.103596,15.94808)"/><path style="fill:#fff;fill-opacity:.28828831;fill-rule:evenodd;stroke:none;stroke-width:1px;stroke-linecap:butt;stroke-linejoin:miter;stroke-opacity:1;display:inline" id="path4977" d="M 28.664543,17.557514 C 28.169215,15.929678 27.169441,14.453976 25.910577,13.372591 C 24.983458,14.480085 23.379758,16.460551 21.613737,18.531524 C 21.902155,18.766124 22.124329,19.078416 22.230747,19.444868 L 28.664543,17.557514 z M 18.794385,21.684129 C 18.563506,21.474815 18.382553,21.213903 18.280217,20.912291 L 11.717896,22.907198 C 12.231968,24.465498 13.170301,25.828458 14.391588,26.869329 C 15.42198,25.669562 16.897173,23.900483 18.794385,21.684129 z"/><path id="path4979" d="M 17.313718,11.269848 C 15.534344,11.797477 13.967933,12.804356 12.785872,14.145324 C 13.996474,15.132924 16.357694,17.083952 18.621437,18.965172 C 18.877879,18.657935 19.219244,18.421275 19.619812,18.307917 L 17.313718,11.269848 z M 21.672817,21.512021 C 21.444007,21.757962 21.158804,21.950711 20.82912,22.059728 L 23.163342,29.221033 C 24.866698,28.673428 26.356552,27.673893 27.494315,26.372942 C 26.182857,25.275343 24.09549,23.532993 21.672817,21.512021 z" style="fill:#000;fill-opacity:.08108108;fill-rule:evenodd;stroke:none;stroke-width:1px;stroke-linecap:butt;stroke-linejoin:miter;stroke-opacity:1;display:inline"/><path id="path4981" d="M 17.717531,21.872405 L 12.496669,24.977818 M 25.621269,13.66095 L 21.742355,18.327918" style="fill:none;fill-opacity:1;fill-rule:evenodd;stroke:#fff;stroke-width:1.26384163px;stroke-linecap:butt;stroke-linejoin:miter;stroke-opacity:.36486487;display:inline"/></g><path id="path8061" d="M 5.1451772,2.4999999 L 17.582688,2.4999999 L 21.500001,6.4034554 L 21.458249,23.295502 C 21.458249,24.40262 21.114469,24.500001 19.969617,24.500001 L 4.944021,24.500001 C 3.799167,24.500001 3.5,23.819667 3.5,22.712551 L 3.5,3.9150275 C 3.5,2.8079104 4.0003231,2.4999999 5.1451772,2.4999999 z" style="color:#000;fill:none;fill-opacity:1;fill-rule:evenodd;stroke:#fff;stroke-width:.99999988;stroke-linecap:butt;stroke-linejoin:miter;marker:none;marker-start:none;marker-mid:none;marker-end:none;stroke-miterlimit:4;stroke-dasharray:none;stroke-dashoffset:0;stroke-opacity:1;visibility:visible;display:inline;overflow:visible;enable-background:accumulate"/><path id="path8063" d="M 17.896666,2.7626128 L 22.086005,7.0305248 L 22.101179,9 L 17.927129,9 L 17.896666,2.7626128 z" style="fill:url(#linearGradient8457);fill-opacity:1;fill-rule:evenodd;stroke:none;stroke-width:1px;stroke-linecap:butt;stroke-linejoin:miter;stroke-opacity:1;display:inline"/><path style="fill:url(#linearGradient8453);fill-opacity:1;fill-rule:evenodd;stroke:url(#linearGradient8455);stroke-width:.99999994px;stroke-linecap:butt;stroke-linejoin:miter;stroke-opacity:1;display:inline" id="path8065" d="M 22.282699,6.5504514 L 17.506364,6.5504514 L 17.476215,1.6537745"/><path id="path7228" d="M 45.402216 24.538368 A 21.456448 21.456448 0 1 1 2.4893208,24.538368 A 21.456448 21.456448 0 1 1 45.402216 24.538368 z" transform="matrix(0.4683141,0,0,0.2071379,8.744896,21.528284)" style="opacity:.38864632;color:#000;fill:url(#radialGradient8451);fill-opacity:1;fill-rule:evenodd;stroke:none;stroke-width:1.50133264px;stroke-linecap:round;stroke-linejoin:miter;marker:none;marker-start:none;marker-mid:none;marker-end:none;stroke-miterlimit:4;stroke-dasharray:none;stroke-dashoffset:0;stroke-opacity:1;visibility:visible;display:inline;overflow:visible;enable-background:accumulate"/><path id="path7230" d="M 20.028725,10.500001 C 14.80058,10.500001 10.557448,14.755999 10.557448,20 C 10.557448,25.243999 14.80058,29.499999 20.028725,29.499999 C 25.256869,29.499999 29.5,25.243999 29.5,20 C 29.5,14.755999 25.256869,10.500001 20.028725,10.500001 z M 20.028725,17.484489 C 21.413088,17.484489 22.536631,18.611437 22.536631,20 C 22.536631,21.388563 21.413088,22.51551 20.028725,22.51551 C 18.644361,22.51551 17.520819,21.388563 17.520819,20 C 17.520819,18.611437 18.644361,17.484489 20.028725,17.484489 z" style="color:#000;fill:url(#linearGradient8449);fill-opacity:1;fill-rule:evenodd;stroke:#888a85;stroke-width:1.00000036px;stroke-linecap:round;stroke-linejoin:miter;marker:none;marker-start:none;marker-mid:none;marker-end:none;stroke-miterlimit:4;stroke-dasharray:none;stroke-dashoffset:0;stroke-opacity:1;visibility:visible;display:inline;overflow:visible;enable-background:accumulate"/><path id="path7232" d="M 20.004564,14.950421 C 17.247084,14.950421 15.009129,17.187742 15.009129,19.944444 C 15.009129,22.701146 17.247084,24.938467 20.004564,24.938467 C 22.762045,24.938467 25,22.701146 25,19.944444 C 25,17.187742 22.762045,14.950421 20.004564,14.950421 z M 20.004564,16.885605 C 21.687397,16.885605 23.064268,18.262088 23.064268,19.944444 C 23.064268,21.6268 21.687397,23.003283 20.004564,23.003283 C 18.321732,23.003283 16.944861,21.6268 16.944861,19.944444 C 16.944861,18.262088 18.321732,16.885605 20.004564,16.885605 z" style="color:#000;fill:#000;fill-opacity:.1081081;fill-rule:evenodd;stroke:none;stroke-width:2.52428889px;stroke-linecap:round;stroke-linejoin:miter;marker:none;marker-start:none;marker-mid:none;marker-end:none;stroke-miterlimit:4;stroke-dasharray:none;stroke-dashoffset:0;stroke-opacity:1;visibility:visible;display:inline;overflow:visible;enable-background:accumulate"/><path id="path7234" d="M 45.402216 24.538368 A 21.456448 21.456448 0 1 1 2.4893208,24.538368 A 21.456448 21.456448 0 1 1 45.402216 24.538368 z" transform="matrix(0.3961513,0,0,0.3961513,10.513852,10.279093)" style="color:#000;fill:none;fill-opacity:1;fill-rule:evenodd;stroke:#fff;stroke-width:2.52428818px;stroke-linecap:round;stroke-linejoin:miter;marker:none;marker-start:none;marker-mid:none;marker-end:none;stroke-miterlimit:4;stroke-dasharray:none;stroke-dashoffset:0;stroke-opacity:.56756759;visibility:visible;display:inline;overflow:visible;enable-background:accumulate"/><path style="color:#000;fill:none;fill-opacity:1;fill-rule:evenodd;stroke:#fff;stroke-width:6.13930082px;stroke-linecap:round;stroke-linejoin:miter;marker:none;marker-start:none;marker-mid:none;marker-end:none;stroke-miterlimit:4;stroke-dasharray:none;stroke-dashoffset:0;stroke-opacity:.42342344;visibility:visible;display:inline;overflow:visible;enable-background:accumulate" id="path7236" d="M 45.402216 24.538368 A 21.456448 21.456448 0 1 1 2.4893208,24.538368 A 21.456448 21.456448 0 1 1 45.402216 24.538368 z" transform="matrix(0.1629084,0,0,0.1628618,16.103596,15.94808)"/><path style="fill:#fff;fill-opacity:.28828831;fill-rule:evenodd;stroke:none;stroke-width:1px;stroke-linecap:butt;stroke-linejoin:miter;stroke-opacity:1;display:inline" id="path7238" d="M 28.664543,17.557514 C 28.169215,15.929678 27.169441,14.453976 25.910577,13.372591 C 24.983458,14.480085 23.379758,16.460551 21.613737,18.531524 C 21.902155,18.766124 22.124329,19.078416 22.230747,19.444868 L 28.664543,17.557514 z M 18.794385,21.684129 C 18.563506,21.474815 18.382553,21.213903 18.280217,20.912291 L 11.717896,22.907198 C 12.231968,24.465498 13.170301,25.828458 14.391588,26.869329 C 15.42198,25.669562 16.897173,23.900483 18.794385,21.684129 z"/><path id="path7240" d="M 17.313718,11.269848 C 15.534344,11.797477 13.967933,12.804356 12.785872,14.145324 C 13.996474,15.132924 16.357694,17.083952 18.621437,18.965172 C 18.877879,18.657935 19.219244,18.421275 19.619812,18.307917 L 17.313718,11.269848 z M 21.672817,21.512021 C 21.444007,21.757962 21.158804,21.950711 20.82912,22.059728 L 23.163342,29.221033 C 24.866698,28.673428 26.356552,27.673893 27.494315,26.372942 C 26.182857,25.275343 24.09549,23.532993 21.672817,21.512021 z" style="fill:#000;fill-opacity:.08108108;fill-rule:evenodd;stroke:none;stroke-width:1px;stroke-linecap:butt;stroke-linejoin:miter;stroke-opacity:1;display:inline"/><path id="path7242" d="M 17.717531,21.872405 L 12.496669,24.977818 M 25.621269,13.66095 L 21.742355,18.327918" style="fill:none;fill-opacity:1;fill-rule:evenodd;stroke:#fff;stroke-width:.99999994px;stroke-linecap:butt;stroke-linejoin:miter;stroke-opacity:.36486487;display:inline"/><path style="fill:url(#linearGradient6831);fill-opacity:1;stroke:url(#linearGradient7808);stroke-width:.99999982;stroke-opacity:1" id="rect4933" d="M 12.145986,15.317457 L 12.145986,17.52621 L 7.6198899,17.52621 C 7.0077031,17.52621 6.5148637,18.01686 6.5148637,18.626328 L 6.5148637,21.447496 C 6.5148637,22.056963 7.0077031,22.547614 7.6198899,22.547614 L 12.145986,22.547614 L 12.145986,24.861616 L 18.499999,20.107554 L 12.145986,15.317457 z"/><path id="path5909" d="M 13.11294,17.27731 L 13.11294,18.490647 L 8.0995203,18.490647 C 7.4873335,18.490647 7.6203075,18.981297 7.6203075,19.590765 L 7.6203075,20.41192 C 7.6203075,21.021387 7.5289097,21.512037 8.1410965,21.512037 L 13.11294,21.512037 L 13.11294,22.755343 L 16.871093,20.131468 L 13.11294,17.27731 z" style="fill:none;fill-opacity:1;stroke:#fff;stroke-width:.99999982;stroke-opacity:.31531528"/></g></svg>