<svg xmlns="http://www.w3.org/2000/svg" xmlns:cc="http://web.resource.org/cc/" xmlns:svg="http://www.w3.org/2000/svg" xmlns:xlink="http://www.w3.org/1999/xlink" id="svg2" width="48" height="48" version="1.0"><defs id="defs3"><linearGradient id="linearGradient5976"><stop style="stop-color:#f5f5f3;stop-opacity:1" id="stop5978" offset="0"/><stop style="stop-color:#eeeeec;stop-opacity:1" id="stop5980" offset="1"/></linearGradient><linearGradient id="linearGradient8159"><stop style="stop-color:#ce5c00;stop-opacity:1" id="stop8161" offset="0"/><stop style="stop-color:#ce5c00;stop-opacity:0" id="stop8163" offset="1"/></linearGradient><linearGradient id="linearGradient6565"><stop style="stop-color:#000;stop-opacity:1" id="stop6567" offset="0"/><stop style="stop-color:#000;stop-opacity:0" id="stop6569" offset="1"/></linearGradient><linearGradient id="linearGradient8146"><stop id="stop8148" offset="0" style="stop-color:#ebebe8;stop-opacity:1"/><stop id="stop8150" offset="1" style="stop-color:#fbfbfb;stop-opacity:1"/></linearGradient><linearGradient id="linearGradient7944"><stop id="stop7946" offset="0" style="stop-color:#dededa;stop-opacity:1"/><stop id="stop7948" offset="1" style="stop-color:#fff;stop-opacity:1"/></linearGradient><linearGradient id="linearGradient6108"><stop style="stop-color:#000;stop-opacity:1" id="stop6110" offset="0"/><stop style="stop-color:#000;stop-opacity:0" id="stop6112" offset="1"/></linearGradient><linearGradient id="linearGradient4919"><stop style="stop-color:#888a85;stop-opacity:1" id="stop4921" offset="0"/><stop style="stop-color:#888a85;stop-opacity:0" id="stop4923" offset="1"/></linearGradient><linearGradient id="linearGradient6076"><stop style="stop-color:#fff;stop-opacity:1" id="stop6078" offset="0"/><stop style="stop-color:#cbcbcb;stop-opacity:1" id="stop6080" offset="1"/></linearGradient><filter id="filter6052" width="1.283" height="2.415" x="-.141" y="-.707"><feGaussianBlur id="feGaussianBlur6054" stdDeviation="1.179"/></filter><linearGradient id="linearGradient5911"><stop style="stop-color:#fcaf3e;stop-opacity:1" id="stop5913" offset="0"/><stop style="stop-color:#f57900;stop-opacity:1" id="stop5915" offset="1"/></linearGradient><linearGradient id="linearGradient5946"><stop style="stop-color:#fff;stop-opacity:1" id="stop5948" offset="0"/><stop style="stop-color:#fff;stop-opacity:0" id="stop5950" offset="1"/></linearGradient><linearGradient id="linearGradient5893"><stop style="stop-color:#fcaf3e;stop-opacity:1" id="stop5895" offset="0"/><stop style="stop-color:#f57900;stop-opacity:1" id="stop5897" offset="1"/></linearGradient><linearGradient id="linearGradient5899" x1="7.577" x2="10.685" y1="5.133" y2="10.741" gradientTransform="matrix(0.9079916,0,0,0.9079992,14.279699,1.2332336)" gradientUnits="userSpaceOnUse" xlink:href="#linearGradient5893"/><linearGradient id="linearGradient5952" x1="14.217" x2="7.735" y1="5.273" y2="9.067" gradientTransform="translate(13,0)" gradientUnits="userSpaceOnUse" xlink:href="#linearGradient5946"/><linearGradient id="linearGradient6830" x1="43.282" x2="28.477" y1="37.464" y2="37.465" gradientTransform="matrix(0.5044,0,0,0.789146,-3.3886096,-9.1055033)" gradientUnits="userSpaceOnUse" xlink:href="#linearGradient6672"/><linearGradient id="linearGradient6815" x1="43.282" x2="28.477" y1="37.464" y2="37.465" gradientTransform="matrix(0.5044,0,0,0.789146,-3.3886096,-9.1055033)" gradientUnits="userSpaceOnUse" xlink:href="#linearGradient6672"/><linearGradient id="linearGradient6789" x1="9.295" x2="13.387" y1="5.661" y2="33.642" gradientUnits="userSpaceOnUse" xlink:href="#linearGradient5912"/><linearGradient id="linearGradient6753" x1="43.282" x2="28.477" y1="37.464" y2="37.465" gradientTransform="matrix(0.6345368,0,0,0.5552197,-43.62219,-25.574755)" gradientUnits="userSpaceOnUse" xlink:href="#linearGradient6672"/><linearGradient id="linearGradient6748" x1="9.295" x2="13.387" y1="5.661" y2="33.642" gradientUnits="userSpaceOnUse" xlink:href="#linearGradient5912"/><radialGradient id="radialGradient6746" cx="23.946" cy="24.538" r="21.456" fx="23.946" fy="24.538" gradientUnits="userSpaceOnUse" xlink:href="#linearGradient6565"/><linearGradient id="linearGradient6714" x1="43.205" x2="28.453" y1="37.464" y2="37.465" gradientUnits="userSpaceOnUse" xlink:href="#linearGradient6672"/><linearGradient id="linearGradient6712" x1="9.295" x2="13.387" y1="5.661" y2="33.642" gradientUnits="userSpaceOnUse" xlink:href="#linearGradient5912"/><radialGradient id="radialGradient6710" cx="23.946" cy="24.538" r="21.456" fx="23.946" fy="24.538" gradientUnits="userSpaceOnUse" xlink:href="#linearGradient6565"/><linearGradient id="linearGradient5912"><stop id="stop5914" offset="0" style="stop-color:#ebebe8;stop-opacity:1"/><stop id="stop5916" offset="1" style="stop-color:#eeeeec;stop-opacity:1"/></linearGradient><linearGradient id="linearGradient6672"><stop id="stop6674" offset="0" style="stop-color:#fff;stop-opacity:1"/><stop id="stop6676" offset="1" style="stop-color:#fff;stop-opacity:0"/></linearGradient><linearGradient id="linearGradient7892" x1="43.282" x2="28.477" y1="37.464" y2="37.465" gradientTransform="matrix(0.5044,0,0,0.789146,-3.3886096,-9.1055033)" gradientUnits="userSpaceOnUse" xlink:href="#linearGradient6672"/><linearGradient id="linearGradient7890" x1="43.282" x2="28.477" y1="37.464" y2="37.465" gradientTransform="matrix(0.5044,0,0,0.789146,-3.3886096,-9.1055033)" gradientUnits="userSpaceOnUse" xlink:href="#linearGradient6672"/><linearGradient id="linearGradient7888" x1="9.295" x2="13.387" y1="5.661" y2="33.642" gradientUnits="userSpaceOnUse" xlink:href="#linearGradient5912"/><linearGradient id="linearGradient7886" x1="43.282" x2="28.477" y1="37.464" y2="37.465" gradientTransform="matrix(0.6345368,0,0,0.5552197,-43.62219,-25.574755)" gradientUnits="userSpaceOnUse" xlink:href="#linearGradient6672"/><linearGradient id="linearGradient7884" x1="9.295" x2="13.387" y1="5.661" y2="33.642" gradientUnits="userSpaceOnUse" xlink:href="#linearGradient5912"/><radialGradient id="radialGradient7882" cx="23.946" cy="24.538" r="21.456" fx="23.946" fy="24.538" gradientUnits="userSpaceOnUse" xlink:href="#linearGradient6565"/><linearGradient id="linearGradient7880" x1="43.205" x2="28.453" y1="37.464" y2="37.465" gradientUnits="userSpaceOnUse" xlink:href="#linearGradient6672"/><linearGradient id="linearGradient7878" x1="9.295" x2="13.387" y1="5.661" y2="33.642" gradientUnits="userSpaceOnUse" xlink:href="#linearGradient5912"/><radialGradient id="radialGradient7876" cx="23.946" cy="24.538" r="21.456" fx="23.946" fy="24.538" gradientUnits="userSpaceOnUse" xlink:href="#linearGradient6565"/><linearGradient id="linearGradient7286" x1="9.295" x2="13.387" y1="5.661" y2="33.642" gradientTransform="matrix(0.6772076,0,0,0.6757875,-0.246726,-1.5827234)" gradientUnits="userSpaceOnUse" xlink:href="#linearGradient5912"/><radialGradient id="radialGradient7284" cx="23.946" cy="24.538" r="21.456" fx="23.946" fy="24.538" gradientUnits="userSpaceOnUse" xlink:href="#linearGradient6565"/><linearGradient id="linearGradient5917" x1="10.455" x2="10.455" y1="21.968" y2="30.653" gradientTransform="matrix(0.8125,0,0,0.8099873,9.375006e-2,-4.6747784)" gradientUnits="userSpaceOnUse" xlink:href="#linearGradient5911"/><linearGradient id="linearGradient8073" x1="2.5" x2="14.562" y1="-5.263" y2="19.56" gradientTransform="matrix(1.5441219,0,0,1.4501245,-3.154498,-0.6751875)" gradientUnits="userSpaceOnUse" xlink:href="#linearGradient7944"/><linearGradient id="linearGradient8071" x1="16.552" x2="16.552" y1="2.963" y2="7.836" gradientTransform="matrix(0.980392,0,0,1.298668,8.294116,-0.389344)" gradientUnits="userSpaceOnUse" xlink:href="#linearGradient6108"/><linearGradient id="linearGradient8069" x1="18.977" x2="14.121" y1="6.559" y2="2.942" gradientTransform="matrix(0.9796071,0,0,1.0993378,7.316088,0.3543044)" gradientUnits="userSpaceOnUse" xlink:href="#linearGradient4919"/><linearGradient id="linearGradient8067" x1="17.688" x2="18.562" y1="4.528" y2="3.749" gradientTransform="matrix(1.3198145,0,0,1.4683021,0.723059,-1.3031638)" gradientUnits="userSpaceOnUse" xlink:href="#linearGradient6076"/><radialGradient id="radialGradient8065" cx="23.946" cy="24.538" r="21.456" fx="23.946" fy="24.538" gradientUnits="userSpaceOnUse" xlink:href="#linearGradient6565"/><linearGradient id="linearGradient8063" x1="36.211" x2="18.193" y1="37.921" y2="11.671" gradientTransform="matrix(0.3961512,0,0,0.3961513,6.513854,7.2790932)" gradientUnits="userSpaceOnUse" xlink:href="#linearGradient8146"/><linearGradient id="linearGradient8447" x1="1.336" x2="17.012" y1="-6.134" y2="20.402" gradientTransform="matrix(1.0531984,0,0,0.9993944,-2.09057,-0.9990927)" gradientUnits="userSpaceOnUse" xlink:href="#linearGradient7944"/><linearGradient id="linearGradient8445" x1="11.823" x2="33.184" y1="5.084" y2="41.243" gradientTransform="matrix(0.3033479,0,0,0.3029358,3.74154,3.5628872)" gradientUnits="userSpaceOnUse" xlink:href="#linearGradient7954"/><linearGradient id="linearGradient8443" x1="16.552" x2="16.552" y1="2.963" y2="7.836" gradientTransform="matrix(0.7843136,0,0,0.8225202,3.72414,0.4445121)" gradientUnits="userSpaceOnUse" xlink:href="#linearGradient6108"/><linearGradient id="linearGradient8441" x1="18.977" x2="14.121" y1="6.559" y2="2.942" gradientTransform="matrix(0.9083429,0,0,0.8844596,0.42068,-0.2489868)" gradientUnits="userSpaceOnUse" xlink:href="#linearGradient4919"/><linearGradient id="linearGradient8439" x1="17.688" x2="18.562" y1="4.528" y2="3.749" gradientTransform="matrix(1.2238011,0,0,1.1813056,-5.69272,-1.5824842)" gradientUnits="userSpaceOnUse" xlink:href="#linearGradient6076"/><radialGradient id="radialGradient8437" cx="36.62" cy="7.221" r="5.171" fx="36.62" fy="7.221" gradientUnits="userSpaceOnUse" xlink:href="#linearGradient6343"/><linearGradient id="linearGradient8433" x1="-1.358" x2="17.17" y1="-13.379" y2="20.088" gradientTransform="matrix(2.1617708,0,0,2.0501246,-62.81629,-1.5751872)" gradientUnits="userSpaceOnUse" xlink:href="#linearGradient7944"/><linearGradient id="linearGradient8431" x1="16.552" x2="16.552" y1="-.562" y2="7.836" gradientTransform="matrix(0.9803921,0,0,1.0330341,-38.70588,1.3039237)" gradientUnits="userSpaceOnUse" xlink:href="#linearGradient6108"/><linearGradient id="linearGradient8429" x1="18.977" x2="14.121" y1="6.559" y2="2.942" gradientTransform="matrix(1.0283037,0,0,1.1842757,-40.43871,6.89833e-2)" gradientUnits="userSpaceOnUse" xlink:href="#linearGradient4919"/><linearGradient id="linearGradient8427" x1="17.688" x2="18.562" y1="4.528" y2="3.749" gradientTransform="matrix(1.3854229,0,0,1.5817473,-47.35948,-1.7165453)" gradientUnits="userSpaceOnUse" xlink:href="#linearGradient6076"/><radialGradient id="radialGradient8425" cx="23.946" cy="24.538" r="21.456" fx="23.946" fy="24.538" gradientUnits="userSpaceOnUse" xlink:href="#linearGradient6565"/><linearGradient id="linearGradient8423" x1="36.211" x2="18.193" y1="37.921" y2="11.671" gradientTransform="matrix(0.5825754,0,0,0.5825756,-49.95022,8.704547)" gradientUnits="userSpaceOnUse" xlink:href="#linearGradient8146"/><radialGradient id="radialGradient8421" cx="36.62" cy="7.221" r="5.171" fx="36.62" fy="7.221" gradientUnits="userSpaceOnUse" xlink:href="#linearGradient6343"/><linearGradient id="linearGradient8045" x1="43.282" x2="28.477" y1="37.464" y2="37.465" gradientTransform="matrix(0.5044,0,0,0.789146,-3.3886096,-9.1055033)" gradientUnits="userSpaceOnUse" xlink:href="#linearGradient6672"/><linearGradient id="linearGradient8043" x1="9.295" x2="13.387" y1="5.661" y2="33.642" gradientTransform="matrix(0.4893634,0,0,0.4893634,107.28182,-91.008179)" gradientUnits="userSpaceOnUse" xlink:href="#linearGradient5912"/><linearGradient id="linearGradient6343"><stop id="stop6345" offset="0" style="stop-color:#fce94f;stop-opacity:1"/><stop id="stop6347" offset="1" style="stop-color:#fce94f;stop-opacity:0"/></linearGradient><linearGradient id="linearGradient7954"><stop style="stop-color:#fff;stop-opacity:1" id="stop7956" offset="0"/><stop style="stop-color:#e4e4e1;stop-opacity:1" id="stop7958" offset="1"/></linearGradient><linearGradient id="linearGradient8132" x1="50.975" x2="53.43" y1="5.791" y2="3.485" gradientTransform="matrix(1.3468435,0,0,1.4984751,-38.589716,1.4177383)" gradientUnits="userSpaceOnUse" xlink:href="#linearGradient6076"/><linearGradient id="linearGradient8134" x1="65.721" x2="58.579" y1="8.066" y2="6.654" gradientTransform="matrix(0.9996689,0,0,1.1219288,-31.861666,3.1092675)" gradientUnits="userSpaceOnUse" xlink:href="#linearGradient4919"/><linearGradient id="linearGradient8137" x1="16.552" x2="16.552" y1="2.963" y2="7.27" gradientTransform="matrix(1.0004699,0,0,1.403001,-30.862476,2.3666978)" gradientUnits="userSpaceOnUse" xlink:href="#linearGradient6108"/><linearGradient id="linearGradient8141" x1="27.452" x2="41.142" y1="-5.734" y2="16.944" gradientTransform="matrix(1.4820734,0,0,1.4482547,-40.471649,2.3251288)" gradientUnits="userSpaceOnUse" xlink:href="#linearGradient7944"/><linearGradient id="linearGradient8147" x1="10.455" x2="10.455" y1="21.968" y2="30.653" gradientTransform="matrix(0.8125,0,0,0.8099873,13.150939,11.325222)" gradientUnits="userSpaceOnUse" xlink:href="#linearGradient5911"/><linearGradient id="linearGradient8156" x1="9.295" x2="13.387" y1="5.661" y2="33.642" gradientTransform="matrix(0.6772076,0,0,0.6757875,14.810463,13.417277)" gradientUnits="userSpaceOnUse" xlink:href="#linearGradient5976"/><linearGradient id="linearGradient8165" x1="16.807" x2="11.983" y1="29.279" y2="29.279" gradientUnits="userSpaceOnUse" xlink:href="#linearGradient8159"/><linearGradient id="linearGradient5056" x1="9.295" x2="13.387" y1="5.661" y2="33.642" gradientTransform="matrix(0.5562486,0,0,0.551242,7.11129,9.8011168)" gradientUnits="userSpaceOnUse" xlink:href="#linearGradient5976"/></defs><metadata id="metadata6"/><g id="layer1"><rect id="rect8077" width="20" height="4" x="25" y="41" rx="1.055" ry="1.128" transform="matrix(1.5500001,0,0,1.449514,-33.750001,-25.228131)" style="opacity:.27074238;color:#000;fill:#000;fill-opacity:1;fill-rule:evenodd;stroke:none;stroke-width:.9999997px;stroke-linecap:butt;stroke-linejoin:miter;marker:none;marker-start:none;marker-mid:none;marker-end:none;stroke-miterlimit:4;stroke-dasharray:none;stroke-dashoffset:0;stroke-opacity:1;visibility:visible;display:inline;overflow:visible;filter:url(#filter6052);enable-background:accumulate"/><path style="color:#000;fill:url(#linearGradient8141);fill-opacity:1;fill-rule:evenodd;stroke:#888a85;stroke-width:.99999976px;stroke-linecap:butt;stroke-linejoin:miter;marker:none;marker-start:none;marker-mid:none;marker-end:none;stroke-miterlimit:4;stroke-dashoffset:0;stroke-opacity:1;visibility:visible;display:inline;overflow:visible;enable-background:accumulate" id="path8079" d="M 8.1128995,4.4975119 L 29.010582,4.4975119 L 35.5,10.692024 L 35.5,37.06226 C 35.5,38.647563 34.572286,39.500001 32.894245,39.500001 L 8.1128995,39.500001 C 6.4348579,39.500001 5.507144,38.647563 5.507144,37.06226 L 5.507144,6.9352527 C 5.507144,5.3499485 6.4348579,4.4975119 8.1128995,4.4975119 z"/><g id="g5046" transform="matrix(1,0,0,1.0133937,0,-0.1467848)" style="opacity:.52838428"><path style="color:#000;fill:url(#linearGradient5056);fill-opacity:1;fill-rule:evenodd;stroke:#888a85;stroke-width:.99336976px;stroke-linecap:round;stroke-linejoin:miter;marker:none;marker-start:none;marker-mid:none;marker-end:none;stroke-miterlimit:4;stroke-dasharray:none;stroke-dashoffset:0;stroke-opacity:1;visibility:visible;display:inline;overflow:visible;enable-background:accumulate" id="path5028" d="M 20.43045,11.5 C 13.842264,11.5 8.494689,16.798808 8.494689,23.327695 C 8.494689,29.856582 13.842264,35.15539 20.43045,35.15539 C 27.018635,35.15539 32.366209,29.856583 32.366209,23.327695 C 32.366209,16.798808 27.018635,11.5 20.43045,11.5 z M 20.456118,20.472734 C 22.043034,20.472734 23.330967,21.751756 23.330967,23.327695 C 23.330967,24.903632 22.043034,26.182656 20.456118,26.182656 C 18.8692,26.182657 17.581268,24.903633 17.581268,23.327695 C 17.581268,21.751756 18.8692,20.472734 20.456118,20.472734 z"/><path style="color:#000;fill:#000;fill-opacity:.1081081;fill-rule:evenodd;stroke:none;stroke-width:2.52428889px;stroke-linecap:round;stroke-linejoin:miter;marker:none;marker-start:none;marker-mid:none;marker-end:none;stroke-miterlimit:4;stroke-dasharray:none;stroke-dashoffset:0;stroke-opacity:1;visibility:visible;display:inline;overflow:visible;enable-background:accumulate" id="path5030" d="M 20.456118,17.617775 C 17.282284,17.617775 14.706418,20.17582 14.706418,23.327697 C 14.706418,26.479572 17.282284,29.037616 20.456118,29.037617 C 23.629951,29.037617 26.205818,26.479572 26.205817,23.327697 C 26.205817,20.17582 23.629951,17.617775 20.456118,17.617775 z M 20.456118,20.064883 C 22.273334,20.064883 23.74166,21.523051 23.74166,23.327697 C 23.74166,25.132342 22.273334,26.590509 20.456118,26.590509 C 18.6389,26.590509 17.170575,25.132342 17.170575,23.327697 C 17.170575,21.52305 18.638901,20.064883 20.456118,20.064883 z"/><path id="path5032" d="M 45.402216 24.538368 A 21.456448 21.456448 0 1 1 2.4893208,24.538368 A 21.456448 21.456448 0 1 1 45.402216 24.538368 z" transform="matrix(0.5137109,0,0,0.5058907,8.221209,10.920522)" style="color:#000;fill:none;fill-opacity:1;fill-rule:evenodd;stroke:#fff;stroke-width:1.94860256px;stroke-linecap:round;stroke-linejoin:miter;marker:none;marker-start:none;marker-mid:none;marker-end:none;stroke-miterlimit:4;stroke-dasharray:none;stroke-dashoffset:0;stroke-opacity:.56756759;visibility:visible;display:inline;overflow:visible;enable-background:accumulate"/><path style="color:#000;fill:none;fill-opacity:1;fill-rule:evenodd;stroke:#fff;stroke-width:5.78651428px;stroke-linecap:round;stroke-linejoin:miter;marker:none;marker-start:none;marker-mid:none;marker-end:none;stroke-miterlimit:4;stroke-dasharray:none;stroke-dashoffset:0;stroke-opacity:.42342344;visibility:visible;display:inline;overflow:visible;enable-background:accumulate" id="path5034" d="M 45.402216 24.538368 A 21.456448 21.456448 0 1 1 2.4893208,24.538368 A 21.456448 21.456448 0 1 1 45.402216 24.538368 z" transform="matrix(0.1722669,0,0,0.171075,16.331054,19.129793)"/><path style="fill:#fff;fill-opacity:.28828831;fill-rule:evenodd;stroke:none;stroke-width:1px;stroke-linecap:butt;stroke-linejoin:miter;stroke-opacity:1" id="path5036" d="M 31.524189,20.311732 C 30.88754,18.234524 29.602494,16.351448 27.984452,14.971536 C 26.792791,16.38476 24.731521,18.911948 22.461605,21.554612 C 22.832321,21.853979 23.117878,22.252481 23.254662,22.720098 L 31.524189,20.311732 z M 18.837824,25.57752 C 18.541065,25.310415 18.308486,24.977479 18.176944,24.592603 L 9.7422161,27.138215 C 10.40297,29.126688 11.609033,30.865907 13.178786,32.194118 C 14.503173,30.663146 16.399275,28.405708 18.837824,25.57752 z"/><path id="path5038" d="M 17.077195,12.723555 C 14.878253,13.370898 12.942493,14.606213 11.481712,16.251424 C 12.977759,17.463097 15.895745,19.85678 18.69328,22.164806 C 19.01019,21.78787 19.432049,21.497518 19.927069,21.358435 L 17.077195,12.723555 z M 22.464154,25.289489 C 22.181395,25.591234 21.828947,25.827718 21.421516,25.961465 L 24.306146,34.747539 C 26.41115,34.075695 28.252297,32.849378 29.658347,31.253269 C 28.037652,29.906643 25.458087,27.768988 22.464154,25.289489 z" style="fill:#000;fill-opacity:.04054057;fill-rule:evenodd;stroke:none;stroke-width:1px;stroke-linecap:butt;stroke-linejoin:miter;stroke-opacity:1"/><path id="path5040" d="M 17.851728,25.775593 L 11.059289,29.78915 M 28.134633,15.162782 L 23.088101,21.194559" style="fill:none;fill-opacity:1;fill-rule:evenodd;stroke:#fff;stroke-width:.99336964px;stroke-linecap:butt;stroke-linejoin:miter;stroke-opacity:.36486487"/></g><path id="path8081" d="M 9.0591652,5.4999999 L 28.406404,5.4999999 L 34.500002,11.345501 L 34.435056,36.641672 C 34.435056,38.299603 33.900285,38.445434 32.119405,38.445434 L 8.7462555,38.445434 C 6.9653713,38.445434 6.5000004,37.42662 6.5000004,35.768691 L 6.5000004,7.6190319 C 6.5000004,5.961102 7.278281,5.4999999 9.0591652,5.4999999 z" style="color:#000;fill:none;fill-opacity:1;fill-rule:evenodd;stroke:#fff;stroke-width:.99999976;stroke-linecap:butt;stroke-linejoin:miter;marker:none;marker-start:none;marker-mid:none;marker-end:none;stroke-miterlimit:4;stroke-dasharray:none;stroke-dashoffset:0;stroke-opacity:1;visibility:visible;display:inline;overflow:visible;enable-background:accumulate"/><path id="path8083" d="M 29.171412,6.3161507 L 35.217275,13.256376 L 35.239173,14.803132 L 29.215375,14.803132 L 29.171412,6.3161507 z" style="fill:url(#linearGradient8137);fill-opacity:1;fill-rule:evenodd;stroke:none;stroke-width:1px;stroke-linecap:butt;stroke-linejoin:miter;stroke-opacity:1;display:inline"/><path style="fill:url(#linearGradient8132);fill-opacity:1;fill-rule:evenodd;stroke:url(#linearGradient8134);stroke-width:.99999988px;stroke-linecap:butt;stroke-linejoin:miter;stroke-opacity:1;display:inline" id="path8085" d="M 35.5,11.553062 L 28.607012,11.553062 L 28.563502,4.4999999"/><path id="path7264" d="M 45.402216 24.538368 A 21.456448 21.456448 0 1 1 2.4893208,24.538368 A 21.456448 21.456448 0 1 1 45.402216 24.538368 z" transform="matrix(0.7040938,0,0,0.3201913,14.363695,32.032122)" style="opacity:.38864632;color:#000;fill:url(#radialGradient7284);fill-opacity:1;fill-rule:evenodd;stroke:none;stroke-width:1.50133264px;stroke-linecap:round;stroke-linejoin:miter;marker:none;marker-start:none;marker-mid:none;marker-end:none;stroke-miterlimit:4;stroke-dasharray:none;stroke-dashoffset:0;stroke-opacity:1;visibility:visible;display:inline;overflow:visible;enable-background:accumulate"/><path style="color:#000;fill:url(#linearGradient8156);fill-opacity:1;fill-rule:evenodd;stroke:#888a85;stroke-width:1.00000024px;stroke-linecap:round;stroke-linejoin:miter;marker:none;marker-start:none;marker-mid:none;marker-end:none;stroke-miterlimit:4;stroke-dasharray:none;stroke-dashoffset:0;stroke-opacity:1;visibility:visible;display:inline;overflow:visible;enable-background:accumulate" id="path7266" d="M 31.025939,15.5 C 23.00512,15.5 16.494689,21.996001 16.494689,30 C 16.494689,38.003999 23.00512,44.5 31.025939,44.5 C 39.046758,44.5 45.557189,38.004 45.557189,30 C 45.557189,21.996001 39.046758,15.5 31.025939,15.5 z M 31.057189,26.5 C 32.989189,26.5 34.557189,28.068 34.557189,30 C 34.557189,31.931999 32.989189,33.5 31.057189,33.5 C 29.125189,33.500001 27.557189,31.932 27.557189,30 C 27.557189,28.068 29.125189,26.5 31.057189,26.5 z"/><path style="color:#000;fill:#000;fill-opacity:.1081081;fill-rule:evenodd;stroke:none;stroke-width:2.52428889px;stroke-linecap:round;stroke-linejoin:miter;marker:none;marker-start:none;marker-mid:none;marker-end:none;stroke-miterlimit:4;stroke-dasharray:none;stroke-dashoffset:0;stroke-opacity:1;visibility:visible;display:inline;overflow:visible;enable-background:accumulate" id="path7270" d="M 31.057189,23 C 27.19319,23 24.057189,26.136001 24.057189,30 C 24.057189,33.863999 27.19319,36.999999 31.057189,37 C 34.921188,37 38.05719,33.864 38.057189,30 C 38.057189,26.136001 34.921188,23 31.057189,23 z M 31.057189,26 C 33.269569,26 35.057189,27.78762 35.057189,30 C 35.057189,32.21238 33.269569,34 31.057189,34 C 28.844808,34 27.057189,32.21238 27.057189,30 C 27.057189,27.787619 28.844809,26 31.057189,26 z"/><path id="path7272" d="M 45.402216 24.538368 A 21.456448 21.456448 0 1 1 2.4893208,24.538368 A 21.456448 21.456448 0 1 1 45.402216 24.538368 z" transform="matrix(0.6291815,0,0,0.6291816,15.990954,14.560913)" style="color:#000;fill:none;fill-opacity:1;fill-rule:evenodd;stroke:#fff;stroke-width:1.58936679px;stroke-linecap:round;stroke-linejoin:miter;marker:none;marker-start:none;marker-mid:none;marker-end:none;stroke-miterlimit:4;stroke-dasharray:none;stroke-dashoffset:0;stroke-opacity:.56756759;visibility:visible;display:inline;overflow:visible;enable-background:accumulate"/><path style="color:#000;fill:none;fill-opacity:1;fill-rule:evenodd;stroke:#fff;stroke-width:4.76810408px;stroke-linecap:round;stroke-linejoin:miter;marker:none;marker-start:none;marker-mid:none;marker-end:none;stroke-miterlimit:4;stroke-dasharray:none;stroke-dashoffset:0;stroke-opacity:.42342344;visibility:visible;display:inline;overflow:visible;enable-background:accumulate" id="path7274" d="M 45.402216 24.538368 A 21.456448 21.456448 0 1 1 2.4893208,24.538368 A 21.456448 21.456448 0 1 1 45.402216 24.538368 z" transform="matrix(0.2097272,0,0,0.2097271,26.035111,24.853638)"/><path style="fill:#fff;fill-opacity:.28828831;fill-rule:evenodd;stroke:none;stroke-width:1px;stroke-linecap:butt;stroke-linejoin:miter;stroke-opacity:1" id="path7278" d="M 44.532068,26.30262 C 43.756975,23.756096 42.19249,21.447565 40.222597,19.755881 C 38.771803,21.488403 36.2623,24.586575 33.49878,27.826313 C 33.95011,28.193316 34.297762,28.681855 34.46429,29.255123 L 44.532068,26.30262 z M 29.086989,32.75814 C 28.725699,32.430688 28.442544,32.022528 28.282398,31.550696 L 18.013497,34.671453 C 18.817935,37.109195 20.286262,39.241367 22.197366,40.869668 C 23.809747,38.992794 26.118167,36.225319 29.086989,32.75814 z"/><path id="path7280" d="M 26.943504,17 C 24.266391,17.7936 21.90969,19.308018 20.131255,21.324943 C 21.952624,22.810376 25.50514,25.74488 28.911015,28.574371 C 29.296837,28.112272 29.810431,27.756319 30.413097,27.585812 L 26.943504,17 z M 33.501882,32.405034 C 33.157637,32.774953 32.728547,33.064868 32.232518,33.228833 L 35.744425,44 C 38.307173,43.176361 40.548686,41.672976 42.260489,39.716247 C 40.287365,38.06537 37.146861,35.44474 33.501882,32.405034 z" style="fill:#000;fill-opacity:.04054057;fill-rule:evenodd;stroke:none;stroke-width:1px;stroke-linecap:butt;stroke-linejoin:miter;stroke-opacity:1"/><path id="path7282" d="M 27.886462,33.000966 L 19.616973,37.921331 M 40.405436,19.990336 L 34.26151,27.384912" style="fill:none;fill-opacity:1;fill-rule:evenodd;stroke:#fff;stroke-width:1px;stroke-linecap:butt;stroke-linejoin:miter;stroke-opacity:.36486487"/><path style="fill:url(#linearGradient8147);fill-opacity:1;stroke:url(#linearGradient8165);stroke-width:.99999988;stroke-opacity:1" id="path7904" d="M 19.549253,25.076719 L 19.549253,27.516088 L 12.775939,27.516088 C 12.100749,27.516088 11.557189,28.057967 11.557189,28.731069 L 11.557189,32.284559 C 11.557189,32.957661 12.100749,33.49954 12.775939,33.49954 L 19.549253,33.49954 L 19.549253,36.055147 L 26.557189,30.36695 L 19.549253,25.076719 z"/><path id="path7906" d="M 20.615721,27.2412 L 20.615721,28.526502 L 13.086345,28.526502 C 12.411155,28.526502 12.557814,29.068381 12.557814,29.741483 L 12.557814,31.30502 C 12.557814,31.978122 12.45701,32.520001 13.1322,32.520001 L 20.615721,32.520001 L 20.615721,33.89312 L 24.924583,30.393361 L 20.615721,27.2412 z" style="fill:none;fill-opacity:1;stroke:#fff;stroke-width:.99999988;stroke-opacity:.31531528"/></g></svg>