<svg xmlns="http://www.w3.org/2000/svg" xmlns:cc="http://web.resource.org/cc/" xmlns:svg="http://www.w3.org/2000/svg" xmlns:xlink="http://www.w3.org/1999/xlink" id="svg2" width="22" height="22" version="1.0"><defs id="defs3"><linearGradient id="linearGradient7944"><stop id="stop7946" offset="0" style="stop-color:#dededa;stop-opacity:1"/><stop id="stop7948" offset="1" style="stop-color:#fff;stop-opacity:1"/></linearGradient><linearGradient id="linearGradient7762" x1="3.69" x2="18.319" y1=".833" y2="19.583" gradientTransform="matrix(0.8064464,0,0,0.7494927,-22.03215,19.385907)" gradientUnits="userSpaceOnUse" xlink:href="#linearGradient7944"/><linearGradient id="linearGradient7936" x1="11.823" x2="33.184" y1="5.084" y2="41.243" gradientTransform="matrix(0.2095035,0,0,0.2097317,-17.02152,22.860941)" gradientUnits="userSpaceOnUse" xlink:href="#linearGradient7954"/><linearGradient id="linearGradient6108"><stop style="stop-color:#000;stop-opacity:1" id="stop6110" offset="0"/><stop style="stop-color:#000;stop-opacity:0" id="stop6112" offset="1"/></linearGradient><linearGradient id="linearGradient7758" x1="16.552" x2="16.552" y1="2.963" y2="7.836" gradientTransform="matrix(0.6005581,0,0,0.6168465,-18.00838,20.065228)" gradientUnits="userSpaceOnUse" xlink:href="#linearGradient6108"/><linearGradient id="linearGradient4919"><stop style="stop-color:#888a85;stop-opacity:1" id="stop4921" offset="0"/><stop style="stop-color:#888a85;stop-opacity:0" id="stop4923" offset="1"/></linearGradient><linearGradient id="linearGradient7755" x1="18.977" x2="14.121" y1="6.559" y2="2.942" gradientTransform="matrix(0.6361982,0,0,0.6064704,-19.36108,19.557943)" gradientUnits="userSpaceOnUse" xlink:href="#linearGradient4919"/><linearGradient id="linearGradient6076"><stop style="stop-color:#fff;stop-opacity:1" id="stop6078" offset="0"/><stop style="stop-color:#cbcbcb;stop-opacity:1" id="stop6080" offset="1"/></linearGradient><linearGradient id="linearGradient7753" x1="17.688" x2="18.562" y1="4.528" y2="3.749" gradientTransform="matrix(0.8571435,0,0,0.8100164,-23.64287,18.64357)" gradientUnits="userSpaceOnUse" xlink:href="#linearGradient6076"/><linearGradient id="linearGradient6343"><stop style="stop-color:#fce94f;stop-opacity:1" id="stop6345" offset="0"/><stop style="stop-color:#fce94f;stop-opacity:0" id="stop6347" offset="1"/></linearGradient><radialGradient id="radialGradient7942" cx="36.62" cy="7.221" r="5.171" fx="36.62" fy="7.221" gradientUnits="userSpaceOnUse" xlink:href="#linearGradient6343"/><filter id="filter6052" width="1.283" height="2.415" x="-.141" y="-.707"><feGaussianBlur id="feGaussianBlur6054" stdDeviation="1.179"/></filter><linearGradient id="linearGradient7954"><stop id="stop7956" offset="0" style="stop-color:#fff;stop-opacity:1"/><stop id="stop7958" offset="1" style="stop-color:#e4e4e1;stop-opacity:1"/></linearGradient><linearGradient id="linearGradient5911"><stop style="stop-color:#fcaf3e;stop-opacity:1" id="stop5913" offset="0"/><stop style="stop-color:#f57900;stop-opacity:1" id="stop5915" offset="1"/></linearGradient><linearGradient id="linearGradient5917" x1="10.455" x2="10.455" y1="21.968" y2="30.653" gradientTransform="matrix(0.625,0,0,0.6206086,-19.827785,-6.5763167)" gradientUnits="userSpaceOnUse" xlink:href="#linearGradient5911"/><linearGradient id="linearGradient5946"><stop style="stop-color:#fff;stop-opacity:1" id="stop5948" offset="0"/><stop style="stop-color:#fff;stop-opacity:0" id="stop5950" offset="1"/></linearGradient><linearGradient id="linearGradient5893"><stop style="stop-color:#fcaf3e;stop-opacity:1" id="stop5895" offset="0"/><stop style="stop-color:#f57900;stop-opacity:1" id="stop5897" offset="1"/></linearGradient><linearGradient id="linearGradient5876"><stop style="stop-color:#fff;stop-opacity:1" id="stop5878" offset="0"/><stop style="stop-color:#ededed;stop-opacity:1" id="stop5880" offset="1"/></linearGradient><linearGradient id="linearGradient5882" x1="7.798" x2="12.953" y1="7.467" y2="13.499" gradientUnits="userSpaceOnUse" xlink:href="#linearGradient5876"/><linearGradient id="linearGradient5899" x1="7.577" x2="10.685" y1="5.133" y2="10.741" gradientTransform="matrix(0.9079916,0,0,0.9079992,14.279699,1.2332336)" gradientUnits="userSpaceOnUse" xlink:href="#linearGradient5893"/><linearGradient id="linearGradient5944" x1="3.761" x2="7.045" y1="3.46" y2="10.269" gradientTransform="translate(-20,0)" gradientUnits="userSpaceOnUse" xlink:href="#linearGradient5876"/><linearGradient id="linearGradient5952" x1="14.217" x2="7.735" y1="5.273" y2="9.067" gradientTransform="translate(13,0)" gradientUnits="userSpaceOnUse" xlink:href="#linearGradient5946"/><linearGradient id="linearGradient6085" x1="11.823" x2="33.184" y1="5.084" y2="41.243" gradientTransform="matrix(0.3033479,0,0,0.3029358,3.74154,3.5628872)" gradientUnits="userSpaceOnUse" xlink:href="#linearGradient7954"/><linearGradient id="linearGradient6376" x1="3.69" x2="18.319" y1=".833" y2="19.583" gradientTransform="matrix(0.8064464,0,0,0.7494927,-22.03215,19.385907)" gradientUnits="userSpaceOnUse" xlink:href="#linearGradient7944"/><linearGradient id="linearGradient6378" x1="16.552" x2="16.552" y1="2.963" y2="7.836" gradientTransform="matrix(0.6005581,0,0,0.6168465,-18.00838,20.065228)" gradientUnits="userSpaceOnUse" xlink:href="#linearGradient6108"/><linearGradient id="linearGradient6380" x1="17.688" x2="18.562" y1="4.528" y2="3.749" gradientTransform="matrix(0.8571435,0,0,0.8100164,-23.64287,18.64357)" gradientUnits="userSpaceOnUse" xlink:href="#linearGradient6076"/><linearGradient id="linearGradient6382" x1="18.977" x2="14.121" y1="6.559" y2="2.942" gradientTransform="matrix(0.6361982,0,0,0.6064704,-19.36108,19.557943)" gradientUnits="userSpaceOnUse" xlink:href="#linearGradient4919"/><linearGradient id="linearGradient6385" x1="17.688" x2="18.562" y1="4.528" y2="3.749" gradientTransform="matrix(1.0262027,0,0,0.9697805,-4.6250306,-0.6732375)" gradientUnits="userSpaceOnUse" xlink:href="#linearGradient6076"/><linearGradient id="linearGradient6387" x1="18.977" x2="14.121" y1="6.559" y2="2.942" gradientTransform="matrix(0.7616791,0,0,0.726088,0.5012809,0.4214824)" gradientUnits="userSpaceOnUse" xlink:href="#linearGradient4919"/><linearGradient id="linearGradient6390" x1="16.552" x2="16.552" y1="2.963" y2="7.836" gradientTransform="matrix(0.5882346,0,0,0.7385106,4.1764725,1.0919153)" gradientUnits="userSpaceOnUse" xlink:href="#linearGradient6108"/><linearGradient id="linearGradient6394" x1="2.731" x2="14.151" y1=".179" y2="14.093" gradientTransform="matrix(0.9264728,0,0,0.907123,-2.4926912,0.1393154)" gradientUnits="userSpaceOnUse" xlink:href="#linearGradient7944"/><linearGradient id="linearGradient6396" x1="10.455" x2="10.455" y1="21.968" y2="30.653" gradientTransform="matrix(0.625,0,0,0.6206086,-16.827785,-3.5763167)" gradientUnits="userSpaceOnUse" xlink:href="#linearGradient5911"/><linearGradient id="linearGradient6404" x1="11.823" x2="33.184" y1="5.084" y2="41.243" gradientTransform="matrix(0.3255255,0,0,0.3265149,6.7320942,5.4937069)" gradientUnits="userSpaceOnUse" xlink:href="#linearGradient7954"/><linearGradient id="linearGradient4966" x1="11.823" x2="33.184" y1="5.084" y2="41.243" gradientTransform="matrix(0.255558,0,0,0.2565474,2.9062633,4.7093415)" gradientUnits="userSpaceOnUse" xlink:href="#linearGradient7954"/></defs><metadata id="metadata6"/><g id="layer1"><rect style="opacity:.27074238;color:#000;fill:#000;fill-opacity:1;fill-rule:evenodd;stroke:none;stroke-width:.9999997px;stroke-linecap:butt;stroke-linejoin:miter;marker:none;marker-start:none;marker-mid:none;marker-end:none;stroke-miterlimit:4;stroke-dasharray:none;stroke-dashoffset:0;stroke-opacity:1;visibility:visible;display:inline;overflow:visible;filter:url(#filter6052);enable-background:accumulate" id="rect7962" width="20" height="4" x="25" y="41" rx="1.822" ry="1.657" transform="matrix(0.8973651,0,0,0.9864924,-21.41218,-23.446187)"/><path style="color:#000;fill:url(#linearGradient6394);fill-opacity:1;fill-rule:evenodd;stroke:#888a85;stroke-width:.99999976px;stroke-linecap:butt;stroke-linejoin:miter;marker:none;marker-start:none;marker-mid:none;marker-end:none;stroke-miterlimit:4;stroke-dashoffset:0;stroke-opacity:1;visibility:visible;display:inline;overflow:visible;enable-background:accumulate" id="path7252" d="M 3.0148405,1.4999998 L 13.579239,1.4999998 L 16.5,4.6829045 L 16.5,18.159262 C 16.5,18.980954 15.824382,19.64246 14.985159,19.64246 L 3.0148405,19.64246 C 2.1756175,19.64246 1.4999999,18.980954 1.4999999,18.159262 L 1.4999999,2.9831985 C 1.4999999,2.1615053 2.1756175,1.4999998 3.0148405,1.4999998 z"/><path style="opacity:.66375547;color:#000;fill:url(#linearGradient4966);fill-opacity:1;fill-rule:evenodd;stroke:#888a85;stroke-width:1.00000048px;stroke-linecap:round;stroke-linejoin:miter;marker:none;marker-start:none;marker-mid:none;marker-end:none;stroke-miterlimit:4;stroke-dasharray:none;stroke-dashoffset:0;stroke-opacity:1;visibility:visible;display:inline;overflow:visible;enable-background:accumulate" id="path4964" d="M 9.0326542,5.5000003 C 6.0058275,5.5000003 3.5424206,7.9729448 3.5424206,11.011482 C 3.5424206,14.050019 6.0058275,16.500001 9.0326542,16.500001 C 12.059474,16.500001 14.5,14.050019 14.5,11.011482 C 14.5,7.9729448 12.059474,5.5000003 9.0326542,5.5000003 z M 9.0326542,9.465095 C 9.882966,9.465095 10.573078,10.157877 10.573078,11.011482 C 10.573078,11.86509 9.882966,12.55787 9.0326542,12.55787 C 8.1823337,12.55787 7.4922319,11.86509 7.4922319,11.011482 C 7.4922319,10.157877 8.1823337,9.465095 9.0326542,9.465095 z"/><path id="path7254" d="M 3.5441954,2.5010695 L 13.149092,2.5010695 L 15.500001,5.1052913 L 15.469852,17.485328 C 15.469852,18.29045 15.089235,18.500001 14.262399,18.500001 L 3.3913154,18.500001 C 2.56448,18.500001 2.5,18.470016 2.5,17.664894 L 2.5,3.2449195 C 2.5,2.4397969 2.7173601,2.5010695 3.5441954,2.5010695 z" style="color:#000;fill:none;fill-opacity:1;fill-rule:evenodd;stroke:#fff;stroke-width:1;stroke-linecap:butt;stroke-linejoin:miter;marker:none;marker-start:none;marker-mid:none;marker-end:none;stroke-miterlimit:4;stroke-dasharray:none;stroke-dashoffset:0;stroke-opacity:1;visibility:visible;display:inline;overflow:visible;enable-background:accumulate"/><path id="path7256" d="M 13,3.0193269 L 15.989166,5.5211447 L 16,7 L 13.021734,7 L 13,3.0193269 z" style="fill:url(#linearGradient6390);fill-opacity:1;fill-rule:evenodd;stroke:none;stroke-width:1px;stroke-linecap:butt;stroke-linejoin:miter;stroke-opacity:1;display:inline"/><path style="fill:url(#linearGradient6385);fill-opacity:1;fill-rule:evenodd;stroke:url(#linearGradient6387);stroke-width:.99999988px;stroke-linecap:butt;stroke-linejoin:miter;stroke-opacity:1;display:inline" id="path7258" d="M 16.5,5.1410534 L 12.3352,5.1410534 L 12.307317,1.0363563"/><path id="path7968" d="M 14.535788,6.5 C 10.680267,6.5 7.5424207,9.6473837 7.5424207,13.514613 C 7.5424207,17.381842 10.680267,20.5 14.535788,20.5 C 18.3913,20.5 21.500001,17.381842 21.500001,13.514613 C 21.500001,9.6473837 18.3913,6.5 14.535788,6.5 z M 14.535788,11.546484 C 15.618901,11.546484 16.497954,12.428207 16.497954,13.514613 C 16.497954,14.601022 15.618901,15.482743 14.535788,15.482743 C 13.452664,15.482743 12.573624,14.601022 12.573624,13.514613 C 12.573624,12.428207 13.452664,11.546484 14.535788,11.546484 z" style="color:#000;fill:url(#linearGradient6404);fill-opacity:1;fill-rule:evenodd;stroke:#888a85;stroke-width:1.00000048px;stroke-linecap:round;stroke-linejoin:miter;marker:none;marker-start:none;marker-mid:none;marker-end:none;stroke-miterlimit:4;stroke-dasharray:none;stroke-dashoffset:0;stroke-opacity:1;visibility:visible;display:inline;overflow:visible;enable-background:accumulate"/><path id="path7970" d="M 14.518959,9.9963953 C 12.58104,9.9963953 11,11.575295 11,13.510579 C 11,15.445866 12.58104,16.997312 14.518959,16.997312 C 16.456889,16.997312 18.010437,15.445866 18.010437,13.510579 C 18.010437,11.575295 16.456889,9.9963953 14.518959,9.9963953 z M 14.518959,10.92985 C 15.95195,10.92985 17.103204,12.079542 17.103204,13.510579 C 17.103204,14.941618 15.95195,16.091311 14.518959,16.091311 C 13.085978,16.091311 11.934724,14.941618 11.934724,13.510579 C 11.934724,12.079542 13.085978,10.92985 14.518959,10.92985 z" style="color:#000;fill:#000;fill-opacity:.1081081;fill-rule:evenodd;stroke:none;stroke-width:2.52428889px;stroke-linecap:round;stroke-linejoin:miter;marker:none;marker-start:none;marker-mid:none;marker-end:none;stroke-miterlimit:4;stroke-dasharray:none;stroke-dashoffset:0;stroke-opacity:1;visibility:visible;display:inline;overflow:visible;enable-background:accumulate"/><path style="color:#000;fill:none;fill-opacity:1;fill-rule:evenodd;stroke:#fff;stroke-width:3.57607603px;stroke-linecap:round;stroke-linejoin:miter;marker:none;marker-start:none;marker-mid:none;marker-end:none;stroke-miterlimit:4;stroke-dasharray:none;stroke-dashoffset:0;stroke-opacity:.56756759;visibility:visible;display:inline;overflow:visible;enable-background:accumulate" id="path7972" d="M 45.402216 24.538368 A 21.456448 21.456448 0 1 1 2.4893208,24.538368 A 21.456448 21.456448 0 1 1 45.402216 24.538368 z" transform="matrix(0.2796362,0,0,0.2796362,7.8038959,6.6381836)"/><path id="path7974" d="M 20.771633,11.708886 C 20.413244,10.53231 19.689827,9.4656937 18.778972,8.684081 C 18.108136,9.4845617 17.840934,10.358588 16.563103,11.855452 C 16.771794,12.025018 16.932552,12.250739 17.009553,12.515608 L 20.771633,11.708886 z M 12.71263,15.599456 C 12.545576,15.448163 12.414646,15.259579 12.3406,15.041578 L 8.5096557,15.575558 C 8.8816208,16.701874 9.5605625,17.687008 10.444244,18.439335 C 11.189791,17.572157 11.339875,17.201406 12.71263,15.599456 z" style="color:#000;fill:#000;fill-opacity:.07207205;fill-rule:evenodd;stroke:none;stroke-width:1px;stroke-linecap:butt;stroke-linejoin:miter;marker:none;marker-start:none;marker-mid:none;marker-end:none;stroke-miterlimit:4;stroke-dasharray:none;stroke-dashoffset:0;stroke-opacity:1;visibility:visible;display:inline;overflow:visible;enable-background:accumulate"/><path style="fill:#000;fill-opacity:.11711713;fill-rule:evenodd;stroke:none;stroke-width:1px;stroke-linecap:butt;stroke-linejoin:miter;stroke-opacity:1;display:inline" id="path7976" d="M 12.560983,7.1716179 C 11.274983,7.5525436 10.142889,8.279459 9.2885854,9.2475767 C 10.163509,9.96058 11.405345,10.691537 13.041426,12.049685 C 13.226766,11.827878 13.473476,11.657022 13.76298,11.57518 L 12.560983,7.1716179 z M 15.871367,14.899776 C 15.769366,15.444506 15.499884,15.216496 15.2616,15.295198 L 16.788699,20.131534 C 18.019753,19.736189 19.096516,19.014568 19.918818,18.075344 C 18.970993,17.28293 17.622307,16.358825 15.871367,14.899776 z"/><path style="color:#000;fill:#fff;fill-opacity:.75225226;fill-rule:evenodd;stroke:none;stroke-width:1px;stroke-linecap:butt;stroke-linejoin:miter;marker:none;marker-start:none;marker-mid:none;marker-end:none;stroke-miterlimit:4;stroke-dasharray:none;stroke-dashoffset:0;stroke-opacity:1;visibility:visible;display:inline;overflow:visible;enable-background:accumulate" id="path7990" d="M 19.851528,9.8211033 C 19.134053,8.8221059 18.106251,8.0445346 16.99253,7.5970883 C 16.614515,8.5706874 16.642352,9.4842202 15.913326,11.312325 C 16.165431,11.405836 16.390204,11.567924 16.548242,11.793999 L 19.851528,9.8211033 z M 13.470243,16.095111 C 13.263425,16.005526 13.078845,15.86902 12.938665,15.68638 L 9.4825121,17.423129 C 10.1967,18.370171 11.156205,19.084871 12.234777,19.513318 C 12.662106,18.45255 12.685082,18.053236 13.470243,16.095111 z"/><path style="opacity:1;fill:url(#linearGradient6396);fill-opacity:1;stroke:#ce5c00;stroke-width:.99999988;stroke-opacity:1" id="path6092" d="M 7.5307967,9.034391 L 7.5307967,11.496017 L 4.4375001,11.496017 C 3.9181233,11.496017 3.5000001,11.911202 3.5000001,12.426931 L 3.5000001,15.57288 C 3.5000001,16.088607 3.9181233,16.503793 4.4375001,16.503793 L 7.5307967,16.503793 L 7.5307967,19.012151 L 12.559377,13.553351 L 7.5307967,9.034391 z"/><path id="path6094" d="M 8.5345784,11.27129 L 8.5533908,12.500644 L 4.9208356,12.500644 C 4.4014587,12.500644 4.5142733,12.91583 4.5142733,13.431558 L 4.5142733,14.554283 C 4.5142733,15.070011 4.4367321,15.485196 4.956109,15.485196 L 8.5533908,15.485196 L 8.5345784,16.405586 L 11.171839,13.630024 L 8.5345784,11.27129 z" style="opacity:1;fill:none;fill-opacity:1;stroke:#fff;stroke-width:.99999988;stroke-opacity:.31531528"/></g></svg>