<svg xmlns="http://www.w3.org/2000/svg" xmlns:cc="http://web.resource.org/cc/" xmlns:svg="http://www.w3.org/2000/svg" xmlns:xlink="http://www.w3.org/1999/xlink" id="svg5615" width="22" height="22" version="1.0"><defs id="defs5617"><linearGradient id="linearGradient8146"><stop id="stop8148" offset="0" style="stop-color:#ebebe8;stop-opacity:1"/><stop id="stop8150" offset="1" style="stop-color:#fbfbfb;stop-opacity:1"/></linearGradient><linearGradient id="linearGradient7954"><stop id="stop7956" offset="0" style="stop-color:#fff;stop-opacity:1"/><stop id="stop7958" offset="1" style="stop-color:#e4e4e1;stop-opacity:1"/></linearGradient><linearGradient id="linearGradient7944"><stop id="stop7946" offset="0" style="stop-color:#dededa;stop-opacity:1"/><stop id="stop7948" offset="1" style="stop-color:#fff;stop-opacity:1"/></linearGradient><linearGradient id="linearGradient6343"><stop style="stop-color:#fce94f;stop-opacity:1" id="stop6345" offset="0"/><stop style="stop-color:#fce94f;stop-opacity:0" id="stop6347" offset="1"/></linearGradient><filter id="filter6052" width="1.283" height="2.415" x="-.141" y="-.707"><feGaussianBlur id="feGaussianBlur6054" stdDeviation="1.179"/></filter><linearGradient id="linearGradient6108"><stop style="stop-color:#000;stop-opacity:1" id="stop6110" offset="0"/><stop style="stop-color:#000;stop-opacity:0" id="stop6112" offset="1"/></linearGradient><linearGradient id="linearGradient4919"><stop style="stop-color:#888a85;stop-opacity:1" id="stop4921" offset="0"/><stop style="stop-color:#888a85;stop-opacity:0" id="stop4923" offset="1"/></linearGradient><linearGradient id="linearGradient6076"><stop style="stop-color:#fff;stop-opacity:1" id="stop6078" offset="0"/><stop style="stop-color:#cbcbcb;stop-opacity:1" id="stop6080" offset="1"/></linearGradient><linearGradient id="linearGradient6672"><stop style="stop-color:#fff;stop-opacity:1" id="stop6674" offset="0"/><stop style="stop-color:#fff;stop-opacity:0" id="stop6676" offset="1"/></linearGradient><linearGradient id="linearGradient6565"><stop style="stop-color:#000;stop-opacity:1" id="stop6567" offset="0"/><stop style="stop-color:#000;stop-opacity:0" id="stop6569" offset="1"/></linearGradient><linearGradient id="linearGradient5912"><stop style="stop-color:#ebebe8;stop-opacity:1" id="stop5914" offset="0"/><stop style="stop-color:#eeeeec;stop-opacity:1" id="stop5916" offset="1"/></linearGradient><linearGradient id="linearGradient6748" x1="9.295" x2="13.387" y1="5.661" y2="33.642" gradientTransform="matrix(0.4893634,0,0,0.4893634,107.28182,-91.008179)" gradientUnits="userSpaceOnUse" xlink:href="#linearGradient5912"/><linearGradient id="linearGradient6815" x1="43.282" x2="28.477" y1="37.464" y2="37.465" gradientTransform="matrix(0.5044,0,0,0.789146,-3.3886096,-9.1055033)" gradientUnits="userSpaceOnUse" xlink:href="#linearGradient6672"/><filter id="filter7168"><feGaussianBlur id="feGaussianBlur7170" stdDeviation="1.703"/></filter><linearGradient id="linearGradient7753" x1="17.688" x2="18.562" y1="4.528" y2="3.749" gradientTransform="matrix(0.8571435,0,0,0.8100164,-3.64287,-1.3564303)" gradientUnits="userSpaceOnUse" xlink:href="#linearGradient6076"/><linearGradient id="linearGradient7755" x1="18.977" x2="14.121" y1="6.559" y2="2.942" gradientTransform="matrix(0.6361982,0,0,0.6064704,0.63892,-0.4420567)" gradientUnits="userSpaceOnUse" xlink:href="#linearGradient4919"/><linearGradient id="linearGradient7758" x1="16.552" x2="16.552" y1="2.963" y2="7.836" gradientTransform="matrix(0.6005581,0,0,0.6168465,1.99162,6.52285e-2)" gradientUnits="userSpaceOnUse" xlink:href="#linearGradient6108"/><linearGradient id="linearGradient7762" x1="3.69" x2="18.319" y1=".833" y2="19.583" gradientTransform="matrix(0.8064464,0,0,0.7494927,-2.03215,-0.6140932)" gradientUnits="userSpaceOnUse" xlink:href="#linearGradient7944"/><linearGradient id="linearGradient7936" x1="11.823" x2="33.184" y1="5.084" y2="41.243" gradientTransform="matrix(0.2095035,0,0,0.2097317,2.97848,2.8609414)" gradientUnits="userSpaceOnUse" xlink:href="#linearGradient7954"/><radialGradient id="radialGradient7942" cx="36.62" cy="7.221" r="5.171" fx="36.62" fy="7.221" gradientUnits="userSpaceOnUse" xlink:href="#linearGradient6343"/><linearGradient id="linearGradient7992" x1="1.336" x2="17.012" y1="-6.134" y2="20.402" gradientTransform="matrix(1.0531984,0,0,0.9993944,-32.09057,-0.9990927)" gradientUnits="userSpaceOnUse" xlink:href="#linearGradient7944"/><linearGradient id="linearGradient7994" x1="11.823" x2="33.184" y1="5.084" y2="41.243" gradientTransform="matrix(0.3033479,0,0,0.3029358,-26.25846,3.5628872)" gradientUnits="userSpaceOnUse" xlink:href="#linearGradient7954"/><linearGradient id="linearGradient7996" x1="16.552" x2="16.552" y1="2.963" y2="7.836" gradientTransform="matrix(0.7843136,0,0,0.8225202,-26.27586,0.4445121)" gradientUnits="userSpaceOnUse" xlink:href="#linearGradient6108"/><linearGradient id="linearGradient7998" x1="17.688" x2="18.562" y1="4.528" y2="3.749" gradientTransform="matrix(1.2238011,0,0,1.1813056,-35.69272,-1.5824842)" gradientUnits="userSpaceOnUse" xlink:href="#linearGradient6076"/><linearGradient id="linearGradient8000" x1="18.977" x2="14.121" y1="6.559" y2="2.942" gradientTransform="matrix(0.9083429,0,0,0.8844596,-29.57932,-0.2489868)" gradientUnits="userSpaceOnUse" xlink:href="#linearGradient4919"/><radialGradient id="radialGradient8002" cx="36.62" cy="7.221" r="5.171" fx="36.62" fy="7.221" gradientUnits="userSpaceOnUse" xlink:href="#linearGradient6343"/><radialGradient id="radialGradient8085" cx="36.62" cy="7.221" r="5.171" fx="36.62" fy="7.221" gradientUnits="userSpaceOnUse" xlink:href="#linearGradient6343"/><radialGradient id="radialGradient8107" cx="23.946" cy="24.538" r="21.456" fx="23.946" fy="24.538" gradientUnits="userSpaceOnUse" xlink:href="#linearGradient6565"/><linearGradient id="linearGradient8120" x1="17.688" x2="18.562" y1="4.528" y2="3.749" gradientTransform="matrix(1.3198145,0,0,1.4683021,-73.276941,-2.3031638)" gradientUnits="userSpaceOnUse" xlink:href="#linearGradient6076"/><linearGradient id="linearGradient8122" x1="18.977" x2="14.121" y1="6.559" y2="2.942" gradientTransform="matrix(0.9796071,0,0,1.0993378,-66.683912,-0.6456956)" gradientUnits="userSpaceOnUse" xlink:href="#linearGradient4919"/><linearGradient id="linearGradient8125" x1="16.552" x2="16.552" y1="2.963" y2="7.836" gradientTransform="matrix(0.980392,0,0,1.298668,-65.705884,-1.389344)" gradientUnits="userSpaceOnUse" xlink:href="#linearGradient6108"/><linearGradient id="linearGradient8129" x1="2.5" x2="14.562" y1="-5.263" y2="19.56" gradientTransform="matrix(1.5441219,0,0,1.4501245,-77.154498,-1.6751875)" gradientUnits="userSpaceOnUse" xlink:href="#linearGradient7944"/><linearGradient id="linearGradient8139" x1="36.211" x2="18.193" y1="37.921" y2="11.671" gradientTransform="matrix(0.3961512,0,0,0.3961513,-67.486146,6.2790932)" gradientUnits="userSpaceOnUse" xlink:href="#linearGradient8146"/><linearGradient id="linearGradient8184" x1="-1.358" x2="17.17" y1="-13.379" y2="20.088" gradientTransform="matrix(2.1617708,0,0,2.0501246,-136.81629,-2.5751872)" gradientUnits="userSpaceOnUse" xlink:href="#linearGradient7944"/><linearGradient id="linearGradient8186" x1="16.552" x2="16.552" y1="-.562" y2="7.836" gradientTransform="matrix(0.9803921,0,0,1.0330341,-112.70588,0.3039237)" gradientUnits="userSpaceOnUse" xlink:href="#linearGradient6108"/><linearGradient id="linearGradient8188" x1="17.688" x2="18.562" y1="4.528" y2="3.749" gradientTransform="matrix(1.3854229,0,0,1.5817473,-121.35948,-2.7165453)" gradientUnits="userSpaceOnUse" xlink:href="#linearGradient6076"/><linearGradient id="linearGradient8190" x1="18.977" x2="14.121" y1="6.559" y2="2.942" gradientTransform="matrix(1.0283037,0,0,1.1842757,-114.43871,-0.9310167)" gradientUnits="userSpaceOnUse" xlink:href="#linearGradient4919"/><radialGradient id="radialGradient8192" cx="23.946" cy="24.538" r="21.456" fx="23.946" fy="24.538" gradientUnits="userSpaceOnUse" xlink:href="#linearGradient6565"/><linearGradient id="linearGradient8194" x1="36.211" x2="18.193" y1="37.921" y2="11.671" gradientTransform="matrix(0.5825754,0,0,0.5825756,-123.95022,7.704547)" gradientUnits="userSpaceOnUse" xlink:href="#linearGradient8146"/><radialGradient id="radialGradient8196" cx="36.62" cy="7.221" r="5.171" fx="36.62" fy="7.221" gradientUnits="userSpaceOnUse" xlink:href="#linearGradient6343"/><radialGradient id="radialGradient8421" cx="36.62" cy="7.221" r="5.171" fx="36.62" fy="7.221" gradientUnits="userSpaceOnUse" xlink:href="#linearGradient6343"/><linearGradient id="linearGradient8423" x1="36.211" x2="18.193" y1="37.921" y2="11.671" gradientTransform="matrix(0.5825754,0,0,0.5825756,-93.95022,7.704547)" gradientUnits="userSpaceOnUse" xlink:href="#linearGradient8146"/><radialGradient id="radialGradient8425" cx="23.946" cy="24.538" r="21.456" fx="23.946" fy="24.538" gradientUnits="userSpaceOnUse" xlink:href="#linearGradient6565"/><linearGradient id="linearGradient8427" x1="17.688" x2="18.562" y1="4.528" y2="3.749" gradientTransform="matrix(1.3854229,0,0,1.5817473,-91.35948,-2.7165453)" gradientUnits="userSpaceOnUse" xlink:href="#linearGradient6076"/><linearGradient id="linearGradient8429" x1="18.977" x2="14.121" y1="6.559" y2="2.942" gradientTransform="matrix(1.0283037,0,0,1.1842757,-84.43871,-0.9310167)" gradientUnits="userSpaceOnUse" xlink:href="#linearGradient4919"/><linearGradient id="linearGradient8431" x1="16.552" x2="16.552" y1="-.562" y2="7.836" gradientTransform="matrix(0.9803921,0,0,1.0330341,-82.70588,0.3039237)" gradientUnits="userSpaceOnUse" xlink:href="#linearGradient6108"/><linearGradient id="linearGradient8433" x1="-1.358" x2="17.17" y1="-13.379" y2="20.088" gradientTransform="matrix(2.1617708,0,0,2.0501246,-106.81629,-2.5751872)" gradientUnits="userSpaceOnUse" xlink:href="#linearGradient7944"/><radialGradient id="radialGradient8435" cx="36.62" cy="7.221" r="5.171" fx="36.62" fy="7.221" gradientUnits="userSpaceOnUse" xlink:href="#linearGradient6343"/><radialGradient id="radialGradient8437" cx="36.62" cy="7.221" r="5.171" fx="36.62" fy="7.221" gradientUnits="userSpaceOnUse" xlink:href="#linearGradient6343"/><linearGradient id="linearGradient8439" x1="17.688" x2="18.562" y1="4.528" y2="3.749" gradientTransform="matrix(1.2238011,0,0,1.1813056,-5.69272,-1.5824842)" gradientUnits="userSpaceOnUse" xlink:href="#linearGradient6076"/><linearGradient id="linearGradient8441" x1="18.977" x2="14.121" y1="6.559" y2="2.942" gradientTransform="matrix(0.9083429,0,0,0.8844596,0.42068,-0.2489868)" gradientUnits="userSpaceOnUse" xlink:href="#linearGradient4919"/><linearGradient id="linearGradient8443" x1="16.552" x2="16.552" y1="2.963" y2="7.836" gradientTransform="matrix(0.7843136,0,0,0.8225202,3.72414,0.4445121)" gradientUnits="userSpaceOnUse" xlink:href="#linearGradient6108"/><linearGradient id="linearGradient8445" x1="11.823" x2="33.184" y1="5.084" y2="41.243" gradientTransform="matrix(0.3033479,0,0,0.3029358,3.74154,3.5628872)" gradientUnits="userSpaceOnUse" xlink:href="#linearGradient7954"/><linearGradient id="linearGradient8447" x1="1.336" x2="17.012" y1="-6.134" y2="20.402" gradientTransform="matrix(1.0531984,0,0,0.9993944,-2.09057,-0.9990927)" gradientUnits="userSpaceOnUse" xlink:href="#linearGradient7944"/><linearGradient id="linearGradient8449" x1="36.211" x2="18.193" y1="37.921" y2="11.671" gradientTransform="matrix(0.3961512,0,0,0.3961513,-37.486146,6.2790932)" gradientUnits="userSpaceOnUse" xlink:href="#linearGradient8146"/><radialGradient id="radialGradient8451" cx="23.946" cy="24.538" r="21.456" fx="23.946" fy="24.538" gradientUnits="userSpaceOnUse" xlink:href="#linearGradient6565"/><linearGradient id="linearGradient8453" x1="17.688" x2="18.562" y1="4.528" y2="3.749" gradientTransform="matrix(1.3198145,0,0,1.4683021,-43.276941,-2.3031638)" gradientUnits="userSpaceOnUse" xlink:href="#linearGradient6076"/><linearGradient id="linearGradient8455" x1="18.977" x2="14.121" y1="6.559" y2="2.942" gradientTransform="matrix(0.9796071,0,0,1.0993378,-36.683912,-0.6456956)" gradientUnits="userSpaceOnUse" xlink:href="#linearGradient4919"/><linearGradient id="linearGradient8457" x1="16.552" x2="16.552" y1="2.963" y2="7.836" gradientTransform="matrix(0.980392,0,0,1.298668,-35.705884,-1.389344)" gradientUnits="userSpaceOnUse" xlink:href="#linearGradient6108"/><linearGradient id="linearGradient8459" x1="2.5" x2="14.562" y1="-5.263" y2="19.56" gradientTransform="matrix(1.5441219,0,0,1.4501245,-47.154498,-1.6751875)" gradientUnits="userSpaceOnUse" xlink:href="#linearGradient7944"/></defs><metadata id="metadata5620"/><g id="layer1" style="display:inline"><rect style="opacity:.27074238;color:#000;fill:#000;fill-opacity:1;fill-rule:evenodd;stroke:none;stroke-width:.9999997px;stroke-linecap:butt;stroke-linejoin:miter;marker:none;marker-start:none;marker-mid:none;marker-end:none;stroke-miterlimit:4;stroke-dasharray:none;stroke-dashoffset:0;stroke-opacity:1;visibility:visible;display:inline;overflow:visible;filter:url(#filter6052);enable-background:accumulate" id="rect7962" width="20" height="4" x="25" y="41" rx="1.822" ry="1.773" transform="matrix(0.8973651,0,0,0.9222777,-20.41218,-20.556527)"/><path id="path7964" d="M 4.1703,0.4999994 L 15.12545,0.4999994 L 19.5,4.7265035 L 19.5,18.853817 C 19.5,19.759092 18.73197,20.487886 17.77796,20.487886 L 4.1703,20.487886 C 3.21629,20.487886 2.44826,19.759092 2.44826,18.853817 L 2.44826,2.1340671 C 2.44826,1.2287924 3.21629,0.4999994 4.1703,0.4999994 z" style="color:#000;fill:url(#linearGradient8447);fill-opacity:1;fill-rule:evenodd;stroke:#888a85;stroke-width:.9999997px;stroke-linecap:butt;stroke-linejoin:miter;marker:none;marker-start:none;marker-mid:none;marker-end:none;stroke-miterlimit:4;stroke-dashoffset:0;stroke-opacity:1;visibility:visible;display:inline;overflow:visible;enable-background:accumulate"/><path style="opacity:1;color:#000;fill:none;fill-opacity:1;fill-rule:evenodd;stroke:#fff;stroke-width:.99999994;stroke-linecap:butt;stroke-linejoin:miter;marker:none;marker-start:none;marker-mid:none;marker-end:none;stroke-miterlimit:4;stroke-dasharray:none;stroke-dashoffset:0;stroke-opacity:1;visibility:visible;display:inline;overflow:visible;enable-background:accumulate" id="path7966" d="M 11.01358,5.4965115 C 7.42073,5.4965115 4.49666,8.416609 4.49666,12.004569 C 4.49666,15.592529 7.42073,18.485511 11.01358,18.485511 C 14.60642,18.485511 17.50333,15.592529 17.50333,12.004569 C 17.50333,8.416609 14.60642,5.4965115 11.01358,5.4965115 z M 11.01358,9.951334 C 12.1485,9.951334 13.0696,10.871184 13.0696,12.004569 C 13.0696,13.137956 12.1485,14.057806 11.01358,14.057806 C 9.87865,14.057806 8.95755,13.137956 8.95755,12.004569 C 8.95755,10.871184 9.87865,9.951334 11.01358,9.951334 z"/><path id="path7968" d="M 11.01358,4.4965115 C 7.42073,4.4965115 4.49666,7.416609 4.49666,11.004569 C 4.49666,14.592529 7.42073,17.485511 11.01358,17.485511 C 14.60642,17.485511 17.50333,14.592529 17.50333,11.004569 C 17.50333,7.416609 14.60642,4.4965115 11.01358,4.4965115 z M 11.01358,9.477367 C 11.85774,9.477367 12.54286,10.161554 12.54286,11.004569 C 12.54286,11.847586 11.85774,12.531772 11.01358,12.531772 C 10.16941,12.531772 9.4843,11.847586 9.4843,11.004569 C 9.4843,10.161554 10.16941,9.477367 11.01358,9.477367 z" style="opacity:1;color:#000;fill:url(#linearGradient8445);fill-opacity:1;fill-rule:evenodd;stroke:#888a85;stroke-width:1.00000048px;stroke-linecap:round;stroke-linejoin:miter;marker:none;marker-start:none;marker-mid:none;marker-end:none;stroke-miterlimit:4;stroke-dasharray:none;stroke-dashoffset:0;stroke-opacity:1;visibility:visible;display:inline;overflow:visible;enable-background:accumulate"/><path id="path7970" d="M 11.01176,7.995086 C 9.35316,7.995086 8,9.346413 8,11.002759 C 8,12.659107 9.35316,13.986937 11.01176,13.986937 C 12.67037,13.986937 14,12.659107 14,11.002759 C 14,9.346413 12.67037,7.995086 11.01176,7.995086 z M 11.01176,8.793999 C 12.23821,8.793999 13.22353,9.777982 13.22353,11.002759 C 13.22353,12.227537 12.23821,13.211521 11.01176,13.211521 C 9.78532,13.211521 8.8,12.227537 8.8,11.002759 C 8.8,9.777982 9.78532,8.793999 11.01176,8.793999 z" style="opacity:1;color:#000;fill:#000;fill-opacity:.1081081;fill-rule:evenodd;stroke:none;stroke-width:2.52428889px;stroke-linecap:round;stroke-linejoin:miter;marker:none;marker-start:none;marker-mid:none;marker-end:none;stroke-miterlimit:4;stroke-dasharray:none;stroke-dashoffset:0;stroke-opacity:1;visibility:visible;display:inline;overflow:visible;enable-background:accumulate"/><path style="opacity:1;color:#000;fill:none;fill-opacity:1;fill-rule:evenodd;stroke:#fff;stroke-width:3.90769362px;stroke-linecap:round;stroke-linejoin:miter;marker:none;marker-start:none;marker-mid:none;marker-end:none;stroke-miterlimit:4;stroke-dasharray:none;stroke-dashoffset:0;stroke-opacity:.56756759;visibility:visible;display:inline;overflow:visible;enable-background:accumulate" id="path7972" d="M 45.402216 24.538368 A 21.456448 21.456448 0 1 1 2.4893208,24.538368 A 21.456448 21.456448 0 1 1 45.402216 24.538368 z" transform="matrix(0.2560799,0,0,0.2557312,4.87341,4.7212126)"/><path id="path7974" d="M 16.85291,9.321028 C 16.51817,8.222091 15.84249,7.225858 14.99174,6.495822 C 14.36517,7.243481 14.1156,8.059832 12.92209,9.457922 C 13.11701,9.616299 13.26716,9.827125 13.33908,10.074516 L 16.85291,9.321028 z M 9.3257,12.954869 C 9.16967,12.813559 9.04738,12.637419 8.97822,12.433804 L 5.40007,12.932548 C 5.74749,13.984541 6.38163,14.904668 7.207,15.607351 C 7.90335,14.797396 8.04353,14.45111 9.3257,12.954869 z" style="opacity:1;color:#000;fill:#000;fill-opacity:.07207205;fill-rule:evenodd;stroke:none;stroke-width:1px;stroke-linecap:butt;stroke-linejoin:miter;marker:none;marker-start:none;marker-mid:none;marker-end:none;stroke-miterlimit:4;stroke-dasharray:none;stroke-dashoffset:0;stroke-opacity:1;visibility:visible;display:inline;overflow:visible;enable-background:accumulate"/><path style="opacity:1;fill:#000;fill-opacity:.11711713;fill-rule:evenodd;stroke:none;stroke-width:1px;stroke-linecap:butt;stroke-linejoin:miter;stroke-opacity:1;display:inline" id="path7976" d="M 9.18406,5.0831626 C 7.98292,5.438952 6.92553,6.1179 6.1276,7.022134 C 6.94479,7.688088 8.10468,8.370811 9.6328,9.639338 C 9.80591,9.432168 10.03634,9.272586 10.30674,9.196145 L 9.18406,5.0831626 z M 12.276,12.301359 C 12.18073,12.810143 11.92903,12.597179 11.70647,12.670688 L 13.1328,17.187886 C 14.28262,16.818629 15.28833,16.144626 16.05637,15.267379 C 15.17109,14.527254 13.9114,13.664129 12.276,12.301359 z"/><path style="color:#000;fill:none;fill-opacity:1;fill-rule:evenodd;stroke:#fff;stroke-width:.99999994;stroke-linecap:butt;stroke-linejoin:miter;marker:none;marker-start:none;marker-mid:none;marker-end:none;stroke-miterlimit:4;stroke-dasharray:none;stroke-dashoffset:0;stroke-opacity:1;visibility:visible;display:inline;overflow:visible;enable-background:accumulate" id="path7978" d="M 4.70485,1.5 L 14.5834,1.5 L 18.5,5.6726158 L 18.46521,18.358418 C 18.46521,19.264241 18.02604,19.500001 17.072,19.500001 L 4.52844,19.500001 C 3.5744,19.500001 3.5,19.466267 3.5,18.560444 L 3.5,2.336887 C 3.5,1.4310641 3.7508,1.5 4.70485,1.5 z"/><path style="fill:url(#linearGradient8443);fill-opacity:1;fill-rule:evenodd;stroke:none;stroke-width:1px;stroke-linecap:butt;stroke-linejoin:miter;stroke-opacity:1;display:inline" id="path7980" d="M 15.48885,2.591176 L 19.47442,6.216667 L 19.48885,7.024673 L 15.51783,7.024673 L 15.48885,2.591176 z"/><path id="path7982" d="M 19.5,5.5000002 L 14.53325,5.5000002 L 14.5,0.5" style="fill:url(#linearGradient8439);fill-opacity:1;fill-rule:evenodd;stroke:url(#linearGradient8441);stroke-width:.99999994px;stroke-linecap:butt;stroke-linejoin:miter;stroke-opacity:1;display:inline"/><g style="display:inline" id="g7984" transform="translate(0,-1.0000002)"><path style="opacity:1;color:#000;fill:url(#radialGradient8437);fill-opacity:1;fill-rule:evenodd;stroke:none;stroke-width:1.01691592;stroke-linecap:square;stroke-linejoin:round;marker:none;marker-start:none;marker-mid:none;marker-end:none;stroke-miterlimit:4;stroke-dasharray:none;stroke-dashoffset:0;stroke-opacity:1;visibility:visible;display:inline;overflow:visible;enable-background:accumulate" id="path7986" d="M 41.790184 7.2211123 A 5.1705894 5.1705894 0 1 1 31.449005,7.2211123 A 5.1705894 5.1705894 0 1 1 41.790184 7.2211123 z" transform="matrix(0.9670077,0,0,0.9670077,-18.41143,-1.9828713)"/><path style="opacity:1;color:#000;fill:#fff;fill-opacity:1;fill-rule:evenodd;stroke:#edd400;stroke-width:1.14791918;stroke-linecap:square;stroke-linejoin:round;marker:none;marker-start:none;marker-mid:none;marker-end:none;stroke-miterlimit:4;stroke-dasharray:none;stroke-dashoffset:0;stroke-opacity:1;visibility:visible;display:inline;overflow:visible;enable-background:accumulate" id="path7988" d="M 34.55793,8.2210126 L 33.188741,5.4467331 L 30.127142,5.0018567 L 32.342536,2.8423812 L 31.819552,-0.20684715 L 34.55793,1.2328031 L 37.296308,-0.20684729 L 36.773324,2.842381 L 38.988718,5.0018565 L 35.927119,5.4467329 L 34.55793,8.2210126 z" transform="matrix(0.9093533,0,0,0.8345354,-13.954519,1.6726214)"/></g><path style="opacity:1;color:#000;fill:#fff;fill-opacity:.75225226;fill-rule:evenodd;stroke:none;stroke-width:1px;stroke-linecap:butt;stroke-linejoin:miter;marker:none;marker-start:none;marker-mid:none;marker-end:none;stroke-miterlimit:4;stroke-dasharray:none;stroke-dashoffset:0;stroke-opacity:1;visibility:visible;display:inline;overflow:visible;enable-background:accumulate" id="path7990" d="M 15.99352,7.557815 C 15.32339,6.624739 14.36341,5.8984777 13.32318,5.4805573 C 12.97011,6.389911 12.99611,7.243162 12.31519,8.950635 C 12.55066,9.037975 12.7606,9.189367 12.90821,9.400524 L 15.99352,7.557815 z M 10.03332,13.417817 C 9.84015,13.334143 9.66775,13.206645 9.53682,13.036057 L 6.30873,14.658202 C 6.97579,15.542751 7.87198,16.21029 8.87938,16.610465 C 9.27851,15.619694 9.29997,15.24673 10.03332,13.417817 z"/></g></svg>