<svg xmlns="http://www.w3.org/2000/svg" xmlns:cc="http://web.resource.org/cc/" xmlns:svg="http://www.w3.org/2000/svg" xmlns:xlink="http://www.w3.org/1999/xlink" id="svg5615" width="16" height="16" version="1.0"><defs id="defs5617"><linearGradient id="linearGradient5911"><stop style="stop-color:#fcaf3e;stop-opacity:1" id="stop5913" offset="0"/><stop style="stop-color:#f57900;stop-opacity:1" id="stop5915" offset="1"/></linearGradient><linearGradient id="linearGradient5917" x1="10.455" x2="10.455" y1="21.968" y2="30.653" gradientTransform="matrix(0.625,0,0,0.6206086,0.1874999,-4.5425087)" gradientUnits="userSpaceOnUse" xlink:href="#linearGradient5911"/><linearGradient id="linearGradient6672"><stop style="stop-color:#fff;stop-opacity:1" id="stop6674" offset="0"/><stop style="stop-color:#fff;stop-opacity:0" id="stop6676" offset="1"/></linearGradient><linearGradient id="linearGradient6565"><stop style="stop-color:#000;stop-opacity:1" id="stop6567" offset="0"/><stop style="stop-color:#000;stop-opacity:0" id="stop6569" offset="1"/></linearGradient><radialGradient id="radialGradient7284" cx="23.946" cy="24.538" r="21.456" fx="23.946" fy="24.538" gradientUnits="userSpaceOnUse" xlink:href="#linearGradient6565"/><linearGradient id="linearGradient5912"><stop style="stop-color:#ebebe8;stop-opacity:1" id="stop5914" offset="0"/><stop style="stop-color:#eeeeec;stop-opacity:1" id="stop5916" offset="1"/></linearGradient><linearGradient id="linearGradient7286" x1="9.295" x2="13.387" y1="5.661" y2="33.642" gradientUnits="userSpaceOnUse" xlink:href="#linearGradient5912"/><linearGradient id="linearGradient6678" x1="43.282" x2="28.477" y1="37.464" y2="37.465" gradientUnits="userSpaceOnUse" xlink:href="#linearGradient6672"/><radialGradient id="radialGradient6710" cx="23.946" cy="24.538" r="21.456" fx="23.946" fy="24.538" gradientUnits="userSpaceOnUse" xlink:href="#linearGradient6565"/><linearGradient id="linearGradient6712" x1="9.295" x2="13.387" y1="5.661" y2="33.642" gradientUnits="userSpaceOnUse" xlink:href="#linearGradient5912"/><linearGradient id="linearGradient6714" x1="43.205" x2="28.453" y1="37.464" y2="37.465" gradientUnits="userSpaceOnUse" xlink:href="#linearGradient6672"/><radialGradient id="radialGradient6746" cx="23.946" cy="24.538" r="21.456" fx="23.946" fy="24.538" gradientUnits="userSpaceOnUse" xlink:href="#linearGradient6565"/><linearGradient id="linearGradient6748" x1="9.295" x2="13.387" y1="5.661" y2="33.642" gradientUnits="userSpaceOnUse" xlink:href="#linearGradient5912"/><linearGradient id="linearGradient6753" x1="43.282" x2="28.477" y1="37.464" y2="37.465" gradientTransform="matrix(0.6345368,0,0,0.5552197,-43.62219,-25.574755)" gradientUnits="userSpaceOnUse" xlink:href="#linearGradient6672"/><linearGradient id="linearGradient6789" x1="9.295" x2="13.387" y1="5.661" y2="33.642" gradientTransform="matrix(0.3491086,0,0,0.3491086,-0.3690428,-0.5759246)" gradientUnits="userSpaceOnUse" xlink:href="#linearGradient5912"/><linearGradient id="linearGradient6815" x1="43.282" x2="28.477" y1="37.464" y2="37.465" gradientTransform="matrix(0.5044,0,0,0.789146,-3.3886096,-9.1055033)" gradientUnits="userSpaceOnUse" xlink:href="#linearGradient6672"/></defs><metadata id="metadata5620"/><g id="layer1"><path style="opacity:1;color:#000;fill:url(#linearGradient6789);fill-opacity:1;fill-rule:evenodd;stroke:#888a85;stroke-width:1.00000048px;stroke-linecap:round;stroke-linejoin:miter;marker:none;marker-start:none;marker-mid:none;marker-end:none;stroke-miterlimit:4;stroke-dasharray:none;stroke-dashoffset:0;stroke-opacity:1;visibility:visible;display:inline;overflow:visible;enable-background:accumulate" id="path6761" d="M 8 0.5 C 3.865172 0.5 0.50000001 3.8651722 0.5 8 C 0.5 12.134828 3.8651718 15.46875 8 15.46875 C 12.134828 15.46875 15.46875 12.134828 15.46875 8 C 15.46875 3.865172 12.134828 0.49999998 8 0.5 z M 8 5.5 C 9.3800004 5.4999998 10.5 6.6199999 10.5 8 C 10.5 9.38 9.3800001 10.5 8 10.5 C 6.6200002 10.5 5.5 9.3800001 5.5 8 C 5.5000002 6.6199999 6.6199999 5.5 8 5.5 z"/><path style="opacity:1;color:#000;fill:#000;fill-opacity:.1081081;fill-rule:evenodd;stroke:none;stroke-width:2.52428889px;stroke-linecap:round;stroke-linejoin:miter;marker:none;marker-start:none;marker-mid:none;marker-end:none;stroke-miterlimit:4;stroke-dasharray:none;stroke-dashoffset:0;stroke-opacity:1;visibility:visible;display:inline;overflow:visible;enable-background:accumulate" id="path6763" d="M 8 4 C 5.7971728 4 4 5.7971717 4 8 C 4 10.202828 5.797173 11.96875 8 11.96875 C 10.202827 11.96875 11.96875 10.202828 11.96875 8 C 11.96875 5.7971717 10.202827 4.0000001 8 4 z M 8 4.96875 C 9.6759582 4.9687499 11.03125 6.3240419 11.03125 8 C 11.03125 9.6759578 9.6759581 11.03125 8 11.03125 C 6.324042 11.03125 4.96875 9.6759581 4.96875 8 C 4.9687498 6.3240416 6.3240419 4.96875 8 4.96875 z"/><path id="path6765" d="M 45.402216,24.538368 A 21.456448,21.456448 0 1 1 2.4893208,24.538368 A 21.456448,21.456448 0 1 1 45.402216,24.538368 z" transform="matrix(0.303376,0,0,0.303376,0.7260582,0.5462776)" style="opacity:1;color:#000;fill:none;fill-opacity:1;fill-rule:evenodd;stroke:#fff;stroke-width:3.29624057px;stroke-linecap:round;stroke-linejoin:miter;marker:none;marker-start:none;marker-mid:none;marker-end:none;stroke-miterlimit:4;stroke-dasharray:none;stroke-dashoffset:0;stroke-opacity:.56756759;visibility:visible;display:inline;overflow:visible;enable-background:accumulate"/><path style="fill:#fff;fill-opacity:.28828831;fill-rule:evenodd;stroke:none;stroke-width:1px;stroke-linecap:butt;stroke-linejoin:miter;stroke-opacity:1" id="path6771" d="M 14.720215,6.0598575 C 14.33497,4.7934229 13.557373,3.645347 12.578278,2.8040409 C 11.857189,3.6656564 11.569972,4.606433 10.196419,6.217616 C 10.420744,6.4001335 10.593538,6.6430932 10.676307,6.9281901 L 14.720215,6.0598575 z M 6.057508,10.247559 C 5.8779362,10.084711 5.7371996,9.8817255 5.6576022,9.6470747 L 1.5396781,10.221836 C 1.9395083,11.434171 2.6693119,12.494542 3.6191886,13.304326 C 4.420591,12.37092 4.581913,11.971853 6.057508,10.247559 z"/><path id="path6773" d="M 5.8944991,1.1760673 C 4.5121569,1.5860848 3.2952606,2.368517 2.3769557,3.4105723 C 3.31743,4.178029 4.6522884,4.9648114 6.4109314,6.426683 C 6.6101528,6.187937 6.8753497,6.004032 7.1865397,5.9159387 L 5.8944991,1.1760673 z M 9.452862,9.4944432 C 9.3432227,10.080775 9.0535458,9.8353496 8.7974183,9.9200636 L 10.438905,15.125762 C 11.762194,14.700224 12.919612,13.923491 13.803512,12.912537 C 12.784678,12.059603 11.334967,11.064923 9.452862,9.4944432 z" style="fill:#000;fill-opacity:.04054057;fill-rule:evenodd;stroke:none;stroke-width:1px;stroke-linecap:butt;stroke-linejoin:miter;stroke-opacity:1"/><path id="path6775" d="M 5.5946909,9.7687586 L 2.3454004,11.5 M 11.557399,3.567388 L 9.4057002,6.3249486" style="fill:none;fill-opacity:1;fill-rule:evenodd;stroke:#fff;stroke-width:.99999994px;stroke-linecap:butt;stroke-linejoin:miter;stroke-opacity:.36486487"/><path style="opacity:1;fill:url(#linearGradient5917);fill-opacity:1;stroke:#ce5c00;stroke-width:.99999988;stroke-opacity:1" id="rect4933" d="M 4.5307966,6.7980599 L 4.5307966,8.5259996 L 1.4374999,8.5259996 C 0.91812314,8.5259996 0.49999994,8.9411849 0.49999994,9.456913 L 0.49999994,11.615208 C 0.49999994,12.130934 0.91812314,12.546119 1.4374999,12.546119 L 4.5307966,12.546119 L 4.5307966,14.15148 L 8.5152846,10.44224 L 4.5307966,6.7980599 z"/><path id="path5909" d="M 5.5345783,8.9503025 L 5.5533907,9.502408 L 1.9208355,9.502408 C 1.4014585,9.502408 1.5142731,9.917594 1.5142731,10.433322 L 1.5142731,10.62483 C 1.5142731,11.140558 1.4367319,11.555743 1.9561089,11.555743 L 5.5533907,11.555743 L 5.5345783,11.996413 L 7.0995289,10.434257 L 5.5345783,8.9503025 z" style="opacity:1;fill:none;fill-opacity:1;stroke:#fff;stroke-width:.99999988;stroke-opacity:.31531528"/></g></svg>