<svg xmlns="http://www.w3.org/2000/svg" xmlns:cc="http://web.resource.org/cc/" xmlns:svg="http://www.w3.org/2000/svg" xmlns:xlink="http://www.w3.org/1999/xlink" id="svg2" width="16" height="16" version="1.0"><defs id="defs3"><linearGradient id="linearGradient5911"><stop style="stop-color:#fcaf3e;stop-opacity:1" id="stop5913" offset="0"/><stop style="stop-color:#f57900;stop-opacity:1" id="stop5915" offset="1"/></linearGradient><linearGradient id="linearGradient5917" x1="10.455" x2="10.455" y1="21.968" y2="30.653" gradientTransform="matrix(0.625,0,0,0.6206086,0.1722154,-6.5763167)" gradientUnits="userSpaceOnUse" xlink:href="#linearGradient5911"/><linearGradient id="linearGradient5946"><stop style="stop-color:#fff;stop-opacity:1" id="stop5948" offset="0"/><stop style="stop-color:#fff;stop-opacity:0" id="stop5950" offset="1"/></linearGradient><linearGradient id="linearGradient5893"><stop style="stop-color:#fcaf3e;stop-opacity:1" id="stop5895" offset="0"/><stop style="stop-color:#f57900;stop-opacity:1" id="stop5897" offset="1"/></linearGradient><linearGradient id="linearGradient5876"><stop style="stop-color:#fff;stop-opacity:1" id="stop5878" offset="0"/><stop style="stop-color:#ededed;stop-opacity:1" id="stop5880" offset="1"/></linearGradient><linearGradient id="linearGradient5882" x1="7.798" x2="12.953" y1="7.467" y2="13.499" gradientUnits="userSpaceOnUse" xlink:href="#linearGradient5876"/><linearGradient id="linearGradient5899" x1="7.577" x2="10.685" y1="5.133" y2="10.741" gradientTransform="matrix(0.9079916,0,0,0.9079992,14.279699,1.2332336)" gradientUnits="userSpaceOnUse" xlink:href="#linearGradient5893"/><linearGradient id="linearGradient5944" x1="3.761" x2="7.045" y1="3.46" y2="10.269" gradientUnits="userSpaceOnUse" xlink:href="#linearGradient5876"/><linearGradient id="linearGradient5952" x1="14.217" x2="7.735" y1="5.273" y2="9.067" gradientTransform="translate(13,0)" gradientUnits="userSpaceOnUse" xlink:href="#linearGradient5946"/></defs><metadata id="metadata6"/><g id="layer1"><path style="color:#000;fill:url(#linearGradient5944);fill-opacity:1;fill-rule:evenodd;stroke:#888a85;stroke-width:1;stroke-linecap:butt;stroke-linejoin:miter;stroke-miterlimit:4;stroke-dashoffset:0;stroke-opacity:1;marker:none;marker-start:none;marker-mid:none;marker-end:none;visibility:visible;display:inline;overflow:visible;enable-background:accumulate" id="rect4899" d="M 1.8093435,0.5 L 9.190656,0.5 C 9.8387276,0.58396497 11.321586,2.2777512 11.5,2.8093436 L 11.5,12.190656 C 11.5,12.916033 10.916033,13.5 10.190656,13.5 L 1.8093435,13.5 C 1.0839672,13.5 0.49999994,12.916033 0.49999994,12.190656 L 0.49999994,1.8093436 C 0.49999994,1.0839672 1.0839672,0.5 1.8093435,0.5 z"/><path style="color:#000;fill:none;fill-opacity:1;fill-rule:evenodd;stroke:#fff;stroke-width:.99999994;stroke-linecap:butt;stroke-linejoin:miter;marker:none;marker-start:none;marker-mid:none;marker-end:none;stroke-miterlimit:4;stroke-dashoffset:0;stroke-opacity:1;visibility:visible;display:inline;overflow:visible;enable-background:accumulate" id="rect5925" d="M 1.9031923,1.5 L 9.096808,1.5 L 10.5,2.9031924 L 10.5,12.096807 C 10.5,12.320175 10.320176,12.499999 10.096808,12.499999 L 1.9031923,12.499999 C 1.6798237,12.499999 1.4999999,12.320175 1.4999999,12.096807 L 1.4999999,1.9031924 C 1.4999999,1.6798238 1.6798237,1.5 1.9031923,1.5 z"/><path style="opacity:1;color:#000;fill:url(#linearGradient5882);fill-opacity:1;fill-rule:evenodd;stroke:#888a85;stroke-width:.80981535;stroke-linecap:butt;stroke-linejoin:miter;marker:none;marker-start:none;marker-mid:none;marker-end:none;stroke-miterlimit:4;stroke-dasharray:none;stroke-dashoffset:0;stroke-opacity:1;visibility:visible;display:inline;overflow:visible;enable-background:accumulate" id="path4903" d="M 15.113068 10.132662 A 4.8630757 4.8630757 0 1 1 5.3869166,10.132662 A 4.8630757 4.8630757 0 1 1 15.113068 10.132662 z" transform="matrix(1.2337871,0,0,1.2359127,-3.1463082,-3.0334225)"/><path id="path5874" d="M 15.113068 10.132662 A 4.8630757 4.8630757 0 1 1 5.3869166,10.132662 A 4.8630757 4.8630757 0 1 1 15.113068 10.132662 z" transform="matrix(0.4094647,0,0,0.4094647,5.2942478,5.3422908)" style="opacity:1;color:#000;fill:#fff;fill-opacity:1;fill-rule:evenodd;stroke:#888a85;stroke-width:2.44221354;stroke-linecap:butt;stroke-linejoin:miter;marker:none;marker-start:none;marker-mid:none;marker-end:none;stroke-miterlimit:4;stroke-dasharray:none;stroke-dashoffset:0;stroke-opacity:1;visibility:visible;display:inline;overflow:visible;enable-background:accumulate"/><path id="path5929" d="M 15.113068 10.132662 A 4.8630757 4.8630757 0 1 1 5.3869166,10.132662 A 4.8630757 4.8630757 0 1 1 15.113068 10.132662 z" transform="matrix(1.0281559,0,0,1.0281559,-1.0385902,-0.9179561)" style="opacity:1;color:#000;fill:none;fill-opacity:1;fill-rule:evenodd;stroke:#fff;stroke-width:.97261512;stroke-linecap:butt;stroke-linejoin:miter;marker:none;marker-start:none;marker-mid:none;marker-end:none;stroke-miterlimit:4;stroke-dasharray:none;stroke-dashoffset:0;stroke-opacity:1;visibility:visible;display:inline;overflow:visible;enable-background:accumulate"/><path id="path6773" d="M 7.8117752,4.028764 C 6.7544439,4.3498776 5.8236593,4.9626551 5.1212627,5.778762 C 5.8406163,6.3798113 6.8616282,6.9959959 8.2067865,8.1408903 C 8.3591672,7.9539115 8.5620117,7.8098826 8.8000358,7.7408905 L 7.8117752,4.028764 z M 10.53351,10.543469 C 10.449649,11.002667 10.22808,10.810456 10.032172,10.876801 L 11.287718,14.953751 C 12.29988,14.620482 13.185171,14.012167 13.861252,13.22042 C 13.081963,12.552427 11.973102,11.773422 10.53351,10.543469 z" style="fill:#000;fill-opacity:.1981982;fill-rule:evenodd;stroke:none;stroke-width:1px;stroke-linecap:butt;stroke-linejoin:miter;stroke-opacity:1"/><path style="fill:none;fill-rule:evenodd;stroke:#888a85;stroke-width:1.00000012px;stroke-linecap:butt;stroke-linejoin:miter;stroke-opacity:1" id="path5935" d="M 8.4999994,0.53993257 L 8.5079362,3.5 L 11.15446,3.5"/><path style="opacity:1;fill:url(#linearGradient5917);fill-opacity:1;stroke:#ce5c00;stroke-width:.99999988;stroke-opacity:1" id="rect4933" d="M 4.5155121,4.7642519 L 4.5155121,6.4921916 L 1.4222154,6.4921916 C 0.9028386,6.4921916 0.4847154,6.9073769 0.4847154,7.423101 L 0.4847154,9.581396 C 0.4847154,10.097122 0.9028386,10.512307 1.4222154,10.512307 L 4.5155121,10.512307 L 4.5155121,12.117668 L 8.5,8.408428 L 4.5155121,4.7642519 z"/><path id="path5909" d="M 5.5192938,7.0174289 L 5.5381062,7.468596 L 1.905551,7.468596 C 1.386174,7.468596 1.4989886,7.883782 1.4989886,8.39951 L 1.4989886,8.591018 C 1.4989886,9.106746 1.4214474,9.521931 1.9408244,9.521931 L 5.5381062,9.521931 L 5.5192938,9.7663397 L 7.0842444,8.400445 L 5.5192938,7.0174289 z" style="opacity:1;fill:none;fill-opacity:1;stroke:#fff;stroke-width:.99999988;stroke-opacity:.31531528"/><path style="fill:#000;fill-opacity:.11711711;fill-rule:evenodd;stroke:none;stroke-width:1px;stroke-linecap:butt;stroke-linejoin:miter;stroke-opacity:1" id="path6508" d="M 14.670242,7.0751426 C 14.206507,6.0721407 13.471325,5.2346656 12.566222,4.6514159 C 12.070022,5.4467242 11.600395,6.542899 10.651764,8.032977 C 10.857955,8.1581414 11.028559,8.3392061 11.129689,8.5654538 L 14.670242,7.0751426 z M 8.5926889,10.668549 C 8.1263158,10.648758 8.2861646,10.402819 8.1934591,10.217921 L 4.3283904,12.023235 C 4.7979418,12.979824 5.5224349,13.772854 6.3997843,14.333396 C 6.9540315,13.4695 7.5728217,12.263879 8.5926889,10.668549 z"/></g></svg>