<svg xmlns="http://www.w3.org/2000/svg" xmlns:cc="http://web.resource.org/cc/" xmlns:svg="http://www.w3.org/2000/svg" xmlns:xlink="http://www.w3.org/1999/xlink" id="svg5615" width="22" height="22" version="1.0"><defs id="defs5617"><linearGradient id="linearGradient15662"><stop style="stop-color:#fff;stop-opacity:1" id="stop15664" offset="0"/><stop style="stop-color:#f8f8f8;stop-opacity:1" id="stop15666" offset="1"/></linearGradient><linearGradient id="linearGradient269"><stop style="stop-color:#a3a3a3;stop-opacity:1" id="stop270" offset="0"/><stop style="stop-color:#8a8a8a;stop-opacity:1" id="stop271" offset="1"/></linearGradient><linearGradient id="linearGradient259"><stop style="stop-color:#fafafa;stop-opacity:1" id="stop260" offset="0"/><stop style="stop-color:#bbb;stop-opacity:1" id="stop261" offset="1"/></linearGradient><linearGradient id="linearGradient3702"><stop id="stop3704" offset="0" style="stop-color:black;stop-opacity:0"/><stop style="stop-color:black;stop-opacity:1" id="stop3710" offset=".5"/><stop id="stop3706" offset="1" style="stop-color:black;stop-opacity:0"/></linearGradient><linearGradient id="linearGradient6343"><stop style="stop-color:#fce94f;stop-opacity:1" id="stop6345" offset="0"/><stop style="stop-color:#fce94f;stop-opacity:0" id="stop6347" offset="1"/></linearGradient><radialGradient id="radialGradient6349" cx="36.62" cy="7.221" r="5.171" fx="36.62" fy="7.221" gradientUnits="userSpaceOnUse" xlink:href="#linearGradient6343"/><linearGradient id="linearGradient6672"><stop style="stop-color:#fff;stop-opacity:1" id="stop6674" offset="0"/><stop style="stop-color:#fff;stop-opacity:0" id="stop6676" offset="1"/></linearGradient><linearGradient id="linearGradient6565"><stop style="stop-color:#000;stop-opacity:1" id="stop6567" offset="0"/><stop style="stop-color:#000;stop-opacity:0" id="stop6569" offset="1"/></linearGradient><linearGradient id="linearGradient5912"><stop style="stop-color:#ebebe8;stop-opacity:1" id="stop5914" offset="0"/><stop style="stop-color:#eeeeec;stop-opacity:1" id="stop5916" offset="1"/></linearGradient><radialGradient id="radialGradient6710" cx="23.946" cy="24.538" r="21.456" fx="23.946" fy="24.538" gradientUnits="userSpaceOnUse" xlink:href="#linearGradient6565"/><linearGradient id="linearGradient6712" x1="9.295" x2="13.387" y1="5.661" y2="33.642" gradientUnits="userSpaceOnUse" xlink:href="#linearGradient5912"/><linearGradient id="linearGradient6714" x1="43.205" x2="28.453" y1="37.464" y2="37.465" gradientUnits="userSpaceOnUse" xlink:href="#linearGradient6672"/><radialGradient id="radialGradient6746" cx="23.946" cy="24.538" r="21.456" fx="23.946" fy="24.538" gradientUnits="userSpaceOnUse" xlink:href="#linearGradient6565"/><linearGradient id="linearGradient6748" x1="9.295" x2="13.387" y1="5.661" y2="33.642" gradientUnits="userSpaceOnUse" xlink:href="#linearGradient5912"/><linearGradient id="linearGradient6789" x1="9.295" x2="13.387" y1="5.661" y2="33.642" gradientUnits="userSpaceOnUse" xlink:href="#linearGradient5912"/><linearGradient id="linearGradient6815" x1="43.282" x2="28.477" y1="37.464" y2="37.465" gradientTransform="matrix(0.5044,0,0,0.789146,-3.3886096,-9.1055033)" gradientUnits="userSpaceOnUse" xlink:href="#linearGradient6672"/><linearGradient id="linearGradient6830" x1="43.282" x2="28.477" y1="37.464" y2="37.465" gradientTransform="matrix(0.5044,0,0,0.789146,-3.3886096,-9.1055033)" gradientUnits="userSpaceOnUse" xlink:href="#linearGradient6672"/><linearGradient id="linearGradient5183" x1="43.282" x2="28.477" y1="37.464" y2="37.465" gradientTransform="matrix(0.5044,0,0,0.789146,-3.3886096,-9.1055033)" gradientUnits="userSpaceOnUse" xlink:href="#linearGradient6672"/><linearGradient id="linearGradient5181" x1="43.282" x2="28.477" y1="37.464" y2="37.465" gradientTransform="matrix(0.5044,0,0,0.789146,-3.3886096,-9.1055033)" gradientUnits="userSpaceOnUse" xlink:href="#linearGradient6672"/><linearGradient id="linearGradient5179" x1="9.295" x2="13.387" y1="5.661" y2="33.642" gradientUnits="userSpaceOnUse" xlink:href="#linearGradient5912"/><linearGradient id="linearGradient5177" x1="43.282" x2="28.477" y1="37.464" y2="37.465" gradientTransform="matrix(0.6345368,0,0,0.5552197,-19.580565,-1.5331267)" gradientUnits="userSpaceOnUse" xlink:href="#linearGradient6672"/><linearGradient id="linearGradient5175" x1="9.295" x2="13.387" y1="5.661" y2="33.642" gradientUnits="userSpaceOnUse" xlink:href="#linearGradient5912"/><radialGradient id="radialGradient5173" cx="23.946" cy="24.538" r="21.456" fx="23.946" fy="24.538" gradientUnits="userSpaceOnUse" xlink:href="#linearGradient6565"/><linearGradient id="linearGradient5171" x1="43.205" x2="28.453" y1="37.464" y2="37.465" gradientUnits="userSpaceOnUse" xlink:href="#linearGradient6672"/><linearGradient id="linearGradient5169" x1="9.295" x2="13.387" y1="5.661" y2="33.642" gradientUnits="userSpaceOnUse" xlink:href="#linearGradient5912"/><radialGradient id="radialGradient5167" cx="23.946" cy="24.538" r="21.456" fx="23.946" fy="24.538" gradientUnits="userSpaceOnUse" xlink:href="#linearGradient6565"/><linearGradient id="linearGradient6678" x1="43.282" x2="28.477" y1="37.464" y2="37.465" gradientUnits="userSpaceOnUse" xlink:href="#linearGradient6672"/><linearGradient id="linearGradient5164" x1="9.295" x2="13.387" y1="5.661" y2="33.642" gradientUnits="userSpaceOnUse" xlink:href="#linearGradient5912"/><radialGradient id="radialGradient5156" cx="23.946" cy="24.538" r="21.456" fx="23.946" fy="24.538" gradientUnits="userSpaceOnUse" xlink:href="#linearGradient6565"/><linearGradient id="linearGradient4967" x1="9.295" x2="13.387" y1="5.661" y2="33.642" gradientTransform="matrix(0.4893634,0,0,0.4893634,-0.718182,-1.0081789)" gradientUnits="userSpaceOnUse" xlink:href="#linearGradient5912"/></defs><metadata id="metadata5620"/><g id="layer1"><path style="opacity:.38864632;color:#000;fill:url(#radialGradient6746);fill-opacity:1;fill-rule:evenodd;stroke:none;stroke-width:1.50133264px;stroke-linecap:round;stroke-linejoin:miter;marker:none;marker-start:none;marker-mid:none;marker-end:none;stroke-miterlimit:4;stroke-dasharray:none;stroke-dashoffset:0;stroke-opacity:1;visibility:visible;display:inline;overflow:visible;enable-background:accumulate" id="path6716" d="M 45.402216 24.538368 A 21.456448 21.456448 0 1 1 2.4893208,24.538368 A 21.456448 21.456448 0 1 1 45.402216 24.538368 z" transform="matrix(0.5148695,0,0,0.2330302,-1.281675,12.281819)"/><path style="color:#000;fill:url(#linearGradient4967);fill-opacity:1;fill-rule:evenodd;stroke:#888a85;stroke-width:1.00000048px;stroke-linecap:round;stroke-linejoin:miter;marker:none;marker-start:none;marker-mid:none;marker-end:none;stroke-miterlimit:4;stroke-dasharray:none;stroke-dashoffset:0;stroke-opacity:1;visibility:visible;display:inline;overflow:visible;enable-background:accumulate" id="path6718" d="M 11 0.5 C 5.2039999 0.5 0.49999999 5.2040003 0.5 11 C 0.5 16.796 5.2039996 21.500001 11 21.5 C 16.796 21.5 21.500001 16.796 21.5 11 C 21.5 5.2039999 16.796 0.50000002 11 0.5 z M 11 8.5 C 12.38 8.5000001 13.5 9.6199999 13.5 11 C 13.5 12.38 12.38 13.5 11 13.5 C 9.6199996 13.5 8.5 12.38 8.5 11 C 8.5000005 9.6200002 9.6199999 8.5 11 8.5 z"/><path style="color:#000;fill:#000;fill-opacity:.1081081;fill-rule:evenodd;stroke:none;stroke-width:2.52428889px;stroke-linecap:round;stroke-linejoin:miter;marker:none;marker-start:none;marker-mid:none;marker-end:none;stroke-miterlimit:4;stroke-dasharray:none;stroke-dashoffset:0;stroke-opacity:1;visibility:visible;display:inline;overflow:visible;enable-background:accumulate" id="path6720" d="M 11 6 C 8.240001 6 6.0000001 8.2400002 6 11 C 6 13.76 8.2400007 16.000001 11 16 C 13.759999 16 16 13.760001 16 11 C 16 8.2399998 13.759999 6.0000001 11 6 z M 11 8.0625 C 12.629228 8.0625 13.9375 9.3707722 13.9375 11 C 13.9375 12.629227 12.629228 13.9375 11 13.9375 C 9.3707722 13.9375 8.0625 12.629228 8.0625 11 C 8.0625003 9.3707719 9.3707722 8.0625 11 8.0625 z"/><path style="color:#000;fill:none;fill-opacity:1;fill-rule:evenodd;stroke:#fff;stroke-width:2.25857425px;stroke-linecap:round;stroke-linejoin:miter;marker:none;marker-start:none;marker-mid:none;marker-end:none;stroke-miterlimit:4;stroke-dasharray:none;stroke-dashoffset:0;stroke-opacity:.56756759;visibility:visible;display:inline;overflow:visible;enable-background:accumulate" id="path6722" d="M 45.402216 24.538368 A 21.456448 21.456448 0 1 1 2.4893208,24.538368 A 21.456448 21.456448 0 1 1 45.402216 24.538368 z" transform="matrix(0.4427573,0,0,0.4427573,0.397835,0.1354571)"/><path id="path6724" d="M 45.402216 24.538368 A 21.456448 21.456448 0 1 1 2.4893208,24.538368 A 21.456448 21.456448 0 1 1 45.402216 24.538368 z" transform="matrix(0.1631211,0,0,0.1631211,7.0939397,6.997274)" style="color:#000;fill:none;fill-opacity:1;fill-rule:evenodd;stroke:#fff;stroke-width:6.13041925px;stroke-linecap:round;stroke-linejoin:miter;marker:none;marker-start:none;marker-mid:none;marker-end:none;stroke-miterlimit:4;stroke-dasharray:none;stroke-dashoffset:0;stroke-opacity:.42342344;visibility:visible;display:inline;overflow:visible;enable-background:accumulate"/><path id="path6728" d="M 20.792388,8.1848427 C 20.231374,6.340593 19.098996,4.6687037 17.673184,3.4435489 C 16.623096,4.6982794 14.806711,6.9420444 12.806469,9.2883352 C 13.133143,9.5541269 13.384775,9.9079377 13.505308,10.323111 L 20.792388,8.1848427 z M 9.613205,12.860074 C 9.351703,12.622926 9.146755,12.327327 9.030841,11.985616 L 1.598187,14.245738 C 2.180441,16.011205 3.24322,17.555372 4.626481,18.734624 C 5.793526,17.37535 7.464365,15.371083 9.613205,12.860074 z" style="fill:#fff;fill-opacity:.28828831;fill-rule:evenodd;stroke:none;stroke-width:1px;stroke-linecap:butt;stroke-linejoin:miter;stroke-opacity:1"/><path style="fill:#000;fill-opacity:.04054057;fill-rule:evenodd;stroke:none;stroke-width:1px;stroke-linecap:butt;stroke-linejoin:miter;stroke-opacity:1" id="path6730" d="M 8.061746,1.4476782 C 6.124046,2.0224208 4.41826,3.1191961 3.131025,4.5798985 C 4.449336,5.6556819 7.020655,7.780915 9.485835,9.8300954 C 9.765094,9.495433 10.136834,9.2376439 10.573045,9.114159 L 8.061746,1.4476782 z M 12.808715,12.604347 C 12.559549,12.87225 12.248973,13.082213 11.889946,13.200961 L 14.431873,21.00168 C 16.286795,20.405182 17.909207,19.316397 19.148215,17.89929 C 17.720063,16.703688 15.446958,14.805769 12.808715,12.604347 z"/><path style="fill:none;fill-opacity:1;fill-rule:evenodd;stroke:#fff;stroke-width:.99999988px;stroke-linecap:butt;stroke-linejoin:miter;stroke-opacity:.36486487" id="path6732" d="M 8.744261,13.035934 L 2.758786,16.599371 M 17.805522,3.6133464 L 13.358534,8.9686623"/><path style="opacity:1;color:#000;fill:url(#radialGradient6349);fill-opacity:1;fill-rule:evenodd;stroke:none;stroke-width:1.01691592;stroke-linecap:square;stroke-linejoin:round;marker:none;marker-start:none;marker-mid:none;marker-end:none;stroke-miterlimit:4;stroke-dasharray:none;stroke-dashoffset:0;stroke-opacity:1;visibility:visible;display:inline;overflow:visible;enable-background:accumulate" id="path6341" d="M 41.790184 7.2211123 A 5.1705894 5.1705894 0 1 1 31.449005,7.2211123 A 5.1705894 5.1705894 0 1 1 41.790184 7.2211123 z" transform="matrix(0.870307,0,0,0.870307,-14.370288,-1.7845842)"/><path style="opacity:1;color:#000;fill:#fff;fill-opacity:1;fill-rule:evenodd;stroke:#fce94f;stroke-width:1.15635288;stroke-linecap:square;stroke-linejoin:round;marker:none;marker-start:none;marker-mid:none;marker-end:none;stroke-miterlimit:4;stroke-dasharray:none;stroke-dashoffset:0;stroke-opacity:1;visibility:visible;display:inline;overflow:visible;enable-background:accumulate" id="path5368" d="M 34.55793,8.2210126 L 33.188741,5.4467331 L 30.127142,5.0018567 L 32.342536,2.8423812 L 31.819552,-0.20684715 L 34.55793,1.2328031 L 37.296308,-0.20684729 L 36.773324,2.842381 L 38.988718,5.0018565 L 35.927119,5.4467329 L 34.55793,8.2210126 z" transform="matrix(0.902774,0,0,0.8284002,-13.697999,1.6713523)"/><path id="rect2931" d="M 21.155343,11.507997 L 12.849725,11.569834 C 12.660732,11.587361 12.507039,11.749999 12.507039,11.934922 L 12.517748,19.147942 C 12.161066,19.095329 11.996688,19.077496 11.570997,19.127079 C 10.248651,19.281103 9.4353848,19.968119 9.5040295,20.598802 C 9.572675,21.229484 10.708992,21.618603 12.031336,21.46458 C 13.35368,21.310559 14.607882,20.885755 14.539238,20.255073 L 14.482801,13.507345 L 19.503499,13.482978 L 19.500386,19.156552 C 18.218903,19.056721 16.377159,19.538121 16.510917,20.681654 C 16.588566,21.345503 17.903204,21.613636 19.224624,21.459612 C 20.546043,21.30559 21.563513,20.830551 21.494916,20.199869 L 21.498028,11.810497 C 21.498028,11.625575 21.344336,11.49047 21.155343,11.507997 z" style="color:#000;fill:#ff9c3b;fill-opacity:1;fill-rule:evenodd;stroke:#ce5c00;stroke-width:1.00000036;stroke-linecap:butt;stroke-linejoin:miter;marker:none;marker-start:none;marker-mid:none;marker-end:none;stroke-miterlimit:4;stroke-dasharray:none;stroke-dashoffset:0;stroke-opacity:1;visibility:visible;display:inline;overflow:visible"/></g></svg>