<svg xmlns="http://www.w3.org/2000/svg" xmlns:cc="http://web.resource.org/cc/" xmlns:svg="http://www.w3.org/2000/svg" xmlns:xlink="http://www.w3.org/1999/xlink" id="svg5615" width="32" height="32" version="1.0"><defs id="defs5617"><linearGradient id="linearGradient8146"><stop id="stop8148" offset="0" style="stop-color:#ebebe8;stop-opacity:1"/><stop id="stop8150" offset="1" style="stop-color:#fbfbfb;stop-opacity:1"/></linearGradient><linearGradient id="linearGradient7954"><stop id="stop7956" offset="0" style="stop-color:#fff;stop-opacity:1"/><stop id="stop7958" offset="1" style="stop-color:#e4e4e1;stop-opacity:1"/></linearGradient><linearGradient id="linearGradient7944"><stop id="stop7946" offset="0" style="stop-color:#dededa;stop-opacity:1"/><stop id="stop7948" offset="1" style="stop-color:#fff;stop-opacity:1"/></linearGradient><linearGradient id="linearGradient6343"><stop style="stop-color:#fce94f;stop-opacity:1" id="stop6345" offset="0"/><stop style="stop-color:#fce94f;stop-opacity:0" id="stop6347" offset="1"/></linearGradient><filter id="filter6052" width="1.283" height="2.415" x="-.141" y="-.707"><feGaussianBlur id="feGaussianBlur6054" stdDeviation="1.179"/></filter><linearGradient id="linearGradient6108"><stop style="stop-color:#000;stop-opacity:1" id="stop6110" offset="0"/><stop style="stop-color:#000;stop-opacity:0" id="stop6112" offset="1"/></linearGradient><linearGradient id="linearGradient4919"><stop style="stop-color:#888a85;stop-opacity:1" id="stop4921" offset="0"/><stop style="stop-color:#888a85;stop-opacity:0" id="stop4923" offset="1"/></linearGradient><linearGradient id="linearGradient6076"><stop style="stop-color:#fff;stop-opacity:1" id="stop6078" offset="0"/><stop style="stop-color:#cbcbcb;stop-opacity:1" id="stop6080" offset="1"/></linearGradient><linearGradient id="linearGradient6672"><stop style="stop-color:#fff;stop-opacity:1" id="stop6674" offset="0"/><stop style="stop-color:#fff;stop-opacity:0" id="stop6676" offset="1"/></linearGradient><linearGradient id="linearGradient6565"><stop style="stop-color:#000;stop-opacity:1" id="stop6567" offset="0"/><stop style="stop-color:#000;stop-opacity:0" id="stop6569" offset="1"/></linearGradient><linearGradient id="linearGradient5912"><stop style="stop-color:#ebebe8;stop-opacity:1" id="stop5914" offset="0"/><stop style="stop-color:#eeeeec;stop-opacity:1" id="stop5916" offset="1"/></linearGradient><linearGradient id="linearGradient6748" x1="9.295" x2="13.387" y1="5.661" y2="33.642" gradientTransform="matrix(0.4893634,0,0,0.4893634,107.28182,-91.008179)" gradientUnits="userSpaceOnUse" xlink:href="#linearGradient5912"/><linearGradient id="linearGradient6815" x1="43.282" x2="28.477" y1="37.464" y2="37.465" gradientTransform="matrix(0.5044,0,0,0.789146,-3.3886096,-9.1055033)" gradientUnits="userSpaceOnUse" xlink:href="#linearGradient6672"/><filter id="filter7168"><feGaussianBlur id="feGaussianBlur7170" stdDeviation="1.703"/></filter><radialGradient id="radialGradient8421" cx="36.62" cy="7.221" r="5.171" fx="36.62" fy="7.221" gradientUnits="userSpaceOnUse" xlink:href="#linearGradient6343"/><linearGradient id="linearGradient8423" x1="36.211" x2="18.193" y1="37.921" y2="11.671" gradientTransform="matrix(0.5825754,0,0,0.5825756,-49.95022,8.704547)" gradientUnits="userSpaceOnUse" xlink:href="#linearGradient8146"/><radialGradient id="radialGradient8425" cx="23.946" cy="24.538" r="21.456" fx="23.946" fy="24.538" gradientUnits="userSpaceOnUse" xlink:href="#linearGradient6565"/><linearGradient id="linearGradient8427" x1="17.688" x2="18.562" y1="4.528" y2="3.749" gradientTransform="matrix(1.3854229,0,0,1.5817473,-47.35948,-1.7165453)" gradientUnits="userSpaceOnUse" xlink:href="#linearGradient6076"/><linearGradient id="linearGradient8429" x1="18.977" x2="14.121" y1="6.559" y2="2.942" gradientTransform="matrix(1.0283037,0,0,1.1842757,-40.43871,6.89833e-2)" gradientUnits="userSpaceOnUse" xlink:href="#linearGradient4919"/><linearGradient id="linearGradient8431" x1="16.552" x2="16.552" y1="-.562" y2="7.836" gradientTransform="matrix(0.9803921,0,0,1.0330341,-38.70588,1.3039237)" gradientUnits="userSpaceOnUse" xlink:href="#linearGradient6108"/><linearGradient id="linearGradient8433" x1="-1.358" x2="17.17" y1="-13.379" y2="20.088" gradientTransform="matrix(2.1617708,0,0,2.0501246,-62.81629,-1.5751872)" gradientUnits="userSpaceOnUse" xlink:href="#linearGradient7944"/><radialGradient id="radialGradient8435" cx="36.62" cy="7.221" r="5.171" fx="36.62" fy="7.221" gradientUnits="userSpaceOnUse" xlink:href="#linearGradient6343"/><radialGradient id="radialGradient8437" cx="36.62" cy="7.221" r="5.171" fx="36.62" fy="7.221" gradientUnits="userSpaceOnUse" xlink:href="#linearGradient6343"/><linearGradient id="linearGradient8439" x1="17.688" x2="18.562" y1="4.528" y2="3.749" gradientTransform="matrix(1.2238011,0,0,1.1813056,-5.69272,-1.5824842)" gradientUnits="userSpaceOnUse" xlink:href="#linearGradient6076"/><linearGradient id="linearGradient8441" x1="18.977" x2="14.121" y1="6.559" y2="2.942" gradientTransform="matrix(0.9083429,0,0,0.8844596,0.42068,-0.2489868)" gradientUnits="userSpaceOnUse" xlink:href="#linearGradient4919"/><linearGradient id="linearGradient8443" x1="16.552" x2="16.552" y1="2.963" y2="7.836" gradientTransform="matrix(0.7843136,0,0,0.8225202,3.72414,0.4445121)" gradientUnits="userSpaceOnUse" xlink:href="#linearGradient6108"/><linearGradient id="linearGradient8445" x1="11.823" x2="33.184" y1="5.084" y2="41.243" gradientTransform="matrix(0.3033479,0,0,0.3029358,3.74154,3.5628872)" gradientUnits="userSpaceOnUse" xlink:href="#linearGradient7954"/><linearGradient id="linearGradient8447" x1="1.336" x2="17.012" y1="-6.134" y2="20.402" gradientTransform="matrix(1.0531984,0,0,0.9993944,-2.09057,-0.9990927)" gradientUnits="userSpaceOnUse" xlink:href="#linearGradient7944"/><linearGradient id="linearGradient8449" x1="36.211" x2="18.193" y1="37.921" y2="11.671" gradientTransform="matrix(0.3961512,0,0,0.3961513,6.513854,7.2790932)" gradientUnits="userSpaceOnUse" xlink:href="#linearGradient8146"/><radialGradient id="radialGradient8451" cx="23.946" cy="24.538" r="21.456" fx="23.946" fy="24.538" gradientUnits="userSpaceOnUse" xlink:href="#linearGradient6565"/><linearGradient id="linearGradient8453" x1="17.688" x2="18.562" y1="4.528" y2="3.749" gradientTransform="matrix(1.3198145,0,0,1.4683021,0.723059,-1.3031638)" gradientUnits="userSpaceOnUse" xlink:href="#linearGradient6076"/><linearGradient id="linearGradient8455" x1="18.977" x2="14.121" y1="6.559" y2="2.942" gradientTransform="matrix(0.9796071,0,0,1.0993378,7.316088,0.3543044)" gradientUnits="userSpaceOnUse" xlink:href="#linearGradient4919"/><linearGradient id="linearGradient8457" x1="16.552" x2="16.552" y1="2.963" y2="7.836" gradientTransform="matrix(0.980392,0,0,1.298668,8.294116,-0.389344)" gradientUnits="userSpaceOnUse" xlink:href="#linearGradient6108"/><linearGradient id="linearGradient8459" x1="2.5" x2="14.562" y1="-5.263" y2="19.56" gradientTransform="matrix(1.5441219,0,0,1.4501245,-3.154498,-0.6751875)" gradientUnits="userSpaceOnUse" xlink:href="#linearGradient7944"/></defs><metadata id="metadata5620"/><g id="layer1" style="display:inline"><rect id="rect8045" width="20" height="4" x="25" y="41" rx="1.257" ry="1.308" transform="matrix(1.3010782,0,0,1.25,-29.53284,-25.25)" style="opacity:.27074238;color:#000;fill:#000;fill-opacity:1;fill-rule:evenodd;stroke:none;stroke-width:.9999997px;stroke-linecap:butt;stroke-linejoin:miter;marker:none;marker-start:none;marker-mid:none;marker-end:none;stroke-miterlimit:4;stroke-dasharray:none;stroke-dashoffset:0;stroke-opacity:1;visibility:visible;display:inline;overflow:visible;filter:url(#filter6052);enable-background:accumulate"/><path style="color:#000;fill:url(#linearGradient8459);fill-opacity:1;fill-rule:evenodd;stroke:#888a85;stroke-width:.99999976px;stroke-linecap:butt;stroke-linejoin:miter;marker:none;marker-start:none;marker-mid:none;marker-end:none;stroke-miterlimit:4;stroke-dashoffset:0;stroke-opacity:1;visibility:visible;display:inline;overflow:visible;enable-background:accumulate" id="path8047" d="M 5.671982,1.4999999 L 23.090865,1.4999999 L 28.500001,6.6326708 L 28.500001,28.482616 C 28.500001,29.796172 27.726722,30.502488 26.328022,30.502488 L 5.671982,30.502488 C 4.273281,30.502488 3.500002,29.796172 3.500002,28.482616 L 3.500002,3.5198718 C 3.500002,2.2063148 4.273281,1.4999999 5.671982,1.4999999 z"/><path id="path8061" d="M 6.602171,2.5018043 L 22.494545,2.5018043 L 27.5,7.2920882 L 27.446652,28.021849 C 27.446652,29.380494 27.007376,29.5 25.54451,29.5 L 6.345138,29.5 C 4.882269,29.5 4.5,28.6651 4.5,27.306457 L 4.5,4.2383128 C 4.5,2.8796692 5.139302,2.5018043 6.602171,2.5018043 z" style="color:#000;fill:none;fill-opacity:1;fill-rule:evenodd;stroke:#fff;stroke-width:.99999982;stroke-linecap:butt;stroke-linejoin:miter;marker:none;marker-start:none;marker-mid:none;marker-end:none;stroke-miterlimit:4;stroke-dasharray:none;stroke-dashoffset:0;stroke-opacity:1;visibility:visible;display:inline;overflow:visible;enable-background:accumulate"/><path id="path8063" d="M 23,3 L 27.981955,8.7242471 L 28,10 L 23.036227,10 L 23,3 z" style="fill:url(#linearGradient8457);fill-opacity:1;fill-rule:evenodd;stroke:none;stroke-width:1px;stroke-linecap:butt;stroke-linejoin:miter;stroke-opacity:1;display:inline"/><path style="fill:url(#linearGradient8453);fill-opacity:1;fill-rule:evenodd;stroke:url(#linearGradient8455);stroke-width:.99999988px;stroke-linecap:butt;stroke-linejoin:miter;stroke-opacity:1;display:inline" id="path8065" d="M 28.215862,7.5000001 L 22.535853,7.5000001 L 22.5,1.6826861"/><path id="path7228" d="M 45.402216 24.538368 A 21.456448 21.456448 0 1 1 2.4893208,24.538368 A 21.456448 21.456448 0 1 1 45.402216 24.538368 z" transform="matrix(0.4213635,0,0,0.1864241,5.869165,18.425456)" style="opacity:.38864632;color:#000;fill:url(#radialGradient8451);fill-opacity:1;fill-rule:evenodd;stroke:none;stroke-width:1.50133264px;stroke-linecap:round;stroke-linejoin:miter;marker:none;marker-start:none;marker-mid:none;marker-end:none;stroke-miterlimit:4;stroke-dasharray:none;stroke-dashoffset:0;stroke-opacity:1;visibility:visible;display:inline;overflow:visible;enable-background:accumulate"/><path id="path7230" d="M 16,8.5000007 C 11.308,8.5000007 7.5,12.308 7.5,17 C 7.5,21.692 11.308,25.499999 16,25.499999 C 20.691999,25.499999 24.499999,21.692 24.499999,17 C 24.499999,12.308 20.691999,8.5000007 16,8.5000007 z M 16,14.505455 C 17.376988,14.505455 18.494545,15.623011 18.494545,17 C 18.494545,18.376989 17.376988,19.494545 16,19.494545 C 14.623011,19.494545 13.505454,18.376989 13.505454,17 C 13.505454,15.623011 14.623011,14.505455 16,14.505455 z" style="color:#000;fill:url(#linearGradient8449);fill-opacity:1;fill-rule:evenodd;stroke:#888a85;stroke-width:1.00000036px;stroke-linecap:round;stroke-linejoin:miter;marker:none;marker-start:none;marker-mid:none;marker-end:none;stroke-miterlimit:4;stroke-dasharray:none;stroke-dashoffset:0;stroke-opacity:1;visibility:visible;display:inline;overflow:visible;enable-background:accumulate"/><path id="path7232" d="M 16,12 C 13.24,12 11,14.239999 11,17 C 11,19.760001 13.24,22 16,22 C 18.76,22 21,19.760001 21,17 C 21,14.239999 18.76,12 16,12 z M 16,13.9375 C 17.68437,13.9375 19.062499,15.31563 19.062499,17 C 19.062499,18.68437 17.68437,20.0625 16,20.0625 C 14.31563,20.0625 12.937501,18.68437 12.937501,17 C 12.937501,15.31563 14.31563,13.9375 16,13.9375 z" style="color:#000;fill:#000;fill-opacity:.1081081;fill-rule:evenodd;stroke:none;stroke-width:2.52428889px;stroke-linecap:round;stroke-linejoin:miter;marker:none;marker-start:none;marker-mid:none;marker-end:none;stroke-miterlimit:4;stroke-dasharray:none;stroke-dashoffset:0;stroke-opacity:1;visibility:visible;display:inline;overflow:visible;enable-background:accumulate"/><path id="path7234" d="M 45.402216 24.538368 A 21.456448 21.456448 0 1 1 2.4893208,24.538368 A 21.456448 21.456448 0 1 1 45.402216 24.538368 z" transform="matrix(0.3455715,0,0,0.3495452,7.731615,8.4227294)" style="color:#000;fill:none;fill-opacity:1;fill-rule:evenodd;stroke:#fff;stroke-width:2.87726212px;stroke-linecap:round;stroke-linejoin:miter;marker:none;marker-start:none;marker-mid:none;marker-end:none;stroke-miterlimit:4;stroke-dasharray:none;stroke-dashoffset:0;stroke-opacity:.56756759;visibility:visible;display:inline;overflow:visible;enable-background:accumulate"/><path style="color:#000;fill:none;fill-opacity:1;fill-rule:evenodd;stroke:#fff;stroke-width:6.13041973px;stroke-linecap:round;stroke-linejoin:miter;marker:none;marker-start:none;marker-mid:none;marker-end:none;stroke-miterlimit:4;stroke-dasharray:none;stroke-dashoffset:0;stroke-opacity:.42342344;visibility:visible;display:inline;overflow:visible;enable-background:accumulate" id="path7236" d="M 45.402216 24.538368 A 21.456448 21.456448 0 1 1 2.4893208,24.538368 A 21.456448 21.456448 0 1 1 45.402216 24.538368 z" transform="matrix(0.1631211,0,0,0.1631211,12.09394,12.997274)"/><path style="fill:#fff;fill-opacity:.28828831;fill-rule:evenodd;stroke:none;stroke-width:1px;stroke-linecap:butt;stroke-linejoin:miter;stroke-opacity:1" id="path7238" d="M 23.791776,14.851763 C 23.346107,13.386711 22.446565,12.058579 21.313908,11.085333 C 20.479737,12.082077 19.036815,13.864496 17.447846,15.728372 C 17.707349,15.939512 17.907249,16.220575 18.002998,16.550382 L 23.791776,14.851763 z M 14.911147,18.565716 C 14.703414,18.377334 14.540603,18.142513 14.448526,17.871062 L 8.544108,19.666478 C 9.006642,21.068948 9.850903,22.295612 10.94975,23.232396 C 11.876841,22.152606 13.204139,20.560435 14.911147,18.565716 z"/><path id="path7240" d="M 13.578923,9.192864 C 11.97794,9.66773 10.568569,10.573921 9.505015,11.780792 C 10.594248,12.669632 12.718745,14.425557 14.755538,16.118655 C 14.98627,15.842142 15.293412,15.629148 15.653821,15.527126 L 13.578923,9.192864 z M 17.501003,18.410819 C 17.295132,18.632166 17.038522,18.80564 16.74189,18.903755 L 18.842096,25.34893 C 20.374683,24.856085 21.715172,23.956504 22.738869,22.785648 C 21.558891,21.797809 19.680792,20.229694 17.501003,18.410819 z" style="fill:#000;fill-opacity:.08108108;fill-rule:evenodd;stroke:none;stroke-width:1px;stroke-linecap:butt;stroke-linejoin:miter;stroke-opacity:1"/><path id="path7242" d="M 13.942252,18.735164 L 9.244805,21.530036 M 21.053604,11.344855 L 17.563569,15.545126" style="fill:none;fill-opacity:1;fill-rule:evenodd;stroke:#fff;stroke-width:.99999988px;stroke-linecap:butt;stroke-linejoin:miter;stroke-opacity:.36486487"/><g id="g8067" transform="matrix(1.0999999,0,0,1.1,5.800001,0)" style="display:inline"><path id="path8069" d="M 41.790184 7.2211123 A 5.1705894 5.1705894 0 1 1 31.449005,7.2211123 A 5.1705894 5.1705894 0 1 1 41.790184 7.2211123 z" transform="matrix(0.9670077,0,0,0.9670077,-18.41143,-1.9828713)" style="opacity:1;color:#000;fill:url(#radialGradient8435);fill-opacity:1;fill-rule:evenodd;stroke:none;stroke-width:1.01691592;stroke-linecap:square;stroke-linejoin:round;marker:none;marker-start:none;marker-mid:none;marker-end:none;stroke-miterlimit:4;stroke-dasharray:none;stroke-dashoffset:0;stroke-opacity:1;visibility:visible;display:inline;overflow:visible;enable-background:accumulate"/><path id="path8071" d="M 34.55793,8.2210126 L 33.188741,5.4467331 L 30.127142,5.0018567 L 32.342536,2.8423812 L 31.819552,-0.20684715 L 34.55793,1.2328031 L 37.296308,-0.20684729 L 36.773324,2.842381 L 38.988718,5.0018565 L 35.927119,5.4467329 L 34.55793,8.2210126 z" transform="matrix(0.9093533,0,0,0.8345354,-13.954519,1.6726214)" style="opacity:1;color:#000;fill:#fff;fill-opacity:1;fill-rule:evenodd;stroke:#edd400;stroke-width:1.04356289;stroke-linecap:square;stroke-linejoin:round;marker:none;marker-start:none;marker-mid:none;marker-end:none;stroke-miterlimit:4;stroke-dasharray:none;stroke-dashoffset:0;stroke-opacity:1;visibility:visible;display:inline;overflow:visible;enable-background:accumulate"/></g></g></svg>