<svg xmlns="http://www.w3.org/2000/svg" xmlns:cc="http://web.resource.org/cc/" xmlns:svg="http://www.w3.org/2000/svg" xmlns:xlink="http://www.w3.org/1999/xlink" id="svg5615" width="32" height="32" version="1.0"><defs id="defs5617"><linearGradient id="linearGradient5911"><stop style="stop-color:#fcaf3e;stop-opacity:1" id="stop5913" offset="0"/><stop style="stop-color:#f57900;stop-opacity:1" id="stop5915" offset="1"/></linearGradient><linearGradient id="linearGradient5917" x1="10.455" x2="10.455" y1="21.968" y2="30.653" gradientTransform="matrix(0.8125,0,0,0.8099873,9.375006e-2,-4.6747784)" gradientUnits="userSpaceOnUse" xlink:href="#linearGradient5911"/><linearGradient id="linearGradient6672"><stop style="stop-color:#fff;stop-opacity:1" id="stop6674" offset="0"/><stop style="stop-color:#fff;stop-opacity:0" id="stop6676" offset="1"/></linearGradient><linearGradient id="linearGradient6565"><stop style="stop-color:#000;stop-opacity:1" id="stop6567" offset="0"/><stop style="stop-color:#000;stop-opacity:0" id="stop6569" offset="1"/></linearGradient><radialGradient id="radialGradient7284" cx="23.946" cy="24.538" r="21.456" fx="23.946" fy="24.538" gradientUnits="userSpaceOnUse" xlink:href="#linearGradient6565"/><linearGradient id="linearGradient5912"><stop style="stop-color:#ebebe8;stop-opacity:1" id="stop5914" offset="0"/><stop style="stop-color:#eeeeec;stop-opacity:1" id="stop5916" offset="1"/></linearGradient><linearGradient id="linearGradient7286" x1="9.295" x2="13.387" y1="5.661" y2="33.642" gradientTransform="matrix(0.6772076,0,0,0.6757875,-0.246726,-1.5827234)" gradientUnits="userSpaceOnUse" xlink:href="#linearGradient5912"/><radialGradient id="radialGradient6710" cx="23.946" cy="24.538" r="21.456" fx="23.946" fy="24.538" gradientUnits="userSpaceOnUse" xlink:href="#linearGradient6565"/><linearGradient id="linearGradient6712" x1="9.295" x2="13.387" y1="5.661" y2="33.642" gradientUnits="userSpaceOnUse" xlink:href="#linearGradient5912"/><linearGradient id="linearGradient6714" x1="43.205" x2="28.453" y1="37.464" y2="37.465" gradientUnits="userSpaceOnUse" xlink:href="#linearGradient6672"/><radialGradient id="radialGradient6746" cx="23.946" cy="24.538" r="21.456" fx="23.946" fy="24.538" gradientUnits="userSpaceOnUse" xlink:href="#linearGradient6565"/><linearGradient id="linearGradient6748" x1="9.295" x2="13.387" y1="5.661" y2="33.642" gradientUnits="userSpaceOnUse" xlink:href="#linearGradient5912"/><linearGradient id="linearGradient6753" x1="43.282" x2="28.477" y1="37.464" y2="37.465" gradientTransform="matrix(0.6345368,0,0,0.5552197,-43.62219,-25.574755)" gradientUnits="userSpaceOnUse" xlink:href="#linearGradient6672"/><linearGradient id="linearGradient6789" x1="9.295" x2="13.387" y1="5.661" y2="33.642" gradientUnits="userSpaceOnUse" xlink:href="#linearGradient5912"/><linearGradient id="linearGradient6815" x1="43.282" x2="28.477" y1="37.464" y2="37.465" gradientTransform="matrix(0.5044,0,0,0.789146,-3.3886096,-9.1055033)" gradientUnits="userSpaceOnUse" xlink:href="#linearGradient6672"/><linearGradient id="linearGradient6830" x1="43.282" x2="28.477" y1="37.464" y2="37.465" gradientTransform="matrix(0.5044,0,0,0.789146,-3.3886096,-9.1055033)" gradientUnits="userSpaceOnUse" xlink:href="#linearGradient6672"/></defs><metadata id="metadata5620"/><g id="layer1"><path id="path7264" d="M 45.402216,24.538368 A 21.456448,21.456448 0 1 1 2.4893208,24.538368 A 21.456448,21.456448 0 1 1 45.402216,24.538368 z" transform="matrix(0.7040938,0,0,0.3201913,-0.693494,17.032122)" style="opacity:.38864632;color:#000;fill:url(#radialGradient7284);fill-opacity:1;fill-rule:evenodd;stroke:none;stroke-width:1.50133264px;stroke-linecap:round;stroke-linejoin:miter;marker:none;marker-start:none;marker-mid:none;marker-end:none;stroke-miterlimit:4;stroke-dasharray:none;stroke-dashoffset:0;stroke-opacity:1;visibility:visible;display:inline;overflow:visible;enable-background:accumulate"/><path style="opacity:1;color:#000;fill:url(#linearGradient7286);fill-opacity:1;fill-rule:evenodd;stroke:#888a85;stroke-width:1.00000024px;stroke-linecap:round;stroke-linejoin:miter;marker:none;marker-start:none;marker-mid:none;marker-end:none;stroke-miterlimit:4;stroke-dasharray:none;stroke-dashoffset:0;stroke-opacity:1;visibility:visible;display:inline;overflow:visible;enable-background:accumulate" id="path7266" d="M 15.96875 0.5 C 7.9479309 0.5 1.4375 6.9960006 1.4375 15 C 1.4375 23.003999 7.9479311 29.5 15.96875 29.5 C 23.989569 29.5 30.5 23.004 30.5 15 C 30.5 6.9960005 23.989569 0.49999997 15.96875 0.5 z M 16 11.5 C 17.932 11.5 19.5 13.068 19.5 15 C 19.5 16.931999 17.932 18.5 16 18.5 C 14.068 18.500001 12.5 16.932 12.5 15 C 12.5 13.068 14.068 11.5 16 11.5 z"/><path style="opacity:1;color:#000;fill:#000;fill-opacity:.1081081;fill-rule:evenodd;stroke:none;stroke-width:2.52428889px;stroke-linecap:round;stroke-linejoin:miter;marker:none;marker-start:none;marker-mid:none;marker-end:none;stroke-miterlimit:4;stroke-dasharray:none;stroke-dashoffset:0;stroke-opacity:1;visibility:visible;display:inline;overflow:visible;enable-background:accumulate" id="path7270" d="M 16 8 C 12.136001 8 9.0000004 11.136001 9 15 C 9 18.863999 12.136001 21.999999 16 22 C 19.863999 22 23.000001 18.864 23 15 C 23 11.136001 19.863999 7.9999999 16 8 z M 16 11 C 18.21238 11 20 12.78762 20 15 C 20 17.21238 18.21238 19 16 19 C 13.787619 19 12 17.21238 12 15 C 12 12.787619 13.78762 11 16 11 z"/><path id="path7272" d="M 45.402216,24.538368 A 21.456448,21.456448 0 1 1 2.4893208,24.538368 A 21.456448,21.456448 0 1 1 45.402216,24.538368 z" transform="matrix(0.6291815,0,0,0.6291816,0.933765,-0.4390875)" style="opacity:1;color:#000;fill:none;fill-opacity:1;fill-rule:evenodd;stroke:#fff;stroke-width:1.58936679px;stroke-linecap:round;stroke-linejoin:miter;marker:none;marker-start:none;marker-mid:none;marker-end:none;stroke-miterlimit:4;stroke-dasharray:none;stroke-dashoffset:0;stroke-opacity:.56756759;visibility:visible;display:inline;overflow:visible;enable-background:accumulate"/><path style="opacity:1;color:#000;fill:none;fill-opacity:1;fill-rule:evenodd;stroke:#fff;stroke-width:4.76810408px;stroke-linecap:round;stroke-linejoin:miter;marker:none;marker-start:none;marker-mid:none;marker-end:none;stroke-miterlimit:4;stroke-dasharray:none;stroke-dashoffset:0;stroke-opacity:.42342344;visibility:visible;display:inline;overflow:visible;enable-background:accumulate" id="path7274" d="M 45.402216,24.538368 A 21.456448,21.456448 0 1 1 2.4893208,24.538368 A 21.456448,21.456448 0 1 1 45.402216,24.538368 z" transform="matrix(0.2097272,0,0,0.2097271,10.977922,9.8536381)"/><path style="fill:#fff;fill-opacity:.28828831;fill-rule:evenodd;stroke:none;stroke-width:1px;stroke-linecap:butt;stroke-linejoin:miter;stroke-opacity:1" id="path7278" d="M 29.474879,11.30262 C 28.699786,8.7560955 27.135301,6.4475649 25.165408,4.7558814 C 23.714614,6.4884027 21.205111,9.5865746 18.441591,12.826313 C 18.892921,13.193316 19.240573,13.681855 19.407101,14.255123 L 29.474879,11.30262 z M 14.0298,17.75814 C 13.66851,17.430688 13.385355,17.022528 13.225209,16.550696 L 2.956308,19.671453 C 3.760746,22.109195 5.229073,24.241367 7.140177,25.869668 C 8.752558,23.992794 11.060978,21.225319 14.0298,17.75814 z"/><path id="path7280" d="M 11.886315,2 C 9.209202,2.7935997 6.852501,4.3080178 5.074066,6.3249433 C 6.895435,7.810376 10.447951,10.74488 13.853826,13.574371 C 14.239648,13.112272 14.753242,12.756319 15.355908,12.585812 L 11.886315,2 z M 18.444693,17.405034 C 18.100448,17.774953 17.671358,18.064868 17.175329,18.228833 L 20.687236,29 C 23.249984,28.176361 25.491497,26.672976 27.2033,24.716247 C 25.230176,23.06537 22.089672,20.44474 18.444693,17.405034 z" style="fill:#000;fill-opacity:.04054057;fill-rule:evenodd;stroke:none;stroke-width:1px;stroke-linecap:butt;stroke-linejoin:miter;stroke-opacity:1"/><path id="path7282" d="M 12.829273,18.000966 L 4.559784,22.921331 M 25.348247,4.9903365 L 19.204321,12.384912" style="fill:none;fill-opacity:1;fill-rule:evenodd;stroke:#fff;stroke-width:1px;stroke-linecap:butt;stroke-linejoin:miter;stroke-opacity:.36486487"/><path style="opacity:1;fill:url(#linearGradient5917);fill-opacity:1;stroke:#ce5c00;stroke-width:.99999988;stroke-opacity:1" id="rect4933" d="M 6.4920637,9.0767195 L 6.4920637,11.516088 L 1.7187501,11.516088 C 1.0435602,11.516088 0.50000007,12.057967 0.50000007,12.731069 L 0.50000007,16.284559 C 0.50000007,16.957661 1.0435602,17.49954 1.7187501,17.49954 L 6.4920637,17.49954 L 6.4920637,20.055147 L 13.5,14.36695 L 6.4920637,9.0767195 z"/><path id="path5909" d="M 7.5585318,11.2412 L 7.5585318,12.526502 L 2.0291556,12.526502 C 1.3539657,12.526502 1.5006246,13.068381 1.5006246,13.741483 L 1.5006246,15.30502 C 1.5006246,15.978122 1.3998211,16.520001 2.0750111,16.520001 L 7.5585318,16.520001 L 7.5585318,17.89312 L 11.867394,14.393361 L 7.5585318,11.2412 z" style="opacity:1;fill:none;fill-opacity:1;stroke:#fff;stroke-width:.99999988;stroke-opacity:.31531528"/></g></svg>