<svg xmlns="http://www.w3.org/2000/svg" xmlns:svg="http://www.w3.org/2000/svg" xmlns:xlink="http://www.w3.org/1999/xlink" id="svg9121" width="32" height="32" version="1.1"><defs id="defs3"><linearGradient id="linearGradient2309"><stop style="stop-color:#686b65;stop-opacity:1" id="stop2311" offset="0"/><stop style="stop-color:#686b65;stop-opacity:0" id="stop2313" offset="1"/></linearGradient><linearGradient id="linearGradient2301"><stop style="stop-color:#fff;stop-opacity:1" id="stop2303" offset="0"/><stop style="stop-color:#fff;stop-opacity:0" id="stop2305" offset="1"/></linearGradient><linearGradient id="linearGradient2287"><stop style="stop-color:#fff;stop-opacity:1" id="stop2289" offset="0"/><stop style="stop-color:#cdcdcd;stop-opacity:.77319586" id="stop2291" offset="1"/></linearGradient><linearGradient id="linearGradient2224"><stop style="stop-color:#32342f;stop-opacity:.54639173" id="stop2226" offset="0"/><stop style="stop-color:#32342f;stop-opacity:0" id="stop2228" offset="1"/></linearGradient><linearGradient id="linearGradient3441"><stop style="stop-color:#888a85;stop-opacity:1" id="stop3443" offset="0"/><stop style="stop-color:#fcfff6;stop-opacity:1" id="stop3445" offset="1"/></linearGradient><linearGradient id="linearGradient2655"><stop style="stop-color:#eeeeec;stop-opacity:1" id="stop2657" offset="0"/><stop style="stop-color:#eeeeec;stop-opacity:0" id="stop2659" offset="1"/></linearGradient><linearGradient id="linearGradient6157"><stop id="stop6159" offset="0" style="stop-color:#babdb6;stop-opacity:1"/><stop id="stop6165" offset=".5" style="stop-color:#dfe2da;stop-opacity:1"/><stop id="stop6161" offset="1" style="stop-color:#babdb6;stop-opacity:1"/></linearGradient><radialGradient id="radialGradient2962" cx="24.042" cy="42.242" r="17.577" fx="24.042" fy="42.242" gradientTransform="matrix(1,0,0,0.304598,0,29.37527)" gradientUnits="userSpaceOnUse" xlink:href="#linearGradient2224"/><linearGradient id="linearGradient2964" x1="-31.074" x2="-38.257" y1="17.158" y2="7.844" gradientTransform="matrix(0.603485,0.470548,-0.803519,1.030527,48.59133,29.97432)" gradientUnits="userSpaceOnUse" xlink:href="#linearGradient6157"/><linearGradient id="linearGradient2968" x1="34.563" x2="40.103" y1="12.489" y2="5.7" gradientTransform="scale(0.954299,1.04789)" gradientUnits="userSpaceOnUse" xlink:href="#linearGradient2655"/><linearGradient id="linearGradient2970" x1="32.984" x2="38.27" y1="13.087" y2="5.973" gradientUnits="userSpaceOnUse" xlink:href="#linearGradient2309"/><linearGradient id="linearGradient2972" x1="54.225" x2="64.746" y1="-3.45" y2="-2.537" gradientTransform="matrix(0.527682,0,-1.465781e-8,1.395766,0.274469,-0.380594)" gradientUnits="userSpaceOnUse" xlink:href="#linearGradient3441"/><radialGradient id="radialGradient2974" cx="24.042" cy="42.242" r="17.577" fx="24.042" fy="42.242" gradientTransform="matrix(1,0,0,0.304598,0,29.37527)" gradientUnits="userSpaceOnUse" xlink:href="#linearGradient2224"/><linearGradient id="linearGradient2976" x1="25.728" x2="27.501" y1="12.76" y2="14.135" gradientTransform="matrix(0.902575,0,0,0.902575,2.604411,1.752083)" gradientUnits="userSpaceOnUse" xlink:href="#linearGradient2301"/><linearGradient id="linearGradient2980" x1="17.666" x2="19.18" y1="30.502" y2="22.002" gradientUnits="userSpaceOnUse" xlink:href="#linearGradient2287"/></defs><metadata id="metadata4"/><g id="layer1" transform="translate(0,-16)"><g id="g2934" transform="matrix(0.6508065,0,0,0.6508065,0.4364925,16.626406)"><path id="path2222" d="m 41.618284,42.24213 c 0,2.956827 -7.869336,5.353809 -17.576654,5.353809 -9.707318,0 -17.5766546,-2.396982 -17.5766546,-5.353809 0,-2.956826 7.8693366,-5.353808 17.5766546,-5.353808 9.707318,0 17.576654,2.396982 17.576654,5.353808 z" transform="matrix(0.673638,0,0,0.430086,-0.605052,20.90465)" style="opacity:.48295456;fill:url(#radialGradient2962);fill-opacity:1;fill-rule:evenodd;stroke:none"/><path style="fill:url(#linearGradient2964);fill-opacity:1;fill-rule:evenodd;stroke:#686b65;stroke-width:1.53655612;stroke-linecap:butt;stroke-linejoin:miter;stroke-miterlimit:4;stroke-opacity:1" id="path7706" d="M 2.8839231,40.604807 C 2.8289019,40.675373 16.747691,40.499044 28.467196,32.686242 L 25.880399,30.669273 28.874256,26.8296 19.439728,19.473343 2.8839231,40.604807 z"/><path style="fill:none;stroke:url(#linearGradient2980);stroke-width:1.53655612;stroke-linecap:butt;stroke-linejoin:miter;stroke-miterlimit:4;stroke-opacity:1" id="path2978" d="m 22.15625,18.40625 -15.625,19.9375 c 4.4929,-0.761186 11.952714,-2.470415 19.34375,-5.8125 l -1.6875,-1.3125 A 0.4633003,0.4633003 0 0 1 24.09375,30.5625 l 5.1875,-6.59375 -7.125,-5.5625 z"/><path style="fill:#fff;fill-opacity:1;fill-rule:evenodd;stroke:none" id="path2982" d="M 25.1875,31.125 C 20.95394,34.341039 16.148273,35.991307 12.40625,36.84375 10.511513,37.275376 8.9029533,37.5087 7.75,37.625 7.1735233,37.68315 6.6889464,37.703128 6.375,37.71875 6.2180268,37.726561 6.1138189,37.748296 6.03125,37.75 L 4.625,39.625 c 0.03683,-8.78e-4 0.052466,0.0013 0.09375,0 0.3599144,-0.01146 0.8955764,-0.03513 1.5625,-0.09375 1.3338471,-0.117247 3.2049134,-0.355585 5.4375,-0.8125 4.380833,-0.89657 10.089845,-2.654438 15.46875,-6 l -2,-1.59375 z"/><path style="color:#000;fill:url(#linearGradient2968);fill-opacity:1;fill-rule:evenodd;stroke:url(#linearGradient2970);stroke-width:1.53655612;stroke-linecap:butt;stroke-linejoin:miter;stroke-miterlimit:4;stroke-opacity:1;stroke-dasharray:none;stroke-dashoffset:0;marker:none;visibility:visible;display:inline;overflow:visible" id="path7712" d="M 33.128941,0.02138473 18.603207,18.650892 c 2.76977,2.404482 3.76917,3.986206 1.648503,6.902015 l 3.456732,2.69527 c 1.739176,-2.382223 3.512759,-3.037412 6.587663,-0.281597 L 45.12593,9.5458368"/><rect id="rect3450" width="4.596" height="14.064" x="31.493" y="-11.786" rx="1.616" ry="1.414" transform="matrix(0.794294,0.607534,-0.619919,0.784665,0,0)" style="fill:#eeeeec;fill-opacity:1;fill-rule:nonzero;stroke:url(#linearGradient2972);stroke-width:1.53664458;stroke-linecap:round;stroke-linejoin:miter;stroke-miterlimit:4;stroke-opacity:1;stroke-dashoffset:0"/><path style="opacity:.32954544;fill:url(#radialGradient2974);fill-opacity:1;fill-rule:evenodd;stroke:none" id="path2295" d="m 41.618284,42.24213 c 0,2.956827 -7.869336,5.353809 -17.576654,5.353809 -9.707318,0 -17.5766546,-2.396982 -17.5766546,-5.353809 0,-2.956826 7.8693366,-5.353808 17.5766546,-5.353808 9.707318,0 17.576654,2.396982 17.576654,5.353808 z" transform="matrix(1.281689,0,0,1.098472,-7.036086,-7.532814)"/><path id="path2299" d="M 32.505759,1.7713847 19.395197,18.585909 c 2.499925,2.170225 3.401958,3.597849 1.487898,6.229585 l 3.119959,2.432683 c 1.569736,-2.150135 3.170528,-2.741492 5.945859,-0.254162 l 13.385027,-16.6261" style="color:#000;fill:url(#linearGradient2976);fill-opacity:1;fill-rule:evenodd;stroke:none;stroke-width:1.00000072;marker:none;visibility:visible;display:inline;overflow:visible"/><path id="path2317" d="m 43.125,10.615861 -12.875,16.25 c -3,-1.75 -3.875,-2.5 -6.625,0.25 L 21.547243,25.278965 23.625,26.115861 c 2.25,-2.125 4,-2.25 6.125,-0.125 l 13.375,-15.375 z" style="opacity:.48295456;color:#000;fill:#fff;fill-opacity:1;fill-rule:evenodd;stroke:none;stroke-width:1.00000072;marker:none;visibility:visible;display:inline;overflow:visible"/><path id="path2319" d="m 20,26.0625 3.6875,4.1875 c 2.375,-3.375 3.0625,-2.9375 3.9375,-2.6875 l 0.5625,-0.5 C 26.6875,26.25 25.25,26.6875 23.75,28.875 L 20,26.0625 z" style="opacity:.11363633;color:#000;fill:#000;fill-opacity:1;fill-rule:evenodd;stroke:none;stroke-width:1.00000072;marker:none;visibility:visible;display:inline;overflow:visible"/></g></g></svg>