<svg xmlns="http://www.w3.org/2000/svg" xmlns:cc="http://web.resource.org/cc/" xmlns:svg="http://www.w3.org/2000/svg" xmlns:xlink="http://www.w3.org/1999/xlink" id="svg5615" width="16" height="16" version="1.0"><defs id="defs5617"><radialGradient id="radialGradient1982" cx="8.824" cy="3.756" r="37.752" fx="8.824" fy="3.756" gradientTransform="matrix(0.1943489,0,0,0.2018302,7.8476707,6.9167749)" gradientUnits="userSpaceOnUse" xlink:href="#linearGradient269"/><radialGradient id="radialGradient1980" cx="33.967" cy="35.737" r="86.708" fx="33.967" fy="35.737" gradientTransform="matrix(0.1927873,0,0,0.2034646,7.1745555,6.7904416)" gradientUnits="userSpaceOnUse" xlink:href="#linearGradient259"/><radialGradient id="radialGradient1977" cx="8.144" cy="7.268" r="38.159" fx="8.144" fy="7.268" gradientTransform="matrix(0.1477114,0,0,0.159106,8.8421226,7.8933973)" gradientUnits="userSpaceOnUse" xlink:href="#linearGradient15662"/><linearGradient id="linearGradient4790"><stop id="stop4792" offset="0" style="stop-color:#000;stop-opacity:1"/><stop id="stop4794" offset="1" style="stop-color:#000;stop-opacity:0"/></linearGradient><radialGradient id="radialGradient1974" cx="37.03" cy="12.989" r="4.293" fx="37.03" fy="12.989" gradientTransform="matrix(0.2882784,0,0,0.2155282,3.9123206,7.0575444)" gradientUnits="userSpaceOnUse" xlink:href="#linearGradient4790"/><radialGradient id="radialGradient1971" cx="31.863" cy="2.367" r="37.752" fx="31.863" fy="2.367" gradientTransform="matrix(9.723419e-2,0,0,0.1050491,9.2552459,9.2658295)" gradientUnits="userSpaceOnUse" xlink:href="#linearGradient269"/><radialGradient id="radialGradient1969" cx="30.654" cy="14.937" r="86.708" fx="30.654" fy="14.937" gradientTransform="matrix(4.3484004e-2,2.9960483e-3,-3.2371945e-3,4.8204661e-2,10.70755,10.226204)" gradientUnits="userSpaceOnUse" xlink:href="#linearGradient259"/><linearGradient id="linearGradient2251"><stop id="stop2253" offset="0" style="stop-color:#fff;stop-opacity:1"/><stop id="stop2255" offset="1" style="stop-color:#fff;stop-opacity:0"/></linearGradient><linearGradient id="linearGradient1966" x1="33.396" x2="34.17" y1="36.921" y2="38.07" gradientTransform="matrix(-4.7764718e-3,-0.1445243,0.1456376,-4.7399597e-3,8.6959649,14.25271)" gradientUnits="userSpaceOnUse" xlink:href="#linearGradient2251"/><linearGradient id="linearGradient15662"><stop style="stop-color:#fff;stop-opacity:1" id="stop15664" offset="0"/><stop style="stop-color:#f8f8f8;stop-opacity:1" id="stop15666" offset="1"/></linearGradient><linearGradient id="linearGradient269"><stop style="stop-color:#a3a3a3;stop-opacity:1" id="stop270" offset="0"/><stop style="stop-color:#8a8a8a;stop-opacity:1" id="stop271" offset="1"/></linearGradient><linearGradient id="linearGradient259"><stop style="stop-color:#fafafa;stop-opacity:1" id="stop260" offset="0"/><stop style="stop-color:#bbb;stop-opacity:1" id="stop261" offset="1"/></linearGradient><linearGradient id="linearGradient3702"><stop id="stop3704" offset="0" style="stop-color:black;stop-opacity:0"/><stop style="stop-color:black;stop-opacity:1" id="stop3710" offset=".5"/><stop id="stop3706" offset="1" style="stop-color:black;stop-opacity:0"/></linearGradient><linearGradient id="linearGradient6343"><stop style="stop-color:#fce94f;stop-opacity:1" id="stop6345" offset="0"/><stop style="stop-color:#fce94f;stop-opacity:0" id="stop6347" offset="1"/></linearGradient><radialGradient id="radialGradient6349" cx="37.221" cy="7.221" r="5.171" fx="37.221" fy="7.221" gradientUnits="userSpaceOnUse" xlink:href="#linearGradient6343"/><linearGradient id="linearGradient6672"><stop style="stop-color:#fff;stop-opacity:1" id="stop6674" offset="0"/><stop style="stop-color:#fff;stop-opacity:0" id="stop6676" offset="1"/></linearGradient><linearGradient id="linearGradient6565"><stop style="stop-color:#000;stop-opacity:1" id="stop6567" offset="0"/><stop style="stop-color:#000;stop-opacity:0" id="stop6569" offset="1"/></linearGradient><linearGradient id="linearGradient5912"><stop style="stop-color:#ebebe8;stop-opacity:1" id="stop5914" offset="0"/><stop style="stop-color:#eeeeec;stop-opacity:1" id="stop5916" offset="1"/></linearGradient><radialGradient id="radialGradient6710" cx="23.946" cy="24.538" r="21.456" fx="23.946" fy="24.538" gradientUnits="userSpaceOnUse" xlink:href="#linearGradient6565"/><linearGradient id="linearGradient6712" x1="9.295" x2="13.387" y1="5.661" y2="33.642" gradientUnits="userSpaceOnUse" xlink:href="#linearGradient5912"/><linearGradient id="linearGradient6714" x1="43.205" x2="28.453" y1="37.464" y2="37.465" gradientUnits="userSpaceOnUse" xlink:href="#linearGradient6672"/><linearGradient id="linearGradient6748" x1="9.295" x2="13.387" y1="5.661" y2="33.642" gradientUnits="userSpaceOnUse" xlink:href="#linearGradient5912"/><linearGradient id="linearGradient6789" x1="9.295" x2="13.387" y1="5.661" y2="33.642" gradientUnits="userSpaceOnUse" xlink:href="#linearGradient5912"/><linearGradient id="linearGradient6815" x1="43.282" x2="28.477" y1="37.464" y2="37.465" gradientTransform="matrix(0.5044,0,0,0.789146,-3.3886096,-9.1055033)" gradientUnits="userSpaceOnUse" xlink:href="#linearGradient6672"/><linearGradient id="linearGradient6830" x1="43.282" x2="28.477" y1="37.464" y2="37.465" gradientTransform="matrix(0.5044,0,0,0.789146,-3.3886096,-9.1055033)" gradientUnits="userSpaceOnUse" xlink:href="#linearGradient6672"/><linearGradient id="linearGradient5183" x1="43.282" x2="28.477" y1="37.464" y2="37.465" gradientTransform="matrix(0.5044,0,0,0.789146,-3.3886096,-9.1055033)" gradientUnits="userSpaceOnUse" xlink:href="#linearGradient6672"/><linearGradient id="linearGradient5181" x1="43.282" x2="28.477" y1="37.464" y2="37.465" gradientTransform="matrix(0.5044,0,0,0.789146,-3.3886096,-9.1055033)" gradientUnits="userSpaceOnUse" xlink:href="#linearGradient6672"/><linearGradient id="linearGradient5179" x1="9.295" x2="13.387" y1="5.661" y2="33.642" gradientUnits="userSpaceOnUse" xlink:href="#linearGradient5912"/><linearGradient id="linearGradient5177" x1="43.282" x2="28.477" y1="37.464" y2="37.465" gradientTransform="matrix(0.6345368,0,0,0.5552197,-19.580565,-1.5331267)" gradientUnits="userSpaceOnUse" xlink:href="#linearGradient6672"/><linearGradient id="linearGradient5175" x1="9.295" x2="13.387" y1="5.661" y2="33.642" gradientUnits="userSpaceOnUse" xlink:href="#linearGradient5912"/><radialGradient id="radialGradient5173" cx="23.946" cy="24.538" r="21.456" fx="23.946" fy="24.538" gradientUnits="userSpaceOnUse" xlink:href="#linearGradient6565"/><linearGradient id="linearGradient5171" x1="43.205" x2="28.453" y1="37.464" y2="37.465" gradientUnits="userSpaceOnUse" xlink:href="#linearGradient6672"/><linearGradient id="linearGradient5169" x1="9.295" x2="13.387" y1="5.661" y2="33.642" gradientUnits="userSpaceOnUse" xlink:href="#linearGradient5912"/><radialGradient id="radialGradient5167" cx="23.946" cy="24.538" r="21.456" fx="23.946" fy="24.538" gradientUnits="userSpaceOnUse" xlink:href="#linearGradient6565"/><linearGradient id="linearGradient6678" x1="43.282" x2="28.477" y1="37.464" y2="37.465" gradientUnits="userSpaceOnUse" xlink:href="#linearGradient6672"/><linearGradient id="linearGradient5164" x1="9.295" x2="13.387" y1="5.661" y2="33.642" gradientUnits="userSpaceOnUse" xlink:href="#linearGradient5912"/><radialGradient id="radialGradient5156" cx="23.946" cy="24.538" r="21.456" fx="23.946" fy="24.538" gradientUnits="userSpaceOnUse" xlink:href="#linearGradient6565"/></defs><metadata id="metadata5620"/><g id="layer1"><g id="g5217" transform="matrix(0.7144654,0,0,0.7144654,0.1408804,0.1408805)"><path style="color:#000;fill:url(#linearGradient6748);fill-opacity:1;fill-rule:evenodd;stroke:#888a85;stroke-width:2.86014128px;stroke-linecap:round;stroke-linejoin:miter;marker:none;marker-start:none;marker-mid:none;marker-end:none;stroke-miterlimit:4;stroke-dasharray:none;stroke-dashoffset:0;stroke-opacity:1;visibility:visible;display:inline;overflow:visible;enable-background:accumulate" id="path6718" d="M 45.402216 24.538368 A 21.456448 21.456448 0 1 1 2.4893208,24.538368 A 21.456448 21.456448 0 1 1 45.402216 24.538368 z" transform="matrix(0.4893634,0,0,0.4893634,-0.718182,-1.0081789)"/><path style="color:#000;fill:#000;fill-opacity:.1081081;fill-rule:evenodd;stroke:none;stroke-width:2.52428889px;stroke-linecap:round;stroke-linejoin:miter;marker:none;marker-start:none;marker-mid:none;marker-end:none;stroke-miterlimit:4;stroke-dasharray:none;stroke-dashoffset:0;stroke-opacity:1;visibility:visible;display:inline;overflow:visible;enable-background:accumulate" id="path6720" d="M 45.402216 24.538368 A 21.456448 21.456448 0 1 1 2.4893208,24.538368 A 21.456448 21.456448 0 1 1 45.402216 24.538368 z" transform="matrix(0.2609281,0,0,0.2609282,4.751875,4.5972489)"/><path id="path6722" d="M 45.402216 24.538368 A 21.456448 21.456448 0 1 1 2.4893208,24.538368 A 21.456448 21.456448 0 1 1 45.402216 24.538368 z" transform="matrix(0.4240082,0,0,0.4240082,0.8467967,0.5955295)" style="color:#000;fill:none;fill-opacity:1;fill-rule:evenodd;stroke:#fff;stroke-width:3.30099344px;stroke-linecap:round;stroke-linejoin:miter;marker:none;marker-start:none;marker-mid:none;marker-end:none;stroke-miterlimit:4;stroke-dasharray:none;stroke-dashoffset:0;stroke-opacity:.56756759;visibility:visible;display:inline;overflow:visible;enable-background:accumulate"/><path style="color:#000;fill:none;fill-opacity:1;fill-rule:evenodd;stroke:#fff;stroke-width:8.67743683px;stroke-linecap:round;stroke-linejoin:miter;marker:none;marker-start:none;marker-mid:none;marker-end:none;stroke-miterlimit:4;stroke-dasharray:none;stroke-dashoffset:0;stroke-opacity:.42342344;visibility:visible;display:inline;overflow:visible;enable-background:accumulate" id="path6724" d="M 45.402216 24.538368 A 21.456448 21.456448 0 1 1 2.4893208,24.538368 A 21.456448 21.456448 0 1 1 45.402216 24.538368 z" transform="matrix(0.1612512,0,0,0.1613438,7.1779555,6.9034534)"/><path id="path6726" d="M 45.402216 24.538368 A 21.456448 21.456448 0 1 1 2.4893208,24.538368 A 21.456448 21.456448 0 1 1 45.402216 24.538368 z" transform="matrix(0.1165151,0,0,0.1165151,8.209957,8.1409098)" style="color:#000;fill:#fff;fill-opacity:1;fill-rule:evenodd;stroke:#888a85;stroke-width:12.01259232px;stroke-linecap:round;stroke-linejoin:miter;marker:none;marker-start:none;marker-mid:none;marker-end:none;stroke-miterlimit:4;stroke-dasharray:none;stroke-dashoffset:0;stroke-opacity:1;visibility:visible;display:inline;overflow:visible;enable-background:accumulate"/><path style="fill:#fff;fill-opacity:.28828831;fill-rule:evenodd;stroke:none;stroke-width:1px;stroke-linecap:butt;stroke-linejoin:miter;stroke-opacity:1" id="path6728" d="M 20.792388,8.1848427 C 20.231374,6.340593 19.098996,4.6687037 17.673184,3.4435489 C 16.623096,4.6982794 14.806711,6.9420444 12.806469,9.2883352 C 13.133143,9.5541269 13.384775,9.9079377 13.505308,10.323111 L 20.792388,8.1848427 z M 9.613205,12.860074 C 9.351703,12.622926 9.146755,12.327327 9.030841,11.985616 L 1.598187,14.245738 C 2.180441,16.011205 3.24322,17.555372 4.626481,18.734624 C 5.793526,17.37535 7.464365,15.371083 9.613205,12.860074 z"/><path id="path6730" d="M 8.061746,1.4476782 C 6.124046,2.0224208 4.41826,3.1191961 3.131025,4.5798985 C 4.449336,5.6556819 7.020655,7.780915 9.485835,9.8300954 C 9.765094,9.495433 10.136834,9.2376439 10.573045,9.114159 L 8.061746,1.4476782 z M 12.808715,12.604347 C 12.559549,12.87225 12.248973,13.082213 11.889946,13.200961 L 14.431873,21.00168 C 16.286795,20.405182 17.909207,19.316397 19.148215,17.89929 C 17.720063,16.703688 15.446958,14.805769 12.808715,12.604347 z" style="fill:#000;fill-opacity:.04054057;fill-rule:evenodd;stroke:none;stroke-width:1px;stroke-linecap:butt;stroke-linejoin:miter;stroke-opacity:1"/><path id="path6732" d="M 8.744261,13.035934 L 2.758786,16.599371 M 17.805522,3.6133464 L 13.358534,8.9686623" style="fill:none;fill-opacity:1;fill-rule:evenodd;stroke:#fff;stroke-width:1.39964771px;stroke-linecap:butt;stroke-linejoin:miter;stroke-opacity:.36486487"/></g></g></svg>