<svg xmlns="http://www.w3.org/2000/svg" xmlns:cc="http://web.resource.org/cc/" xmlns:svg="http://www.w3.org/2000/svg" xmlns:xlink="http://www.w3.org/1999/xlink" id="svg5615" width="22" height="22" version="1.0"><defs id="defs5617"><linearGradient id="linearGradient5911"><stop style="stop-color:#fcaf3e;stop-opacity:1" id="stop5913" offset="0"/><stop style="stop-color:#f57900;stop-opacity:1" id="stop5915" offset="1"/></linearGradient><linearGradient id="linearGradient5917" x1="10.455" x2="10.455" y1="21.968" y2="30.653" gradientTransform="matrix(0.625,0,0,0.6206086,0.1875,-4.0363359)" gradientUnits="userSpaceOnUse" xlink:href="#linearGradient5911"/><linearGradient id="linearGradient6672"><stop style="stop-color:#fff;stop-opacity:1" id="stop6674" offset="0"/><stop style="stop-color:#fff;stop-opacity:0" id="stop6676" offset="1"/></linearGradient><linearGradient id="linearGradient6565"><stop style="stop-color:#000;stop-opacity:1" id="stop6567" offset="0"/><stop style="stop-color:#000;stop-opacity:0" id="stop6569" offset="1"/></linearGradient><radialGradient id="radialGradient7284" cx="23.946" cy="24.538" r="21.456" fx="23.946" fy="24.538" gradientUnits="userSpaceOnUse" xlink:href="#linearGradient6565"/><linearGradient id="linearGradient5912"><stop style="stop-color:#ebebe8;stop-opacity:1" id="stop5914" offset="0"/><stop style="stop-color:#eeeeec;stop-opacity:1" id="stop5916" offset="1"/></linearGradient><linearGradient id="linearGradient7286" x1="9.295" x2="13.387" y1="5.661" y2="33.642" gradientUnits="userSpaceOnUse" xlink:href="#linearGradient5912"/><linearGradient id="linearGradient6678" x1="43.282" x2="28.477" y1="37.464" y2="37.465" gradientUnits="userSpaceOnUse" xlink:href="#linearGradient6672"/><radialGradient id="radialGradient6710" cx="23.946" cy="24.538" r="21.456" fx="23.946" fy="24.538" gradientUnits="userSpaceOnUse" xlink:href="#linearGradient6565"/><linearGradient id="linearGradient6712" x1="9.295" x2="13.387" y1="5.661" y2="33.642" gradientUnits="userSpaceOnUse" xlink:href="#linearGradient5912"/><linearGradient id="linearGradient6714" x1="43.205" x2="28.453" y1="37.464" y2="37.465" gradientUnits="userSpaceOnUse" xlink:href="#linearGradient6672"/><radialGradient id="radialGradient6746" cx="23.946" cy="24.538" r="21.456" fx="23.946" fy="24.538" gradientUnits="userSpaceOnUse" xlink:href="#linearGradient6565"/><linearGradient id="linearGradient6748" x1="9.295" x2="13.387" y1="5.661" y2="33.642" gradientTransform="matrix(0.4893634,0,0,0.4893634,-0.718182,-1.0081789)" gradientUnits="userSpaceOnUse" xlink:href="#linearGradient5912"/><linearGradient id="linearGradient6789" x1="9.295" x2="13.387" y1="5.661" y2="33.642" gradientUnits="userSpaceOnUse" xlink:href="#linearGradient5912"/><linearGradient id="linearGradient6815" x1="43.282" x2="28.477" y1="37.464" y2="37.465" gradientTransform="matrix(0.5044,0,0,0.789146,-3.3886096,-9.1055033)" gradientUnits="userSpaceOnUse" xlink:href="#linearGradient6672"/><linearGradient id="linearGradient6830" x1="43.282" x2="28.477" y1="37.464" y2="37.465" gradientTransform="matrix(0.5044,0,0,0.789146,-3.3886096,-9.1055033)" gradientUnits="userSpaceOnUse" xlink:href="#linearGradient6672"/></defs><metadata id="metadata5620"/><g id="layer1"><path style="opacity:.38864632;color:#000;fill:url(#radialGradient6746);fill-opacity:1;fill-rule:evenodd;stroke:none;stroke-width:1.50133264px;stroke-linecap:round;stroke-linejoin:miter;marker:none;marker-start:none;marker-mid:none;marker-end:none;stroke-miterlimit:4;stroke-dasharray:none;stroke-dashoffset:0;stroke-opacity:1;visibility:visible;display:inline;overflow:visible;enable-background:accumulate" id="path6716" d="M 45.402216,24.538368 A 21.456448,21.456448 0 1 1 2.4893208,24.538368 A 21.456448,21.456448 0 1 1 45.402216,24.538368 z" transform="matrix(0.5148695,0,0,0.2330302,-1.281675,12.281819)"/><path style="opacity:1;color:#000;fill:url(#linearGradient6748);fill-opacity:1;fill-rule:evenodd;stroke:#888a85;stroke-width:1.00000048px;stroke-linecap:round;stroke-linejoin:miter;marker:none;marker-start:none;marker-mid:none;marker-end:none;stroke-miterlimit:4;stroke-dasharray:none;stroke-dashoffset:0;stroke-opacity:1;visibility:visible;display:inline;overflow:visible;enable-background:accumulate" id="path6718" d="M 11 0.5 C 5.2039999 0.5 0.49999999 5.2040003 0.5 11 C 0.5 16.796 5.2039996 21.500001 11 21.5 C 16.796 21.5 21.500001 16.796 21.5 11 C 21.5 5.2039999 16.796 0.50000002 11 0.5 z M 11 8.5 C 12.38 8.5000001 13.5 9.6199999 13.5 11 C 13.5 12.38 12.38 13.5 11 13.5 C 9.6199996 13.5 8.5 12.38 8.5 11 C 8.5000005 9.6200002 9.6199999 8.5 11 8.5 z"/><path style="opacity:1;color:#000;fill:#000;fill-opacity:.1081081;fill-rule:evenodd;stroke:none;stroke-width:2.52428889px;stroke-linecap:round;stroke-linejoin:miter;marker:none;marker-start:none;marker-mid:none;marker-end:none;stroke-miterlimit:4;stroke-dasharray:none;stroke-dashoffset:0;stroke-opacity:1;visibility:visible;display:inline;overflow:visible;enable-background:accumulate" id="path6720" d="M 11 6 C 8.240001 6 6.0000001 8.2400002 6 11 C 6 13.76 8.2400007 16.000001 11 16 C 13.759999 16 16 13.760001 16 11 C 16 8.2399998 13.759999 6.0000001 11 6 z M 11 7.9375 C 12.683747 7.9375001 14.0625 9.3162533 14.0625 11 C 14.0625 12.683746 12.683747 14.0625 11 14.0625 C 9.3162532 14.0625 7.9375 12.683747 7.9375 11 C 7.9374999 9.3162529 9.3162533 7.9375 11 7.9375 z"/><path style="opacity:1;color:#000;fill:none;fill-opacity:1;fill-rule:evenodd;stroke:#fff;stroke-width:2.25857425px;stroke-linecap:round;stroke-linejoin:miter;marker:none;marker-start:none;marker-mid:none;marker-end:none;stroke-miterlimit:4;stroke-dasharray:none;stroke-dashoffset:0;stroke-opacity:.56756759;visibility:visible;display:inline;overflow:visible;enable-background:accumulate" id="path6722" d="M 45.402216,24.538368 A 21.456448,21.456448 0 1 1 2.4893208,24.538368 A 21.456448,21.456448 0 1 1 45.402216,24.538368 z" transform="matrix(0.4427573,0,0,0.4427573,0.397835,0.1354571)"/><path id="path6724" d="M 45.402216 24.538368 A 21.456448 21.456448 0 1 1 2.4893208,24.538368 A 21.456448 21.456448 0 1 1 45.402216 24.538368 z" transform="matrix(0.1631211,0,0,0.1631211,7.0939396,6.997274)" style="opacity:1;color:#000;fill:none;fill-opacity:1;fill-rule:evenodd;stroke:#fff;stroke-width:6.1304183px;stroke-linecap:round;stroke-linejoin:miter;marker:none;marker-start:none;marker-mid:none;marker-end:none;stroke-miterlimit:4;stroke-dasharray:none;stroke-dashoffset:0;stroke-opacity:.42342344;visibility:visible;display:inline;overflow:visible;enable-background:accumulate"/><path id="path6728" d="M 20.792388,8.1848427 C 20.231374,6.340593 19.098996,4.6687037 17.673184,3.4435489 C 16.623096,4.6982794 14.806711,6.9420444 12.806469,9.2883352 C 13.133143,9.5541269 13.384775,9.9079377 13.505308,10.323111 L 20.792388,8.1848427 z M 9.613205,12.860074 C 9.351703,12.622926 9.146755,12.327327 9.030841,11.985616 L 1.598187,14.245738 C 2.180441,16.011205 3.24322,17.555372 4.626481,18.734624 C 5.793526,17.37535 7.464365,15.371083 9.613205,12.860074 z" style="fill:#fff;fill-opacity:.28828831;fill-rule:evenodd;stroke:none;stroke-width:1px;stroke-linecap:butt;stroke-linejoin:miter;stroke-opacity:1"/><path style="fill:#000;fill-opacity:.04054057;fill-rule:evenodd;stroke:none;stroke-width:1px;stroke-linecap:butt;stroke-linejoin:miter;stroke-opacity:1" id="path6730" d="M 8.061746,1.4476782 C 6.124046,2.0224208 4.41826,3.1191961 3.131025,4.5798985 C 4.449336,5.6556819 7.020655,7.780915 9.485835,9.8300954 C 9.765094,9.495433 10.136834,9.2376439 10.573045,9.114159 L 8.061746,1.4476782 z M 12.808715,12.604347 C 12.559549,12.87225 12.248973,13.082213 11.889946,13.200961 L 14.431873,21.00168 C 16.286795,20.405182 17.909207,19.316397 19.148215,17.89929 C 17.720063,16.703688 15.446958,14.805769 12.808715,12.604347 z"/><path style="fill:none;fill-opacity:1;fill-rule:evenodd;stroke:#fff;stroke-width:.99999988px;stroke-linecap:butt;stroke-linejoin:miter;stroke-opacity:.36486487" id="path6732" d="M 8.744261,13.035934 L 2.758786,16.599371 M 17.805522,3.6133464 L 13.358534,8.9686623"/><path style="opacity:1;fill:url(#linearGradient5917);fill-opacity:1;stroke:#ce5c00;stroke-width:.99999988;stroke-opacity:1" id="rect4933" d="M 4.5307967,6.0343914 L 4.5307967,8.4960172 L 1.4375001,8.4960172 C 0.91812325,8.4960172 0.50000005,8.9112025 0.50000005,9.4269306 L 0.50000005,12.57288 C 0.50000005,13.088607 0.91812325,13.503793 1.4375001,13.503793 L 4.5307967,13.503793 L 4.5307967,16.012151 L 9.5593768,10.553351 L 4.5307967,6.0343914 z"/><path id="path5909" d="M 5.5345784,8.27129 L 5.5533908,9.5006443 L 1.9208356,9.5006443 C 1.4014587,9.5006443 1.5142733,9.9158303 1.5142733,10.431558 L 1.5142733,11.554283 C 1.5142733,12.070011 1.4367321,12.485196 1.956109,12.485196 L 5.5533908,12.485196 L 5.5345784,13.405586 L 8.1718392,10.630024 L 5.5345784,8.27129 z" style="opacity:1;fill:none;fill-opacity:1;stroke:#fff;stroke-width:.99999988;stroke-opacity:.31531528"/></g></svg>